<svg width="172" height="174" viewBox="0 0 172 174" fill="none" xmlns="http://www.w3.org/2000/svg">
<path d="M159.057 54.9478C157.423 54.3111 154.519 52.4045 152.431 50.8285C151.768 50.3313 152.426 49.8862 151.991 49.5211C151.384 49.0209 150.694 48.8018 150.014 48.453C149.722 48.3024 149.432 48.1251 149.156 47.8842C148.864 47.6254 149.754 46.8387 149.435 46.5888C147.719 45.2447 145.766 44.6489 143.896 43.5462C134.658 38.1127 125.05 33.6872 115.087 29.5277C111.804 28.1575 108.031 25.8074 104.406 25.1053C103.983 25.0244 103.934 26.0147 103.833 26.0652C102.261 26.8343 103.245 25.1173 102.528 24.6235C99.6793 22.6706 96.1616 21.5655 93.0149 21.1383C91.6744 20.9609 92.5059 23.1352 91.4697 21.7728C91.3968 21.6802 91.9711 20.7748 91.6426 20.5811C91.5453 20.5241 91.434 20.4713 91.3129 20.422C90.4891 20.0884 89.2436 19.9285 88.7049 19.7355C87.5301 19.3068 87.3285 19.2739 86.1827 19.0224C84.6257 18.6736 82.8411 17.8236 81.1131 17.7761C80.7443 17.7692 81.0515 18.8752 80.4542 18.959C79.8636 19.0414 78.3655 18.7323 77.898 18.4242C77.4197 18.1122 77.7433 17.3286 77.6769 17.1302C77.1209 15.4533 75.0874 17.4353 74.8709 17.4714C70.6971 17.9804 67.3002 16.6016 63.4706 16.7566C60.5843 16.8798 57.6101 17.6329 54.9989 18.0907C51.8938 18.6332 49.1529 18.8504 46.3639 20.0997C46.0728 20.2311 46.8868 21.2194 46.5418 21.3795C45.3281 21.9462 44.145 22.542 42.9763 23.1589C40.6363 24.3948 38.3571 25.7181 35.959 27.1186C35.5968 27.3309 35.2748 26.172 34.8634 26.3434C32.3765 27.3134 27.7898 29.4262 30.6725 33.4809C29.4944 34.7471 28.1927 36.3994 26.5746 37.3061C25.5297 37.901 25.0117 36.437 24.8117 37.8155C24.768 38.1257 25.8495 38.2903 25.7202 38.7127C25.1842 40.4759 24.0178 42.1251 23.7902 43.9956C23.747 44.3753 24.6336 44.6442 24.746 44.803C25.6491 46.0984 23.0717 46.5913 22.8043 46.8482C20.8211 48.6954 20.6991 50.5917 20.0309 52.778C19.8767 53.2878 21.2378 53.0261 21.1343 53.5244C20.8874 54.6859 20.6045 55.8523 20.2718 57.0165C19.8687 58.4246 19.3945 59.8223 18.8289 61.1638C18.5971 61.7095 17.6628 60.9877 17.499 61.2407C16.792 62.368 18.7044 62.9827 18.0927 64.0605C17.9668 64.2904 17.0984 64.0113 16.9935 64.0404C15.3447 64.5106 17.4338 65.4546 17.4569 65.6367C17.798 67.9883 15.3519 69.1985 15.4905 71.4896C15.5108 71.7597 16.6942 71.2498 16.6832 71.9989C16.6218 76.9897 16.3395 82.1868 15.91 87.203C15.8458 87.9833 14.9393 87.522 14.8387 87.5796C13.2767 88.5496 15.5372 88.832 15.6486 89.0661C16.4724 90.944 14.9445 93.1048 17.7807 93.9507C18.1712 99.2904 20.066 104.294 21.9162 109.183C22.951 111.918 23.9913 114.666 24.8239 117.657C24.8561 117.763 23.826 118.166 23.8955 118.375C24.7497 120.901 25.9366 119.586 28.5685 119.79C29.2221 119.83 27.9172 122.311 27.8448 122.519C27.545 123.256 25.9761 123.853 25.9536 124.045C25.8389 125.625 30.0245 122.282 30.9491 123.481C30.9717 123.525 30.0681 123.97 30.0701 124.132C30.0757 124.642 30.6323 124.714 30.615 125.236C30.5678 126.429 28.7815 128.366 30.8653 128.476C31.132 128.482 33.2625 126.31 34.0558 127.432C34.3665 127.888 36.0478 129.637 36.3869 130.258C36.7198 130.885 35.6919 131.231 35.6946 131.295C36.0782 133.537 35.2032 133.408 34.5391 135.452C33.904 137.503 36.8855 134.044 37.5126 133.942C38.1364 133.842 38.4056 135.559 38.4125 136.066C38.4142 136.571 37.6779 136.741 37.7625 137.103C38.3605 139.495 39.9353 136.017 40.9043 135.912C43.1716 135.628 41.8862 138.961 42.8112 140.136C43.0575 140.449 43.2936 139.652 43.6065 139.81C44.8362 140.439 44.8489 141.783 46.6704 141.932C46.975 141.963 49.1532 141.038 48.9461 142.713C48.9162 142.955 48.1635 143.456 48.5318 143.944C49.0787 144.675 50.2843 145.711 51.226 145.984C51.9183 146.183 52.009 144.591 52.4988 145.418C52.7195 145.787 51.6791 146.087 52.1356 146.726C52.5878 147.365 54.1929 148.303 54.8164 148.632C55.4397 148.964 55.6363 147.859 55.7215 147.827C56.2214 147.651 57.6232 147.864 57.7253 147.921C58.0124 148.073 58.2957 148.228 58.5756 148.385C63.3628 151.068 67.5487 154.592 72.952 155.862C73.3986 155.967 73.4677 154.818 73.5395 154.823C75.1508 154.873 73.0529 157.285 73.8009 158.57C74.3449 156.378 74.8333 156.97 75.9607 157.058C76.5043 157.097 76.4802 156.178 76.5528 156.107C77.6754 155.063 77.708 156.852 77.7506 157.229C77.8989 158.611 78.8576 157.299 78.9719 158.222C79.0944 159.14 77.9589 160.145 79.0062 160.41C79.5013 159.708 79.2876 157.471 80.1449 157.345C83.3436 156.891 88.4504 159.609 90.868 160.136C93.2441 160.681 94.0449 160.625 95.4182 161.091C97.9099 161.912 97.1539 160.249 98.7911 159.697C100.429 159.134 99.3176 162.891 99.4716 163.736C99.6264 164.58 99.9529 163.754 100.199 164.231C100.446 164.708 99.7797 165.216 100.438 165.442C101.103 165.671 103.05 164.334 103.335 163.484C103.748 162.272 103.568 160.982 103.925 160.51C104.098 160.282 104.396 160.245 104.944 160.496C105.041 160.541 104.663 161.534 105.039 161.657C108.046 162.599 111.217 162.719 114.29 163.332C114.716 163.417 114.366 164.552 114.616 164.614C117.232 165.245 116.248 163.377 117.495 161.2C117.351 164.014 118.232 165.702 120.238 165.539C121.441 165.435 121.106 164.235 121.764 163.292C121.958 163.009 122.885 163.739 122.96 163.146C123.189 161.21 122.152 159.245 124.153 159.783C124.242 159.809 124.143 160.869 124.441 160.884C126.389 160.959 126.245 158.984 128.073 158.299C129.499 157.768 132.433 158.092 134.132 157.548C135.323 160.479 136.739 159.043 136.3 156.8C136.861 156.56 137.405 156.237 137.947 155.932L137.386 156.396C137.78 155.994 138.182 155.609 138.632 155.297C138.964 155.064 139.494 155.85 139.601 155.876C141.294 156.271 139.994 154.509 140.083 154.264C141.153 151.616 143.771 150.597 143.778 147.496C143.779 147.382 141.955 146.169 143.686 146.356C143.806 146.366 144.243 147.625 144.922 146.569C145.592 145.536 147.737 143.895 147.51 141.864C147.464 141.366 146.231 139.729 147.831 139.458C148.048 139.422 148.586 139.77 148.972 139.744C150.209 139.642 148.244 138.583 150.228 138.642C152.209 138.706 154.03 137.821 153.343 135.652C153.325 135.581 151.776 134.654 151.961 134.121C152.263 133.263 152.954 132.115 153.174 131.18C153.278 130.736 152.15 130.758 152.15 130.677C152.267 127.604 153.628 125.705 154.527 122.515C154.695 121.924 153.445 120.048 154.732 119.028C156.138 117.885 161.349 119.763 160.344 116.569C159.934 115.25 153.262 113.384 156.85 111.41C156.119 107.24 157.848 103.339 156.352 99.2184C156.286 99.0331 154.358 98.5622 154.353 98.133C154.349 97.4887 155.204 97.0661 155.225 96.5965C155.235 96.4276 155.236 96.2603 155.231 96.0944L155.233 96.1074C155.042 94.3567 154.13 92.8642 153.896 91.1692C153.796 90.4652 154.743 90.5231 154.618 89.6774C154.489 88.8307 153.192 88.5384 153.505 87.2891C153.744 86.3465 155.941 84.9244 155.94 83.7127C153.568 84.2476 153.43 83.4604 152.457 82.2526C152.269 82.0214 151.522 82.5135 151.391 82.4152C150.84 82.0222 151.396 81.3798 150.811 81.0243C150.67 80.9376 149.867 81.1452 149.706 81.0869C148.314 80.6032 149.755 78.7987 150.003 78.4813C150.951 77.2781 149.796 77.1608 150.074 76.3607C150.35 75.5593 151.22 76.3927 151.28 75.5291C151.402 73.7366 150.655 71.6884 150.192 70.0368C150.002 69.3787 149.078 70.1486 149.027 70.0619C148.347 68.7949 149.048 67.0797 146.708 66.9912C151.86 64.3522 145.927 66.3444 146.408 64.0813C146.449 63.9025 148.959 62.8918 149.521 63.356C150.084 63.8207 149.559 64.9599 150.402 65.5858C150.6 65.7337 153.358 66.0857 153.552 66.1933C155.063 67.0272 151.259 68.3804 151.067 68.5071C148.999 69.9133 152.013 70.4663 152.301 70.7724C153.617 72.1583 153.481 73.7129 154.466 74.9199C155.105 75.7104 157.673 75.086 157.795 75.825C158.203 78.2985 154.857 80.0484 158.528 81.5151C159.311 81.8347 161.994 80.6483 160.225 82.9595C160.115 83.108 158.409 84.8905 159.861 85.3481C160.045 85.406 160.864 85.2138 160.962 85.3243C161.602 86.0698 161.075 86.7832 161.589 87.6432C162.103 88.5023 162.805 89.5366 162.734 90.6667C162.694 91.3498 161.306 92.4651 160.984 92.8393C160.099 93.8461 161.815 94.4595 160.923 95.1726C160.933 95.2607 160.975 95.5225 160.978 95.6111C160.929 95.6436 160.874 95.6759 160.811 95.7078C159.515 96.3593 157.395 95.4839 156.64 96.9475C158.823 96.8299 161.069 96.7789 163.267 96.6998C163.431 99.8954 162.863 103.064 162.985 106.268C163.002 106.667 164.174 106.25 164.222 106.681C164.416 108.5 163.555 110.078 163.819 111.974C164.028 113.442 165.181 115.129 165.373 116.717C162.811 117.47 163.451 119.805 163.016 121.442C162.867 122.009 162.208 121.889 161.939 122.27C160.933 123.701 163.217 123.284 163.502 123.761C164.693 125.842 159.733 125.209 159.475 127.31C159.464 127.412 161.81 129.301 161.928 129.538C162.73 130.985 160.978 129.551 160.624 130.265C159.967 131.573 159.129 132.351 159.46 134.154C159.564 134.669 160.844 136.274 159.335 136.82C159.138 136.891 158.314 136.571 158.236 136.65C156.887 138.111 159.502 138.989 160.045 140.314C160.585 141.645 158.204 142.548 157.572 142.644C155.933 142.928 157.242 141.812 157.125 141.716C155.756 140.625 155.621 141.813 155.163 142.575C152.595 141.69 152.295 142.843 154.693 143.371C154.957 143.425 154.983 142.693 155.163 142.575C157.353 144.276 157.097 145.786 154.197 146.126C152.838 146.272 151.906 145.103 151.433 147.193C151.205 148.14 153.037 148.665 153.085 149.674C153.175 152.009 150.329 153.393 149.422 155.228C149.087 155.905 150.345 155.87 150.139 156.358C149.583 157.665 148.245 158.198 147.706 159.532C147.657 159.655 148.694 160.068 148.433 160.423C147.524 161.673 146.491 162.711 145.405 163.693C145.062 164.032 144.042 164.942 143.618 165.172C141.92 166.017 140.18 166.688 138.348 167.466C136.714 168.187 133.924 169.764 132.157 170.099C129.077 170.744 125.245 169.814 122.871 170.468C121.301 170.894 121.767 171.913 121.137 172.71C119.898 174.259 117.35 171.872 117.038 171.489C117.03 171.478 118.375 171.149 117.619 170.641C117.139 169.52 117.055 171.483 117.038 171.489C116.821 171.255 114.11 171.106 113.589 171.309C113.301 171.426 113.478 172.438 113.326 172.48C109.93 173.379 106.505 173.55 103.154 172.98C102.94 172.943 102.725 172.903 102.509 172.86C102.448 172.836 102.617 171.709 102.472 171.665C100.447 171.022 99.0199 172.294 97.2072 172.945C95.4001 173.594 94.0299 173.151 93.2658 171.087C91.9413 171.168 90.2039 170.043 89.2371 169.355C88.2664 168.668 87.7523 170.82 87.649 170.847C84.4633 171.711 82.9703 170.122 80.0048 169.227C78.5884 168.8 75.6692 168.365 74.0529 168.134C72.7741 167.96 72.1932 167.238 70.9736 167.192C70.8081 167.185 70.6577 168.171 70.5996 168.192C68.9688 168.897 70.3326 166.811 70.2114 166.318C69.7781 164.523 69.5098 163.557 67.7094 163.681C67.3038 163.713 65.023 166.557 64.2702 166.479C63.3034 166.374 64.0904 165.351 63.0777 165.266C62.9913 165.257 62.7182 165.974 62.1702 165.711C59.6237 164.497 57.0432 162.814 54.424 161.552C54.0661 161.376 53.9655 162.692 53.4347 162.452C52.7697 162.149 52.1027 161.823 51.4346 161.464C49.617 160.488 47.8518 159.3 46.4302 157.929C45.9565 157.466 46.7509 156.957 46.7657 156.669C46.857 154.927 44.6537 156.147 44.4557 156.068C39.8282 154.302 38.0575 150.502 33.7085 148.124C33.4768 148.008 30.3285 148.448 30.992 146.296C31.0304 146.148 31.7623 144.001 30.2108 144.512C30.1128 144.542 29.8029 145.722 29.1461 144.964C28.495 144.21 26.8234 143.603 26.6932 141.794C26.6451 141.218 27.4387 139.058 25.3587 139.273C25.2294 139.311 21.0775 140.355 22.5262 138.076C22.7673 137.702 24.8973 135.984 22.8387 135.756C22.4405 135.711 22.326 136.518 21.5283 136.173C20.2971 135.637 19.8617 133.95 17.9858 133.523C17.6594 133.457 15.4848 133.682 16.0826 132.11C16.1776 131.865 17.0714 131.536 16.8764 131.097C15.961 129.015 14.1379 127.411 13.4768 125.132C13.2457 124.329 14.7215 123.908 14.639 123.001C14.5538 122.092 14.0781 120.488 13.0781 120.053C12.0726 119.61 10.4434 121.574 9.65098 120.476C8.58712 118.986 7.75792 117.355 7.09083 115.655C5.60966 111.88 4.96598 107.885 4.06454 104.053C3.87346 103.227 3.23671 104.128 2.90435 102.912C1.6143 98.4722 -0.36701 90.6165 1.19945 86.5607C2.42051 83.3583 3.77015 87.1659 4.20249 84.7946C4.41352 83.6744 1.62867 82.5666 1.53364 82.2843C0.573205 79.5964 1.79904 77.7078 1.50219 75.2897C1.44237 74.7865 0.313857 75.2393 0.276066 74.8078C0.138445 73.3293 0.724913 71.8156 0.743934 70.4168C0.750635 69.7889 -0.10487 69.8334 0.0107279 69.2585C0.28001 67.8859 0.76609 66.6967 1.72042 65.464C1.80727 65.3538 2.75466 66.2924 2.91841 65.2981C3.18309 63.6842 4.25467 61.8244 3.78568 59.8467C3.6443 59.2593 1.73675 58.8802 3.28219 57.9434C3.60724 57.747 5.82365 58.5202 4.12923 56.7592C3.857 56.4896 1.91024 53.8437 3.41426 52.9409C3.495 52.8927 3.58563 52.8498 3.68691 52.813C4.20809 52.6184 6.2431 52.333 6.12021 51.6187C6.09719 51.518 4.99537 51.6106 5.03916 51.0426C5.21174 49.0507 5.9047 47.0791 6.23951 45.0207C6.32833 44.4687 5.04388 44.9132 5.21277 44.0951C5.67824 41.8331 6.96982 39.2079 8.19015 37.2506C8.64264 36.5272 9.22839 37.4206 9.34233 37.4021C11.1768 37.1539 9.46882 35.7663 9.49756 35.4078C9.68773 33.239 11.3022 32.283 11.9884 30.4983C12.1841 30.0039 11.1141 29.8319 11.0864 29.6956C10.8612 28.2947 12.0421 29.915 12.5621 29.4149C14.0225 28.0287 15.1084 26.174 16.1553 24.4764C16.5396 23.8529 15.0989 23.8381 15.4621 23.28C17.6085 19.9486 20.5264 16.7989 23.8971 14.6072C24.5324 14.1979 24.7943 15.1883 25.0476 15.2387C26.7776 15.6264 26.6572 13.1535 26.8378 12.7702C27.5872 11.0702 28.6017 11.3204 29.6971 10.3647C31.002 9.23451 32.4951 8.16809 34.1075 7.21229C39.1437 4.18739 45.2184 2.50283 49.9841 1.72269C58.2321 0.392336 64.3997 1.09173 71.6982 1.22338C72.1659 1.23728 71.7666 0.00289059 72.1703 1.33514e-05C77.427 0.030179 82.3579 1.18912 87.3876 1.78997C87.8005 1.84208 87.4257 0.60287 88.1004 0.650445C89.4941 0.741959 91.1872 1.16148 92.4459 1.82086C93.0633 2.14107 91.968 2.90153 92.5908 3.20408C93.4593 3.62756 94.3572 3.96128 95.3026 4.21481C95.9285 4.38294 96.5671 4.51203 97.2076 4.60052C97.8846 4.69223 97.1867 3.30061 98.0443 3.50916C103.878 4.91262 109.502 6.44376 114.6 9.77367C114.95 10.0026 114.514 12.3703 115.467 12.2154C115.743 11.6114 115.994 10.8751 116.251 10.2164C124.393 12.6287 131.861 16.4156 139.549 19.7657C139.876 19.908 139.795 18.5056 140.43 18.7755C144.086 20.329 147.779 21.5499 150.971 24.3584C151.289 24.636 150.197 26.5788 151.399 26.7537C151.629 26.7896 153.352 27.2493 153.988 27.0121C154.075 26.9723 154.211 25.894 154.748 26.1078C156.379 26.7682 157.994 27.5519 159.564 28.4494C161.004 29.2721 162.401 30.1861 163.731 31.1891C164.171 31.5265 163.15 32.2492 163.47 32.5037C165.705 34.2965 168.796 34.9129 171.072 37.5976C172.683 39.5438 170.858 40.5957 170.643 42.8768C170.62 43.0373 170.914 43.4079 171.122 43.9368C171.336 44.4613 171.402 45.1402 170.94 45.4405C168.534 46.7707 165.925 48.2606 163.456 49.8409C163.318 49.9167 163.181 49.846 163.052 49.7045C162.921 49.562 162.816 49.3617 162.752 49.3275C162.684 49.2834 162.644 49.4058 162.496 49.4707C162.358 49.5623 162.06 49.4442 161.749 49.7093C161.73 49.7283 161.701 49.8061 161.71 50.0024C161.719 50.1983 161.774 50.5111 161.841 50.8094C161.986 51.4206 162.022 51.8112 161.898 52.06C161.74 52.409 160.747 52.9871 160.657 53.5432C160.562 54.0856 161.216 53.3969 160.744 53.7181C160.238 54.0297 159.683 55.1707 159.057 54.9478ZM84.9473 166.208C84.2064 164.975 83.2694 168.751 84.5108 168.055C84.5718 168.016 84.9865 166.269 84.9473 166.208ZM159.893 103.137C158.218 104.445 160.751 105.253 162.058 104.328C163.36 103.384 160.4 102.73 159.893 103.137ZM157.163 90.1032C156.126 91.7904 161.582 90.9642 160.173 89.615C160.092 89.5361 157.222 90.0036 157.163 90.1032ZM166.244 40.488C166.24 40.5434 166.894 40.9874 166.948 40.9618C167.966 40.129 166.583 39.196 166.244 40.488ZM152.826 78.0419C152.226 78.6705 153.395 79.6944 154.144 78.9131C154.747 78.2801 153.571 77.2537 152.826 78.0419ZM41.6497 141.638C41.6742 141.584 41.2838 141.199 41.0852 141.46C40.4465 142.301 41.2321 142.553 41.6497 141.638ZM146.483 57.5213C147.258 60.6008 143.503 63.8128 142.941 60.3812C142.839 59.7593 144.735 61.2153 144.883 60.3344C145.151 58.7222 142.133 58.6818 143.136 56.7998C143.32 56.4585 146.449 57.3419 146.491 57.5247C146.488 57.5236 146.486 57.5225 146.483 57.5213ZM85.3344 161.521C85.3262 161.468 84.6021 161.267 84.5737 161.312C83.9152 162.435 85.3913 162.845 85.3344 161.521ZM22.9196 116.523C22.9897 116.435 22.2576 114.904 22.1471 114.901C19.9277 115.06 21.4521 118.255 22.9196 116.523ZM134.191 157.614C134.391 156.176 135.044 155.698 136.296 156.8C135.599 157.072 134.911 157.386 134.191 157.614Z" fill="white"/>
<path d="M51.076 90.8464C51.3058 90.3181 52.1777 89.6626 52.9316 89.2372C53.1701 89.1001 53.4112 89.4729 53.5943 89.3853C53.9421 89.2249 53.9979 88.829 54.3738 88.6775C54.5019 88.6263 54.9288 89.1663 55.0518 89.102C55.7101 88.7607 55.9971 88.1242 56.5396 87.6628C59.252 85.3358 61.5439 82.6423 63.9103 79.8668C64.4333 79.2537 65.22 78.6702 65.8338 77.9823C66.1055 77.6835 66.3442 77.3475 66.4858 76.9875C66.5377 76.8551 66.0037 76.5917 65.9783 76.5426C65.5929 75.7856 66.5035 76.5634 66.7851 76.428C67.9042 75.8809 68.6121 74.8782 68.975 73.8639C69.1291 73.4292 67.8965 73.1947 68.6917 73.1591C68.7459 73.1557 69.2189 73.5815 69.3403 73.5119C69.6149 73.3535 69.798 72.839 69.9522 72.6799C70.2536 72.3728 70.2855 72.3075 70.4948 71.9719C70.7867 71.5136 71.3841 71.114 71.5572 70.5354C71.5921 70.4115 70.9547 70.2307 70.96 70.0045C70.9654 69.7788 71.2765 69.3497 71.4956 69.2718C71.7152 69.1935 72.115 69.5102 72.231 69.5405C73.2073 69.8009 72.3379 68.5964 72.3466 68.5129C72.5578 66.9869 73.8266 66.2862 74.474 65.0961C74.9628 64.1939 75.2607 63.104 75.7514 62.257C76.3382 61.249 77.1074 60.5348 77.5814 59.4985C77.6318 59.3899 76.8981 59.1647 76.9582 59.0316C77.5982 57.6159 78.3831 56.274 79.5451 55.1254C79.6618 55.0114 80.1603 55.4912 80.3121 55.3955C81.2335 54.7927 83.0863 54.043 80.78 52.218C80.8485 52.1271 80.9186 52.0332 80.9916 51.9392C81.3443 51.4829 81.764 51.0158 82.4064 50.8095C82.9074 50.6464 83.3917 51.2903 83.3189 50.7486C83.3029 50.6274 82.6784 50.4626 82.6975 50.3014C82.7804 49.6187 83.2764 49.0784 83.259 48.3674C83.2551 48.2199 82.7299 48.0049 82.6542 47.9272C82.0436 47.294 83.4943 47.4271 83.6307 47.3713C84.6623 46.9266 84.6615 46.2398 85.002 45.5333C85.0814 45.3685 84.2996 45.2511 84.3503 45.083C84.6185 44.2235 85.0447 43.4041 85.6778 42.7376C85.8206 42.5889 86.3561 42.994 86.4553 42.9349C86.8865 42.6648 85.7786 42.1369 86.1605 41.8772C86.2394 41.8216 86.7426 42.0595 86.8048 42.0673C87.7834 42.183 86.5815 41.5224 86.5725 41.459C86.4542 40.7394 87.5557 40.6578 87.8634 40.1361C87.9102 40.0555 87.937 39.9703 87.9412 39.8629C87.9433 39.7659 87.2094 39.7729 87.2577 39.5081C87.2787 39.3944 87.3028 39.2752 87.3396 39.1287C87.359 39.0526 87.3784 38.9788 87.4124 38.8714C87.4456 38.7716 87.4774 38.6561 87.6012 38.3933C87.6393 38.315 87.686 38.2246 87.7557 38.1106C87.8095 38.0305 87.9424 37.7816 88.3095 37.4419C88.4039 37.3565 88.517 37.2641 88.6587 37.1693C88.7296 37.122 88.8077 37.0742 88.8941 37.0272C88.9926 36.9728 89.1738 36.8866 89.3473 36.8281C90.0486 36.5431 91.2291 36.6638 91.8681 37.1017C92.8081 37.7428 92.8719 38.134 93.0427 38.4263C93.2216 38.8366 93.2302 38.9491 93.2733 39.1187C93.2967 39.2235 93.3111 39.305 93.3236 39.3838C93.3662 39.6628 93.3751 39.8116 93.3857 39.964C93.4198 40.5566 93.3976 41.0017 93.3556 41.4656C93.2681 42.3974 93.0735 43.2839 92.7863 44.1538C92.6979 44.4199 92.172 44.2251 92.1069 44.2413C91.089 44.506 92.4481 44.714 92.4987 44.7922C92.8614 45.4824 91.713 46.119 93.3287 46.6084C92.8462 48.9833 93.325 51.3223 92.7347 53.6868C92.5962 54.2178 92.3981 54.7802 92.1145 55.3326C92.0972 55.3684 91.4278 55.2953 91.3962 55.3667C91.0087 56.2337 92.0524 56.0821 93.3188 56.6931C93.6366 56.8571 92.0931 57.2657 91.9798 57.3071C91.5625 57.445 90.5673 57.2837 90.4862 57.3306C89.8493 57.7211 93.1476 57.6963 93.1417 58.2441C93.136 58.2613 92.53 58.1813 92.469 58.2267C92.2777 58.366 92.517 58.5189 92.3064 58.6484C91.819 58.952 90.2153 59.0412 91.1416 59.5359C91.2619 59.5992 93.1336 59.5273 93.039 60.0149C92.9996 60.2202 93.021 61.0525 92.8967 61.2933C92.7726 61.5305 92.1719 61.3589 92.1456 61.3756C91.3403 62.0117 91.0131 61.763 89.8289 62.0748C88.6492 62.3882 91.4543 62.3276 91.7655 62.4626C92.076 62.5953 91.4124 63.0543 91.1823 63.1677C90.9521 63.2805 90.5709 63.1313 90.4402 63.2325C89.5859 63.9069 91.8281 63.5512 92.2703 63.7835C93.317 64.3428 91.2327 64.708 91.0228 65.1937C90.9661 65.3243 91.441 65.2231 91.4838 65.3407C91.6471 65.8034 90.9945 66.0949 91.5829 66.6156C91.6787 66.7017 92.9236 67.1398 92.0026 67.4046C91.8698 67.442 91.353 67.3242 91.2345 67.5206C91.0566 67.8107 90.9363 68.36 91.1056 68.6678C91.2309 68.9007 92.0881 68.6462 91.8191 68.9345C91.699 69.0628 91.2026 68.8157 91.0187 69.0575C90.8348 69.2975 90.8488 69.9244 90.863 70.1657C90.8776 70.4061 91.5269 70.2829 91.5703 70.3028C91.8187 70.4256 92.1253 70.8846 92.124 70.923C92.1775 72.9476 91.0618 74.8306 91.3984 76.7972C91.4238 76.9535 92.1081 76.8583 92.119 76.8822C92.3984 77.4207 90.5879 76.9757 89.9753 77.3426C91.362 77.304 91.1082 77.5302 91.2555 77.8999C91.3276 78.0796 91.8655 77.989 91.9202 78.006C92.732 78.2815 91.6768 78.4539 91.4609 78.499C90.6664 78.6655 91.6 78.87 91.069 78.9841C90.5418 79.0982 89.7662 78.8104 89.7716 79.1704C90.2664 79.2777 91.5663 79.0266 91.773 79.3028C92.5546 80.3569 91.5134 82.2482 91.3972 83.0788C91.2813 83.8977 91.3695 84.1674 91.1841 84.6482C90.8489 85.5196 91.8148 85.2115 92.2484 85.7533C92.6818 86.297 90.3183 86.0057 89.8086 86.0767C89.299 86.1463 89.8215 86.2361 89.5407 86.3274C89.26 86.4184 88.9167 86.2093 88.8089 86.4304C88.7013 86.6512 89.5983 87.2738 90.1293 87.3603C91.2543 87.5426 92.4407 87.2805 92.0176 87.8698C91.9925 87.9037 91.3715 87.7848 91.307 87.915C90.8151 88.9289 90.7717 90.0112 90.3351 91.0331C90.274 91.1731 89.5833 91.0385 89.54 91.1199C89.0864 91.9692 90.2576 91.6785 91.5484 92.1651C89.824 92.0379 88.7649 92.2838 88.7465 92.9388C88.7348 93.3323 89.4894 93.277 90.0174 93.5344C90.1766 93.6118 89.6556 93.8808 90.0095 93.9353C91.1661 94.1149 92.4664 93.8705 91.9415 94.5342C91.9166 94.5633 91.2835 94.4616 91.2438 94.5628C90.9841 95.2177 92.1951 95.3117 92.3329 96.0294C92.4411 96.5891 91.6896 97.5648 91.5614 98.2017C89.6213 98.1638 90.058 98.7716 91.3927 99.0338C91.3328 99.4426 91.4029 99.8869 91.2129 100.283C91.1482 100.419 90.5876 100.322 90.5266 100.338C89.5712 100.591 90.8704 100.787 90.9203 100.877C91.4041 101.853 90.4079 102.619 91.3603 103.553C91.3947 103.586 92.7417 103.656 91.7546 103.89C91.6865 103.905 91.0772 103.593 91.0243 104.026C90.9713 104.461 90.2386 105.267 90.8556 105.874C91.0041 106.021 92.0936 106.402 91.235 106.687C91.1185 106.725 90.7325 106.677 90.5166 106.731C89.829 106.907 91.1899 107.024 90.0299 107.226C88.87 107.428 87.9976 107.868 88.7885 108.481C88.8115 108.5 89.8894 108.657 89.8699 108.847C89.8379 109.151 89.6076 109.58 89.6106 109.899C89.6124 110.051 90.2841 109.962 90.296 109.988C90.6588 111.023 90.0521 111.733 89.7789 112.829C89.7275 113.029 90.6344 113.622 89.9068 114C89.1102 114.416 85.8242 113.936 86.5961 114.926C86.9048 115.325 91.0743 115.879 88.9018 116.566C89.4207 117.948 88.2973 119.216 89.0455 120.606C89.0786 120.669 90.2416 120.88 90.2239 121.026C90.1954 121.242 89.6492 121.355 89.6113 121.509C89.4391 122.156 89.8976 122.762 89.8173 123.384C89.788 123.621 89.2258 123.531 89.1908 123.814C89.1563 124.097 89.8956 124.295 89.5325 124.675C89.2559 124.962 87.7363 125.233 87.5548 125.617C89.0499 125.65 89.0157 125.916 89.4046 126.389C89.48 126.481 90.0017 126.39 90.0642 126.434C90.3303 126.611 89.8969 126.766 90.1869 126.935C90.2565 126.976 90.7671 126.984 90.8529 127.018C91.6014 127.307 90.4469 127.752 90.246 127.829C89.4826 128.123 90.145 128.273 89.843 128.501C89.541 128.73 89.1715 128.378 88.9866 128.647C88.6041 129.206 88.6776 129.926 88.6469 130.496C88.6379 130.724 89.3215 130.577 89.336 130.61C89.503 131.083 88.7719 131.55 90.1264 131.828C86.6116 132.111 90.4634 132.117 89.7522 132.78C89.6947 132.833 88.0336 132.879 87.7924 132.673C87.5515 132.467 88.0743 132.165 87.6979 131.877C87.6096 131.809 86.0587 131.406 85.9651 131.353C85.2337 130.934 87.7154 130.907 87.8519 130.887C89.3256 130.66 87.6554 130.171 87.5412 130.047C87.0176 129.477 87.3725 129.003 86.9997 128.526C86.7587 128.214 85.134 128.163 85.1868 127.922C85.3613 127.119 87.6319 126.866 85.6757 126.085C85.2585 125.917 83.4803 126.056 84.8843 125.49C84.9728 125.454 86.2559 125.037 85.4509 124.777C85.3494 124.744 84.8317 124.739 84.7888 124.697C84.511 124.415 84.9257 124.236 84.7319 123.931C84.5382 123.627 84.2483 123.26 84.4282 122.918C84.5358 122.711 85.5036 122.455 85.741 122.359C86.4247 122.085 85.3133 121.77 86.1392 121.606C86.9692 121.44 88.2221 121.8 88.7627 121.346C87.4181 121.312 86.0382 121.255 84.686 121.211C84.746 120.204 85.1934 119.215 85.1467 118.201C85.1395 118.075 84.4149 118.194 84.3886 118.06C84.2809 117.49 84.8025 117.005 84.6046 116.411C84.4487 115.951 83.6895 115.441 83.5026 114.963C85.0452 114.69 84.5316 113.981 84.6787 113.467C84.7296 113.287 85.1404 113.304 85.2761 113.177C85.7781 112.699 84.4153 112.909 84.203 112.774C83.2967 112.194 86.3755 112.184 86.3078 111.514C86.3053 111.479 84.6699 111.026 84.5685 110.965C83.907 110.579 85.1404 110.91 85.2646 110.674C85.4916 110.241 85.8872 109.944 85.413 109.429C85.2726 109.278 84.2543 108.91 85.049 108.632C85.1531 108.596 85.6951 108.623 85.7273 108.593C86.2636 108.049 84.5597 108.014 83.9865 107.692C83.4135 107.367 84.596 106.893 84.9363 106.798C85.8166 106.549 85.3086 107.002 85.3945 107.017C86.4167 107.196 86.2448 106.837 86.3348 106.566C88.0062 106.548 87.9107 106.166 86.4213 106.285C86.2587 106.299 86.4118 106.512 86.3348 106.566C84.6984 106.307 84.4937 105.887 86.0315 105.446C86.7522 105.24 87.5868 105.453 87.2887 104.797C87.1542 104.496 86.0023 104.597 85.6919 104.33C84.9839 103.718 86.0669 102.952 85.9055 102.334C85.8469 102.11 85.2144 102.319 85.1527 102.166C84.9868 101.761 85.464 101.401 85.227 100.989C85.2048 100.952 84.5444 101.034 84.5376 100.907C84.4732 99.9374 84.9058 99.1174 84.9303 98.1014C84.9418 97.6133 84.5891 96.7409 84.6685 96.2419C84.8023 95.3665 85.7745 94.3015 85.551 93.5588C85.408 93.0742 84.7473 93.1682 84.3007 92.9539C83.4349 92.5377 85.0038 91.8448 85.2465 91.7524C85.2545 91.7495 85.4047 92.17 85.746 91.9509C86.4529 91.8299 85.2495 91.7572 85.2465 91.7524C85.4034 91.6909 85.5635 90.86 85.4395 90.6943C85.3718 90.6039 84.7464 90.6461 84.7229 90.5992C84.1781 89.4607 84.0332 88.3571 84.3397 87.217C84.3525 87.1971 85.051 87.2361 85.0725 87.1892C85.3915 86.5336 84.5419 86.1036 84.0412 85.5594C83.5406 85.0203 83.7161 84.5797 84.9197 84.2758C84.7739 83.8638 85.3116 83.2863 85.6376 82.956C85.9636 82.6261 84.604 82.5616 84.5774 82.531C83.7285 81.5857 84.5139 81.0601 84.647 80.1111C84.7128 79.6507 84.527 78.7376 84.3844 78.2456C84.2695 77.8547 84.5911 77.6316 84.3919 77.262C84.3653 77.2125 83.7591 77.2545 83.7359 77.2392C83.0164 76.8249 84.4946 77.0384 84.7601 76.9582C85.7255 76.668 86.24 76.4874 85.7941 75.9693C85.692 75.8497 83.5645 75.4796 83.4425 75.2646C83.2878 74.9836 84.0507 75.0964 83.8693 74.7974C83.8545 74.7718 83.383 74.771 83.4061 74.5881C83.5072 73.7357 83.7928 72.843 83.7569 71.95C83.7538 71.8298 83.0041 71.9743 82.9872 71.8006C82.9088 70.9898 82.9478 70.1014 83.3078 69.3112C83.3988 69.1181 83.9208 69.2465 84.0768 69.2063C85.0207 68.9593 83.6586 68.5783 83.6333 68.5183C82.9951 67.0498 84.2459 65.9631 83.6757 64.4831C83.6421 64.407 82.1849 63.766 83.445 63.5023C83.5289 63.4843 84.8179 63.2256 83.942 62.974C83.8872 62.9585 83.2232 63.1193 83.2944 62.8247C83.3655 62.53 82.9295 62.0573 83.662 61.6477C83.8927 61.5201 85.179 61.2282 84.1617 60.8332C84.0907 60.8041 81.7866 60.1994 83.3842 59.9946C83.6472 59.9634 85.3344 60.0194 84.475 59.5449C84.3084 59.4545 83.9299 59.6097 83.6978 59.3746C83.3401 59.0092 83.7978 58.5745 83.0518 58.1094C82.9197 58.0302 81.7784 57.6878 82.6512 57.4406C82.7878 57.4019 83.3503 57.4859 83.4151 57.3503C83.7256 56.7235 83.3579 56.0007 83.756 55.3616C83.8959 55.1321 84.8052 55.2687 85.0524 55.0227C85.2997 54.7734 85.5408 54.28 85.1278 54.0235C84.7146 53.7666 83.2595 54.0213 83.1481 53.6456C83.1399 53.618 83.1321 53.5905 83.1247 53.563C82.6946 51.909 83.5407 50.2976 83.6834 48.6688C83.705 48.426 83.183 48.6294 83.1776 48.2616C83.1557 46.9139 82.6945 44.6268 83.8045 43.486C84.6934 42.5906 85.3606 43.7374 85.7238 43.0366C85.897 42.6984 84.2095 42.335 84.1563 42.2586C83.6164 41.5233 84.3576 40.8687 84.11 40.5429C84.0611 40.524 83.3789 40.5771 83.3471 40.5932C83.3336 40.6095 83.3288 40.6546 83.3367 40.7442C83.3413 40.794 83.3529 40.8831 83.3739 40.9995C83.3847 41.0586 83.3981 41.1271 83.4161 41.2082C83.4397 41.3155 83.477 41.4742 83.5346 41.6689C83.6002 41.8818 83.6509 42.0602 83.8347 42.4888C84.1259 43.0671 84.4656 44.0552 86.1149 45.3407C87.316 46.3538 90.0729 47.091 91.9821 46.52C94.1043 45.8914 94.3172 45.4424 94.899 45.0265C95.827 44.2148 96.1599 43.5879 96.265 43.4355C96.5593 42.9507 96.6616 42.6766 96.7059 42.5657C96.7584 42.4292 96.7883 42.3312 96.8001 42.2802C96.8458 42.0739 96.7947 42.1212 96.7642 42.1603C96.7285 42.2127 96.6934 42.3014 96.6779 42.4037C96.6475 42.6003 97.1541 42.7086 97.0624 42.8992C97.0618 42.9003 97.0612 42.9015 97.0606 42.9027C96.8276 43.3634 96.4752 43.7401 95.8564 44.0363C95.8005 44.062 95.279 43.5787 95.1402 43.9088C94.9132 44.4538 94.2184 44.9383 94.4505 45.7101C94.5214 45.9391 95.6269 46.3929 94.7088 46.4643C94.5156 46.4817 93.2325 45.8336 94.1995 46.739C94.3646 46.8812 95.5926 48.2731 94.452 48.1925C94.1492 48.1783 92.9774 47.9302 93.0561 48.2081C93.0713 48.2467 93.7051 48.3992 93.6904 48.5873C93.6232 49.2559 93.2846 49.8338 93.1957 50.501C93.1721 50.6815 93.8819 50.7299 93.8293 50.9862C93.6809 51.7011 93.1482 52.423 92.6632 52.9444C92.4835 53.1358 92.0651 52.7391 92.0032 52.7297C91.0025 52.5616 92.1053 53.2958 92.1303 53.4187C92.2771 54.1599 91.5186 54.2995 91.4167 54.8674C91.3876 55.0222 91.9956 55.2071 92.032 55.2591C92.3781 55.7858 91.4786 55.0708 91.2779 55.1939C90.7124 55.5365 90.4795 56.1061 90.2918 56.6478C90.2848 56.6685 90.2864 56.6883 90.295 56.7075C90.373 56.8678 90.9683 56.991 90.9109 57.14C90.538 58.1422 89.969 59.1023 89.1342 59.8523C88.9763 59.992 88.5351 59.6268 88.4028 59.6048C87.48 59.4459 88.3732 60.3746 88.4319 60.5143C88.706 61.1407 88.1878 61.0668 88.0928 61.4526C87.641 63.3332 86.2674 65.2595 85.2471 66.7472C83.9193 68.6896 82.5861 70.0322 81.6125 72.0592C81.5498 72.1878 82.2694 72.4252 82.2235 72.541C81.6002 74.0212 80.564 75.2452 79.9259 76.7455C79.872 76.8684 80.577 77.0621 80.5104 77.2724C80.3778 77.7065 80.0587 78.1647 79.6339 78.4313C79.4284 78.5611 79.0618 77.9984 78.8659 78.1347C78.4099 78.4489 78.0808 78.889 77.9001 79.3932C77.8236 79.6099 78.6152 79.7036 78.4674 79.9563C77.5383 81.5701 76.6035 83.2105 74.8629 84.365C74.7514 84.4355 74.6369 84.5034 74.5192 84.5686C74.39 84.64 73.1266 83.8874 73.1949 84.2769C73.5146 84.5294 73.9055 84.8056 74.2548 85.0648C72.8448 87.4549 70.8161 89.3934 69.0776 91.5903C69.0041 91.6834 69.749 91.9842 69.6099 92.1668C68.8051 93.2236 68.188 94.3923 66.734 95.0045C66.5897 95.0669 65.5619 94.1632 65.4727 94.613C65.4551 94.6971 65.2365 95.2702 65.364 95.5867C65.3856 95.6314 65.9557 95.939 65.8469 96.1063C65.2087 97.0673 64.3412 97.9064 63.2632 98.5728C63.0897 98.6776 62.7049 98.0819 62.5779 98.1514C61.6835 98.6417 61.3628 99.7923 60.1306 100.151C59.2782 100.401 58.6706 99.3529 57.5985 98.7624C57.4752 98.6615 56.9982 99.0065 56.578 98.4686C55.6186 97.0763 54.602 95.5281 53.5351 94.0751C53.4306 93.9155 53.4672 93.877 53.7485 93.6596C53.9062 93.5417 54.1569 93.3983 54.1728 93.2905C54.2035 93.1787 53.8708 93.116 53.4168 93.0876C53.3488 93.083 53.0021 93.1803 52.8681 93.1277C52.6966 93.0967 52.5951 92.9798 52.4855 92.8633C52.3369 92.7008 51.9155 92.1616 51.7127 91.9641C51.5095 91.7677 51.9068 92.1831 51.7423 91.8829C51.573 91.5803 50.9927 91.0618 51.076 90.8464ZM87.0951 81.4516C87.7523 81.1475 85.3603 81.0713 85.9285 81.4162C85.9588 81.433 87.0629 81.4673 87.0951 81.4516ZM86.998 119.244C88.0584 118.848 86.5102 118.549 85.6916 118.827C84.8738 119.105 86.6765 119.364 86.998 119.244ZM87.7153 123.487C88.5533 123.021 85.1615 122.904 85.841 123.422C85.8793 123.452 87.6666 123.514 87.7153 123.487ZM58.5276 97.388C58.5059 97.3651 58.2881 97.5503 58.308 97.5745C58.753 98.2097 59.1887 97.8392 58.5276 97.388ZM88.5014 127.698C88.9622 127.555 88.4378 127.119 87.8648 127.297C87.4038 127.44 87.9282 127.876 88.5014 127.698ZM89.8547 65.1919C89.8904 65.1874 89.9248 65.0072 89.7232 65.0083C89.074 65.0122 89.254 65.2661 89.8547 65.1919ZM88.4508 134.839C88.5918 133.785 91.4024 133.181 91.0717 134.326C91.0119 134.533 90.1836 133.866 89.9277 134.128C89.4613 134.607 91.2169 134.951 90.2677 135.434C90.094 135.521 88.4366 134.899 88.447 134.837C88.4483 134.838 88.4496 134.839 88.4508 134.839ZM89.9712 81.308C90.0029 81.3021 90.0361 81.0523 90.0048 81.046C89.2469 80.901 89.1797 81.404 89.9712 81.308ZM91.4689 54.646C91.5365 54.6312 91.6071 54.0524 91.5452 54.0347C90.3069 53.7165 90.1607 54.8855 91.4689 54.646ZM91.5095 98.2111C92.2702 98.4949 92.356 98.825 91.3937 99.0325C91.4481 98.7595 91.4591 98.4846 91.5095 98.2111Z" fill="white"/>
</svg>
