<svg width="172" height="174" viewBox="0 0 172 174" fill="none" xmlns="http://www.w3.org/2000/svg">
<path d="M159.057 54.9478C157.423 54.3111 154.519 52.4045 152.431 50.8285C151.768 50.3313 152.426 49.8862 151.991 49.5211C151.384 49.0209 150.694 48.8018 150.014 48.453C149.722 48.3024 149.432 48.1251 149.156 47.8842C148.864 47.6254 149.754 46.8387 149.435 46.5888C147.719 45.2447 145.766 44.6489 143.896 43.5462C134.658 38.1127 125.05 33.6872 115.087 29.5277C111.804 28.1575 108.031 25.8074 104.406 25.1053C103.983 25.0244 103.934 26.0147 103.833 26.0652C102.261 26.8343 103.245 25.1173 102.528 24.6235C99.6794 22.6706 96.1617 21.5655 93.015 21.1383C91.6744 20.9609 92.506 23.1352 91.4698 21.7728C91.3969 21.6802 91.9712 20.7748 91.6426 20.5811C91.5454 20.5241 91.4341 20.4713 91.313 20.422C90.4891 20.0884 89.2437 19.9285 88.705 19.7355C87.5302 19.3068 87.3285 19.2739 86.1827 19.0224C84.6258 18.6736 82.8412 17.8236 81.1131 17.7761C80.7443 17.7692 81.0516 18.8752 80.4543 18.959C79.8637 19.0414 78.3656 18.7323 77.8981 18.4242C77.4198 18.1122 77.7434 17.3286 77.677 17.1302C77.121 15.4533 75.0875 17.4353 74.871 17.4714C70.6971 17.9804 67.3002 16.6016 63.4707 16.7566C60.5843 16.8798 57.6102 17.6329 54.999 18.0907C51.8939 18.6332 49.1529 18.8504 46.364 20.0997C46.0728 20.2311 46.8868 21.2194 46.5418 21.3795C45.3281 21.9462 44.145 22.542 42.9764 23.1589C40.6363 24.3948 38.3572 25.7181 35.9591 27.1186C35.5968 27.3309 35.2748 26.172 34.8634 26.3434C32.3765 27.3134 27.7899 29.4262 30.6725 33.4809C29.4944 34.7471 28.1927 36.3994 26.5747 37.3061C25.5298 37.901 25.0117 36.437 24.8118 37.8155C24.7681 38.1257 25.8496 38.2903 25.7202 38.7127C25.1843 40.4759 24.0179 42.1251 23.7903 43.9956C23.7471 44.3753 24.6337 44.6442 24.7461 44.803C25.6491 46.0984 23.0717 46.5913 22.8043 46.8482C20.8212 48.6954 20.6992 50.5917 20.031 52.778C19.8768 53.2878 21.2379 53.0261 21.1344 53.5244C20.8874 54.6859 20.6046 55.8523 20.2718 57.0165C19.8687 58.4246 19.3946 59.8223 18.8289 61.1638C18.5971 61.7095 17.6629 60.9877 17.499 61.2407C16.7921 62.368 18.7045 62.9827 18.0928 64.0605C17.9668 64.2904 17.0985 64.0113 16.9935 64.0404C15.3447 64.5106 17.4339 65.4546 17.457 65.6367C17.798 67.9883 15.352 69.1985 15.4905 71.4896C15.5109 71.7597 16.6942 71.2498 16.6832 71.9989C16.6218 76.9897 16.3396 82.1868 15.9101 87.203C15.8458 87.9833 14.9393 87.522 14.8388 87.5796C13.2768 88.5496 15.5373 88.832 15.6487 89.0661C16.4725 90.944 14.9445 93.1048 17.7808 93.9507C18.1713 99.2904 20.066 104.294 21.9162 109.183C22.9511 111.918 23.9914 114.666 24.824 117.657C24.8562 117.763 23.8261 118.166 23.8956 118.375C24.7498 120.901 25.9367 119.586 28.5686 119.79C29.2221 119.83 27.9172 122.311 27.8449 122.519C27.5451 123.256 25.9761 123.853 25.9537 124.045C25.8389 125.625 30.0245 122.282 30.9492 123.481C30.9718 123.525 30.0682 123.97 30.0702 124.132C30.0758 124.642 30.6324 124.714 30.615 125.236C30.5678 126.429 28.7815 128.366 30.8654 128.476C31.132 128.482 33.2626 126.31 34.0558 127.432C34.3666 127.888 36.0479 129.637 36.387 130.258C36.7199 130.885 35.692 131.231 35.6946 131.295C36.0782 133.537 35.2033 133.408 34.5392 135.452C33.9041 137.503 36.8856 134.044 37.5126 133.942C38.1364 133.842 38.4056 135.559 38.4126 136.066C38.4143 136.571 37.6779 136.741 37.7625 137.103C38.3605 139.495 39.9353 136.017 40.9044 135.912C43.1716 135.628 41.8863 138.961 42.8113 140.136C43.0576 140.449 43.2937 139.652 43.6065 139.81C44.8362 140.439 44.8489 141.783 46.6705 141.932C46.975 141.963 49.1533 141.038 48.9462 142.713C48.9163 142.955 48.1635 143.456 48.5319 143.944C49.0787 144.675 50.2844 145.711 51.2261 145.984C51.9184 146.183 52.0091 144.591 52.4989 145.418C52.7196 145.787 51.6792 146.087 52.1357 146.726C52.5879 147.365 54.1929 148.303 54.8164 148.632C55.4398 148.964 55.6363 147.859 55.7216 147.827C56.2214 147.651 57.6233 147.864 57.7254 147.921C58.0125 148.073 58.2957 148.228 58.5757 148.385C63.3629 151.068 67.5488 154.592 72.9521 155.862C73.3986 155.967 73.4678 154.818 73.5396 154.823C75.1508 154.873 73.0529 157.285 73.8009 158.57C74.345 156.378 74.8334 156.97 75.9607 157.058C76.5044 157.097 76.4803 156.178 76.5528 156.107C77.6755 155.063 77.7081 156.852 77.7507 157.229C77.899 158.611 78.8577 157.299 78.9719 158.222C79.0945 159.14 77.959 160.145 79.0063 160.41C79.5013 159.708 79.2877 157.471 80.145 157.345C83.3437 156.891 88.4504 159.609 90.868 160.136C93.2442 160.681 94.045 160.625 95.4183 161.091C97.91 161.912 97.1539 160.249 98.7912 159.697C100.429 159.134 99.3177 162.891 99.4717 163.736C99.6264 164.58 99.953 163.754 100.199 164.231C100.446 164.708 99.7797 165.216 100.438 165.442C101.103 165.671 103.05 164.334 103.335 163.484C103.749 162.272 103.568 160.982 103.925 160.51C104.098 160.282 104.396 160.245 104.944 160.496C105.041 160.541 104.663 161.534 105.039 161.657C108.046 162.599 111.217 162.719 114.29 163.332C114.716 163.417 114.366 164.552 114.617 164.614C117.232 165.245 116.248 163.377 117.495 161.2C117.351 164.014 118.232 165.702 120.238 165.539C121.441 165.435 121.106 164.235 121.764 163.292C121.958 163.009 122.885 163.739 122.96 163.146C123.189 161.21 122.152 159.245 124.153 159.783C124.242 159.809 124.143 160.869 124.441 160.884C126.389 160.959 126.246 158.984 128.073 158.299C129.499 157.768 132.433 158.092 134.132 157.548C135.323 160.479 136.739 159.043 136.3 156.8C136.861 156.56 137.406 156.237 137.947 155.932L137.386 156.396C137.78 155.994 138.182 155.609 138.632 155.297C138.964 155.064 139.494 155.85 139.601 155.876C141.294 156.271 139.994 154.509 140.083 154.264C141.153 151.616 143.771 150.597 143.779 147.496C143.779 147.382 141.955 146.169 143.686 146.356C143.806 146.366 144.244 147.625 144.922 146.569C145.592 145.536 147.737 143.895 147.511 141.864C147.464 141.366 146.231 139.729 147.831 139.458C148.048 139.422 148.586 139.77 148.972 139.744C150.209 139.642 148.244 138.583 150.228 138.642C152.209 138.706 154.03 137.821 153.343 135.652C153.325 135.581 151.776 134.654 151.961 134.121C152.263 133.263 152.954 132.115 153.174 131.18C153.279 130.736 152.15 130.758 152.15 130.677C152.267 127.604 153.628 125.705 154.527 122.515C154.695 121.924 153.445 120.048 154.732 119.028C156.138 117.885 161.349 119.763 160.344 116.569C159.935 115.25 153.262 113.384 156.85 111.41C156.119 107.24 157.848 103.339 156.352 99.2184C156.286 99.0331 154.358 98.5622 154.353 98.133C154.35 97.4887 155.204 97.0661 155.225 96.5965C155.235 96.4276 155.236 96.2603 155.231 96.0944L155.233 96.1074C155.042 94.3567 154.13 92.8642 153.897 91.1692C153.796 90.4652 154.743 90.5231 154.618 89.6774C154.489 88.8307 153.192 88.5384 153.505 87.2891C153.744 86.3465 155.941 84.9244 155.94 83.7127C153.568 84.2476 153.43 83.4604 152.457 82.2526C152.269 82.0214 151.522 82.5135 151.391 82.4152C150.84 82.0222 151.396 81.3798 150.811 81.0243C150.67 80.9376 149.867 81.1452 149.706 81.0869C148.314 80.6032 149.755 78.7987 150.003 78.4813C150.951 77.2781 149.796 77.1608 150.074 76.3607C150.35 75.5593 151.22 76.3927 151.28 75.5291C151.402 73.7366 150.655 71.6884 150.192 70.0368C150.002 69.3787 149.079 70.1486 149.027 70.0619C148.347 68.7949 149.048 67.0797 146.708 66.9912C151.86 64.3522 145.927 66.3444 146.408 64.0813C146.449 63.9025 148.959 62.8918 149.521 63.356C150.084 63.8207 149.559 64.9599 150.402 65.5858C150.6 65.7337 153.358 66.0857 153.552 66.1933C155.063 67.0272 151.26 68.3804 151.067 68.5071C148.999 69.9133 152.013 70.4663 152.301 70.7724C153.617 72.1583 153.481 73.7129 154.466 74.9199C155.105 75.7104 157.673 75.086 157.795 75.825C158.203 78.2985 154.857 80.0484 158.529 81.5151C159.311 81.8347 161.994 80.6483 160.225 82.9595C160.115 83.108 158.409 84.8905 159.861 85.3481C160.045 85.406 160.864 85.2138 160.962 85.3243C161.602 86.0698 161.075 86.7832 161.589 87.6432C162.103 88.5023 162.805 89.5366 162.734 90.6667C162.694 91.3498 161.306 92.4651 160.984 92.8393C160.099 93.8461 161.815 94.4595 160.923 95.1726C160.933 95.2607 160.975 95.5225 160.978 95.6111C160.929 95.6436 160.874 95.6759 160.811 95.7078C159.515 96.3593 157.395 95.4839 156.64 96.9475C158.823 96.8299 161.069 96.7789 163.267 96.6998C163.431 99.8954 162.863 103.064 162.985 106.268C163.002 106.667 164.175 106.25 164.222 106.681C164.416 108.5 163.555 110.078 163.82 111.974C164.028 113.442 165.181 115.129 165.373 116.717C162.811 117.47 163.451 119.805 163.016 121.442C162.867 122.009 162.208 121.889 161.939 122.27C160.933 123.701 163.217 123.284 163.502 123.761C164.693 125.842 159.733 125.209 159.475 127.31C159.464 127.412 161.811 129.301 161.928 129.538C162.73 130.985 160.979 129.551 160.624 130.265C159.967 131.573 159.129 132.351 159.46 134.154C159.564 134.669 160.844 136.274 159.336 136.82C159.138 136.891 158.314 136.571 158.236 136.65C156.887 138.111 159.502 138.989 160.045 140.314C160.585 141.645 158.204 142.548 157.572 142.644C155.933 142.928 157.242 141.812 157.125 141.716C155.756 140.625 155.621 141.813 155.163 142.575C152.595 141.69 152.295 142.843 154.693 143.371C154.957 143.425 154.983 142.693 155.163 142.575C157.353 144.276 157.097 145.786 154.197 146.126C152.838 146.272 151.906 145.103 151.433 147.193C151.206 148.14 153.038 148.665 153.085 149.674C153.175 152.009 150.329 153.393 149.422 155.228C149.087 155.905 150.345 155.87 150.139 156.358C149.583 157.665 148.246 158.198 147.706 159.532C147.657 159.655 148.695 160.068 148.433 160.423C147.524 161.673 146.491 162.711 145.405 163.693C145.062 164.032 144.042 164.942 143.618 165.172C141.92 166.017 140.18 166.688 138.348 167.466C136.714 168.187 133.924 169.764 132.157 170.099C129.077 170.744 125.245 169.814 122.871 170.468C121.301 170.894 121.767 171.913 121.137 172.71C119.898 174.259 117.35 171.872 117.038 171.489C117.03 171.478 118.375 171.149 117.619 170.641C117.139 169.52 117.055 171.483 117.038 171.489C116.821 171.255 114.11 171.106 113.589 171.309C113.301 171.426 113.478 172.438 113.326 172.48C109.93 173.379 106.505 173.55 103.155 172.98C102.94 172.943 102.725 172.903 102.51 172.86C102.448 172.836 102.617 171.709 102.472 171.665C100.447 171.022 99.0199 172.294 97.2072 172.945C95.4001 173.594 94.0299 173.151 93.2659 171.087C91.9414 171.168 90.2039 170.043 89.2371 169.355C88.2664 168.668 87.7524 170.82 87.649 170.847C84.4633 171.711 82.9703 170.122 80.0048 169.227C78.5884 168.8 75.6693 168.365 74.0529 168.134C72.7742 167.96 72.1933 167.238 70.9737 167.192C70.8082 167.185 70.6578 168.171 70.5996 168.192C68.9688 168.897 70.3327 166.811 70.2114 166.318C69.7781 164.523 69.5099 163.557 67.7094 163.681C67.3039 163.713 65.0231 166.557 64.2702 166.479C63.3035 166.374 64.0905 165.351 63.0778 165.266C62.9914 165.257 62.7182 165.974 62.1702 165.711C59.6238 164.497 57.0433 162.814 54.4241 161.552C54.0662 161.376 53.9656 162.692 53.4347 162.452C52.7698 162.149 52.1028 161.823 51.4346 161.464C49.6171 160.488 47.8519 159.3 46.4302 157.929C45.9566 157.466 46.751 156.957 46.7658 156.669C46.8571 154.927 44.6538 156.147 44.4558 156.068C39.8283 154.302 38.0575 150.502 33.7086 148.124C33.4768 148.008 30.3286 148.448 30.9921 146.296C31.0305 146.148 31.7624 144.001 30.2108 144.512C30.1128 144.542 29.803 145.722 29.1462 144.964C28.4951 144.21 26.8234 143.603 26.6932 141.794C26.6452 141.218 27.4388 139.058 25.3587 139.273C25.2295 139.311 21.0776 140.355 22.5263 138.076C22.7674 137.702 24.8974 135.984 22.8388 135.756C22.4406 135.711 22.3261 136.518 21.5284 136.173C20.2972 135.637 19.8618 133.95 17.9858 133.523C17.6595 133.457 15.4849 133.682 16.0827 132.11C16.1777 131.865 17.0715 131.536 16.8765 131.097C15.9611 129.015 14.138 127.411 13.4769 125.132C13.2458 124.329 14.7215 123.908 14.639 123.001C14.5538 122.092 14.0782 120.488 13.0782 120.053C12.0727 119.61 10.4435 121.574 9.65104 120.476C8.58718 118.986 7.75798 117.355 7.09089 115.655C5.60972 111.88 4.96604 107.885 4.0646 104.053C3.87352 103.227 3.23677 104.128 2.90441 102.912C1.61436 98.4722 -0.366949 90.6165 1.19952 86.5607C2.42058 83.3583 3.77021 87.1659 4.20255 84.7946C4.41358 83.6744 1.62874 82.5666 1.5337 82.2843C0.573266 79.5964 1.7991 77.7078 1.50225 75.2897C1.44243 74.7865 0.313918 75.2393 0.276127 74.8078C0.138506 73.3293 0.724974 71.8156 0.743995 70.4168C0.750696 69.7889 -0.104809 69.8334 0.0107889 69.2585C0.280071 67.8859 0.766151 66.6967 1.72048 65.464C1.80733 65.3538 2.75472 66.2924 2.91847 65.2981C3.18316 63.6842 4.25473 61.8244 3.78574 59.8467C3.64436 59.2593 1.73681 58.8802 3.28225 57.9434C3.6073 57.747 5.82371 58.5202 4.12929 56.7592C3.85706 56.4896 1.9103 53.8437 3.41432 52.9409C3.49506 52.8927 3.5857 52.8498 3.68697 52.813C4.20815 52.6184 6.24316 52.333 6.12028 51.6187C6.09725 51.518 4.99543 51.6106 5.03923 51.0426C5.21181 49.0507 5.90477 47.0791 6.23957 45.0207C6.32839 44.4687 5.04395 44.9132 5.21283 44.0951C5.6783 41.8331 6.96988 39.2079 8.19021 37.2506C8.6427 36.5272 9.22846 37.4206 9.34239 37.4021C11.1769 37.1539 9.46888 35.7663 9.49762 35.4078C9.68779 33.239 11.3022 32.283 11.9885 30.4983C12.1842 30.0039 11.1142 29.8319 11.0865 29.6956C10.8612 28.2947 12.0422 29.915 12.5621 29.4149C14.0226 28.0287 15.1085 26.174 16.1553 24.4764C16.5397 23.8529 15.099 23.8381 15.4622 23.28C17.6086 19.9486 20.5265 16.7989 23.8972 14.6072C24.5325 14.1979 24.7944 15.1883 25.0476 15.2387C26.7777 15.6264 26.6572 13.1535 26.8378 12.7702C27.5873 11.0702 28.6018 11.3204 29.6971 10.3647C31.0021 9.23451 32.4952 8.16809 34.1075 7.21229C39.1437 4.18739 45.2184 2.50283 49.9841 1.72269C58.2322 0.392336 64.3998 1.09173 71.6983 1.22338C72.1659 1.23728 71.7666 0.00289059 72.1704 1.33514e-05C77.427 0.030179 82.358 1.18912 87.3876 1.78997C87.8006 1.84208 87.4258 0.60287 88.1005 0.650445C89.4942 0.741959 91.1873 1.16148 92.446 1.82086C93.0633 2.14107 91.9681 2.90153 92.5908 3.20408C93.4594 3.62756 94.3573 3.96128 95.3027 4.21481C95.9286 4.38294 96.5671 4.51203 97.2077 4.60052C97.8847 4.69223 97.1868 3.30061 98.0444 3.50916C103.878 4.91262 109.502 6.44376 114.6 9.77367C114.95 10.0026 114.515 12.3703 115.467 12.2154C115.743 11.6114 115.994 10.8751 116.251 10.2164C124.393 12.6287 131.861 16.4156 139.549 19.7657C139.876 19.908 139.795 18.5056 140.43 18.7755C144.086 20.329 147.78 21.5499 150.971 24.3584C151.289 24.636 150.197 26.5788 151.399 26.7537C151.629 26.7896 153.352 27.2493 153.988 27.0121C154.075 26.9723 154.211 25.894 154.748 26.1078C156.379 26.7682 157.994 27.5519 159.564 28.4494C161.004 29.2721 162.401 30.1861 163.731 31.1891C164.171 31.5265 163.15 32.2492 163.47 32.5037C165.705 34.2965 168.796 34.9129 171.072 37.5976C172.683 39.5438 170.858 40.5957 170.643 42.8768C170.62 43.0373 170.914 43.4079 171.122 43.9368C171.337 44.4613 171.402 45.1402 170.94 45.4405C168.534 46.7707 165.925 48.2606 163.456 49.8409C163.318 49.9167 163.181 49.846 163.052 49.7045C162.921 49.562 162.816 49.3617 162.752 49.3275C162.684 49.2834 162.644 49.4058 162.496 49.4707C162.358 49.5623 162.06 49.4442 161.749 49.7093C161.73 49.7283 161.702 49.8061 161.71 50.0024C161.719 50.1983 161.774 50.5111 161.841 50.8094C161.986 51.4206 162.022 51.8112 161.898 52.06C161.74 52.409 160.747 52.9871 160.657 53.5432C160.563 54.0856 161.216 53.3969 160.744 53.7181C160.238 54.0297 159.683 55.1707 159.057 54.9478ZM84.9473 166.208C84.2065 164.975 83.2695 168.751 84.5109 168.055C84.5719 168.016 84.9865 166.269 84.9473 166.208ZM159.893 103.137C158.218 104.445 160.751 105.253 162.058 104.328C163.36 103.384 160.4 102.73 159.893 103.137ZM157.163 90.1032C156.126 91.7904 161.582 90.9642 160.173 89.615C160.092 89.5361 157.222 90.0036 157.163 90.1032ZM166.244 40.488C166.24 40.5434 166.894 40.9874 166.948 40.9618C167.966 40.129 166.583 39.196 166.244 40.488ZM152.826 78.0419C152.226 78.6705 153.395 79.6944 154.144 78.9131C154.747 78.2801 153.571 77.2537 152.826 78.0419ZM41.6498 141.638C41.6743 141.584 41.2838 141.199 41.0853 141.46C40.4466 142.301 41.2321 142.553 41.6498 141.638ZM146.483 57.5213C147.258 60.6008 143.503 63.8128 142.941 60.3812C142.839 59.7593 144.735 61.2153 144.883 60.3344C145.151 58.7222 142.133 58.6818 143.136 56.7998C143.321 56.4585 146.449 57.3419 146.491 57.5247C146.488 57.5236 146.486 57.5225 146.483 57.5213ZM85.3345 161.521C85.3263 161.468 84.6021 161.267 84.5737 161.312C83.9152 162.435 85.3913 162.845 85.3345 161.521ZM22.9196 116.523C22.9897 116.435 22.2576 114.904 22.1472 114.901C19.9277 115.06 21.4521 118.255 22.9196 116.523ZM134.191 157.614C134.391 156.176 135.044 155.698 136.296 156.8C135.599 157.072 134.911 157.386 134.191 157.614Z" fill="white"/>
<path d="M46.8619 78.5424C46.6618 77.1968 46.9041 75.449 47.2297 74.1214C47.3306 73.7093 47.7515 73.9257 47.8405 73.6367C48.0139 73.0815 47.8146 72.5565 48.021 71.999C48.0913 71.8194 48.7589 72.0567 48.8174 71.8677C49.1331 70.8197 48.9823 69.8124 49.1487 68.753C49.648 65.5713 49.999 62.4149 50.3137 59.2442C50.5294 56.9672 50.8689 54.5889 51.6786 52.1121C52.2187 50.4162 53.4763 48.5691 54.4298 47.0384C54.673 46.6372 54.9096 46.2449 55.1295 45.8548C55.2683 45.6098 54.6953 45.3956 54.6878 45.3233C54.6214 44.1771 55.3941 45.1309 55.8569 44.8166C57.719 43.564 59.4903 42.2767 61.0385 41.139C61.6982 40.6596 60.421 40.0217 61.4668 40.2085C61.5372 40.222 61.6457 40.8712 61.8712 40.8294C62.3777 40.7312 63.1704 40.2455 63.5383 40.1498C64.243 39.9667 64.3497 39.9209 64.9855 39.7018C65.8614 39.4102 66.9725 39.4126 67.8645 39.0574C68.0566 38.9794 67.6434 38.4164 67.9426 38.2352C68.2429 38.0516 69.1169 37.9299 69.431 38.0297C69.746 38.1269 69.71 38.6461 69.7805 38.751C70.0107 39.1058 70.2616 39.0827 70.4922 38.9255C70.8747 38.6814 71.2656 38.1422 71.3566 38.114C74.0904 37.2357 76.9408 38.7274 78.9845 39.9993C79.0082 40.0132 79.0319 40.027 79.0557 40.0409C80.5629 40.9158 82.1865 41.8819 83.3377 43.0427C84.7263 44.4493 85.4855 45.9226 86.587 47.3414C86.7026 47.493 87.1851 46.8704 87.3292 47.0579C88.8582 49.0565 89.9827 51.1964 90.6325 53.4426C90.6452 53.487 90.6273 53.5249 90.5908 53.559C90.537 53.6118 90.4398 53.6536 90.3401 53.6962C90.2317 53.7434 90.1201 53.7914 90.0563 53.8515C90.0195 53.8875 89.9995 53.9284 90.0064 53.977C90.2824 55.5932 89.9283 58.1058 92.9269 57.9027C93.187 58.8922 93.4698 60.0898 93.1746 61.105C92.9828 61.7548 92.1334 61.4413 92.6263 62.0108C92.7362 62.1404 93.285 61.7667 93.4041 61.976C93.9063 62.8636 93.9832 63.9553 94.5292 64.8218C94.6419 64.9986 95.1798 64.8136 95.2923 64.845C96.2086 65.1187 95.0528 66.1999 94.9907 66.3828C94.545 67.806 95.0085 68.6587 95.2049 69.84C95.2496 70.1138 95.9403 69.6557 96.0103 69.916C96.3625 71.2686 96.5212 72.7017 96.376 74.0845C96.3417 74.3922 95.6615 74.2097 95.6121 74.3609C95.4013 75.024 96.6327 74.9968 96.4495 75.6323C96.4122 75.7655 95.8527 75.766 95.7953 75.7968C94.8932 76.277 96.2766 76.4172 96.318 76.5069C96.8694 77.6311 95.5492 78.5402 95.8694 79.6403C95.909 79.7723 96.5746 79.3933 96.6433 79.7699C96.6593 79.8569 96.6748 79.9441 96.6897 80.0315C97.128 82.5979 96.9568 85.4174 96.2 87.8921C96.0794 88.2904 95.5787 87.9548 95.5118 87.9754C94.4649 88.2917 95.7922 88.6805 95.8292 88.8209C96.0862 89.9087 94.8195 90.6883 96.3074 91.6394C96.0773 92.421 95.8792 93.1969 95.6927 93.9721C94.8452 97.4894 94.1091 101.067 91.7017 103.895C91.6659 103.939 91.0796 103.6 91.0112 103.688C90.1759 104.744 91.2341 104.902 92.0585 106.213C92.2631 106.548 90.5845 106.538 90.4586 106.541C89.9924 106.564 89.1739 105.954 89.0714 105.985C88.2728 106.243 91.1902 107.489 90.9668 108.234C90.9627 108.248 90.9575 108.261 90.9513 108.274C90.9355 108.295 90.4324 107.939 90.3488 107.974C90.0878 108.083 90.2155 108.374 89.9383 108.467C89.2973 108.679 87.7941 108.108 88.3093 109.153C88.3756 109.288 90.1078 110.016 89.6935 110.62C89.529 110.862 88.945 112.005 88.6584 112.257C88.3755 112.51 87.9738 111.997 87.9382 112.007C86.7734 112.434 86.6658 111.957 85.4153 111.755C84.1731 111.542 86.6398 112.879 86.8062 113.209C86.9716 113.54 86.0431 113.786 85.7594 113.804C85.4757 113.823 85.2657 113.44 85.0765 113.496C83.8338 113.861 86.0068 114.62 86.1956 115.144C86.628 116.399 84.5544 115.738 83.9805 116.183C83.8229 116.306 84.2984 116.458 84.2323 116.624C83.9604 117.278 83.2004 117.208 83.1845 118.186C83.1854 118.342 83.7483 119.636 82.7748 119.367C82.6362 119.326 82.3444 118.868 82.0684 119.016C81.6557 119.236 81.0601 119.744 80.874 120.204C80.736 120.544 81.6341 120.829 81.1411 120.972C80.9222 121.034 80.7995 120.433 80.4211 120.574C80.0461 120.714 79.4273 121.384 79.1911 121.64C78.9575 121.897 79.547 122.224 79.5581 122.274C79.6131 122.574 79.3382 123.273 79.2924 123.314C77.2706 125.33 74.6478 126.21 72.5412 127.849C72.3691 127.981 72.1952 128.118 72.0233 128.259C71.8378 128.409 72.3351 128.902 72.3105 128.931C71.7486 129.614 71.3521 127.728 70.5785 127.483C71.3505 128.636 70.9398 128.591 70.5263 128.993C70.326 129.188 70.7114 129.588 70.7164 129.648C70.7457 130.561 69.9992 129.762 69.839 129.603C69.2411 129.021 69.4194 129.981 69.0197 129.59C68.6269 129.199 68.6323 128.324 68.1769 128.564C68.268 129.073 69.1952 130.059 68.9322 130.425C67.9757 131.79 64.7831 132.159 64.4661 132.432C64.4445 132.427 64.5215 132.376 64.581 132.085C64.6075 131.944 64.5975 131.736 64.5425 131.58C64.4933 131.431 64.4195 131.323 64.3632 131.259C64.1649 131.067 64.234 131.17 64.2966 131.191C64.4458 131.269 64.6755 131.359 64.9251 131.507C65.9744 132.045 65.732 131.012 66.4992 130.678C67.2436 130.326 66.6438 132.636 66.6889 133.154C66.7432 133.672 66.9251 133.165 67.0399 133.458C67.1418 133.749 66.8222 134.065 67.1221 134.2C67.2791 134.271 67.6195 134.084 67.9457 133.814C68.2179 133.561 68.474 133.237 68.547 132.986C68.8655 131.878 68.5669 130.674 69.3598 131.142C69.4045 131.17 69.2156 131.782 69.3892 131.855C70.8133 132.422 72.3631 132.503 73.8136 132.96C74.0183 133.024 73.8185 133.712 73.9381 133.757C75.1655 134.225 74.7397 133.048 75.4391 131.762C75.2584 133.485 75.6281 134.549 76.5587 134.569C77.1256 134.581 77.0399 133.826 77.4092 133.298C77.5167 133.138 77.9075 133.658 77.9819 133.304C78.2265 132.147 77.8532 130.848 78.8202 131.368C78.863 131.393 78.7247 132.027 78.8726 132.066C79.8086 132.319 79.9243 131.107 80.9439 130.959C81.7322 130.842 83.1583 131.573 84.0744 131.685C84.0759 133.625 84.9284 133.173 85.2628 131.831C85.8556 131.879 86.4954 131.796 87.066 131.973C87.2634 132.033 87.142 132.597 87.1677 132.657C87.5617 133.604 87.8024 132.299 87.9299 132.246C89.3011 131.729 90.4488 132.696 91.7523 131.706C91.7983 131.671 91.8498 130.321 92.2208 131.298C92.245 131.366 91.8225 131.988 92.4426 132.023C93.062 132.058 94.2542 132.755 95.1011 132.111C95.3064 131.956 95.8099 130.85 96.2535 131.694C96.3127 131.809 96.2601 132.197 96.3467 132.41C96.6266 133.089 96.7375 131.724 97.0755 132.873C97.4134 134.023 98.0817 134.873 98.933 134.052C98.9602 134.029 99.1386 132.944 99.4128 132.954C99.8503 132.97 100.477 133.179 100.934 133.159C101.153 133.15 100.995 132.483 101.032 132.47C102.489 132.054 103.55 132.622 105.136 132.834C105.427 132.875 106.224 131.936 106.809 132.641C107.447 133.413 106.919 136.723 108.302 135.895C108.87 135.564 109.446 131.367 110.544 133.497C112.5 132.897 114.384 133.942 116.344 133.11C116.433 133.073 116.675 131.898 116.883 131.907C117.191 131.922 117.384 132.461 117.611 132.489C118.552 132.621 119.396 132.126 120.289 132.167C120.623 132.182 120.53 132.749 120.943 132.766C121.357 132.783 121.594 132.033 122.157 132.372C122.574 132.619 123.023 134.004 123.536 134.261C123.56 134.273 123.585 134.282 123.61 134.289C123.579 132.794 123.979 132.811 124.626 132.394C124.75 132.313 124.597 131.798 124.655 131.732C124.884 131.456 125.151 131.879 125.376 131.579C125.431 131.507 125.417 130.997 125.461 130.909C125.827 130.144 126.539 131.27 126.657 131.467C127.114 132.212 127.289 131.541 127.642 131.829C127.986 132.118 127.499 132.507 127.894 132.676C128.702 133.026 129.748 132.911 130.563 132.912C130.891 132.908 130.648 132.233 130.695 132.217C131.353 132.025 132.073 132.732 132.406 131.367C132.96 134.866 132.803 131.015 133.792 131.702C133.873 131.757 133.992 133.416 133.701 133.664C133.427 133.912 132.982 133.402 132.571 133.791C132.489 133.882 131.975 135.451 131.9 135.547C131.357 136.298 131.185 133.821 131.152 133.685C130.778 132.224 130.129 133.92 129.971 134.041C129.161 134.596 128.472 134.268 127.819 134.668C127.38 134.927 127.383 136.553 127.044 136.514C125.874 136.388 125.397 134.136 124.387 136.137C124.171 136.553 124.453 138.24 123.631 137.064C123.61 137.033 123.589 136.999 123.567 136.964C123.514 136.877 122.861 135.621 122.521 136.442C122.479 136.545 122.498 137.062 122.439 137.108C122.036 137.403 121.78 136.999 121.347 137.212C120.913 137.425 120.404 137.737 119.905 137.578C119.604 137.484 119.179 136.533 119.026 136.302C118.607 135.636 118.213 136.765 117.932 135.951C117.649 135.132 118.105 133.858 117.417 133.347C117.438 134.692 117.428 136.073 117.434 137.427C115.998 137.428 114.535 137.043 113.089 137.15C112.909 137.165 113.117 137.881 112.925 137.916C112.103 138.058 111.384 137.565 110.537 137.798C109.879 137.981 109.197 138.769 108.509 138.983C108.038 137.458 107.045 138.012 106.293 137.894C106.033 137.853 106.038 137.441 105.851 137.313C105.142 136.838 105.508 138.188 105.324 138.407C104.532 139.345 104.368 136.27 103.409 136.373C103.359 136.378 102.78 138.036 102.697 138.141C102.167 138.822 102.59 137.572 102.243 137.461C101.614 137.257 101.169 136.877 100.448 137.377C100.237 137.525 99.7521 138.561 99.3158 137.781C99.2584 137.679 99.2745 137.136 99.2298 137.105C98.4204 136.597 98.4429 138.301 98.0017 138.889C97.5601 139.478 96.8276 138.319 96.6767 137.983C96.2816 137.115 96.9543 137.601 96.9726 137.515C97.1857 136.485 96.6776 136.674 96.2845 136.596C96.1887 134.927 95.6431 135.04 95.8763 136.523C95.9026 136.685 96.2046 136.522 96.2845 136.596C95.9798 138.244 95.3791 138.468 94.6809 136.951C94.3535 136.24 94.632 135.396 93.6914 135.723C93.265 135.87 93.4552 137.017 93.0828 137.339C92.2359 138.072 91.0801 137.021 90.1976 137.206C89.8727 137.273 90.2013 137.897 89.9795 137.964C89.3908 138.146 88.8643 137.682 88.2812 137.933C88.228 137.956 88.3694 138.613 88.1849 138.624C86.7835 138.722 85.5641 138.315 84.1084 138.316C83.3972 138.318 82.1441 138.689 81.4079 138.618C80.1441 138.5 78.5684 137.539 77.4927 137.764C76.7828 137.908 76.9267 138.568 76.6168 139.015C76.021 139.88 74.988 138.305 74.8533 138.06C74.8481 138.053 75.469 137.907 75.1442 137.563C74.9643 136.855 74.8606 138.058 74.8533 138.06C74.767 137.904 73.5398 137.73 73.2904 137.848C73.1565 137.914 73.2147 138.54 73.1451 138.563C71.4712 139.078 69.7819 139.177 68.0124 138.753C67.9822 138.738 68.0814 138.045 68.0105 138.019C67.8662 137.962 67.7304 137.931 67.6006 137.919C66.7814 137.846 66.1484 138.474 65.2885 138.799C64.3177 139.182 63.3554 138.837 62.8646 137.449C62.7277 137.429 62.5847 137.394 62.4362 137.344C62.2678 137.288 62.0657 137.204 61.8662 137.103C61.763 137.051 61.6698 137 61.5486 136.929C61.4123 136.852 61.2711 136.765 61.1244 136.665C60.9778 136.566 60.8256 136.453 60.6683 136.324C60.4756 136.17 60.2513 135.974 60.0341 135.744C59.6558 135.35 58.9809 134.49 58.7008 133.411C58.3608 132.253 58.5704 130.964 58.866 130.293C59.1866 129.522 59.4923 129.19 59.7519 128.903C60.0295 128.609 60.214 128.483 60.3888 128.362C60.7443 128.123 60.8833 127.986 60.9697 127.81C61.0506 127.64 61.0746 127.448 61.044 127.283C60.9952 126.945 60.8445 126.628 60.8711 126.594C62.3791 124.613 63.3214 125.137 64.6562 124.597C65.278 124.363 66.2815 123.649 66.7438 123.232C67.1114 122.901 67.5108 123.044 67.76 122.662C67.7927 122.611 67.4383 122.117 67.4406 122.089C67.4295 121.251 68.021 122.622 68.2368 122.801C68.8208 123.287 69.2384 123.577 69.4857 123.407C69.5899 123.335 69.679 123.209 69.754 123.018C69.8276 122.84 68.9584 120.843 69.0997 120.585C69.2906 120.25 69.6373 120.944 69.8272 120.572C69.8436 120.54 69.5567 120.167 69.7503 120.047C70.6461 119.484 71.7142 118.969 72.4998 118.21C72.6076 118.108 71.9704 117.674 72.1153 117.52C72.7952 116.795 73.579 116.076 74.4956 115.623C74.7232 115.513 75.0003 115.981 75.1488 116.05C76.0577 116.46 75.368 115.189 75.3945 115.121C76.0757 113.384 77.8876 113.093 78.4726 111.237C78.5072 111.129 77.714 109.693 78.9466 110.101C79.0276 110.13 80.2972 110.537 79.719 109.806C79.6821 109.761 79.0107 109.586 79.2639 109.31C79.5186 109.032 79.4448 108.303 80.3306 108.226C80.6077 108.206 81.9229 108.494 81.2705 107.562C81.2295 107.491 79.5506 105.742 81.0821 106.253C81.3339 106.337 82.8097 107.162 82.3165 106.231C82.2191 106.053 81.7905 106.064 81.7167 105.692C81.5987 105.125 82.2732 104.78 81.8352 103.947C81.8289 103.936 81.8176 103.92 81.8027 103.9C81.6318 103.668 80.9667 102.953 81.8196 103.011C81.965 103.02 82.4365 103.344 82.5671 103.209C83.1922 102.564 83.1937 101.605 83.8749 100.958C84.1154 100.727 84.9031 101.211 85.2492 101C85.5953 100.79 86.0502 100.258 85.7765 99.7952C85.5017 99.3356 84.0147 99.1759 84.0729 98.6754C84.3144 96.5171 85.7229 94.784 86.2966 92.7901C86.3801 92.4968 85.8202 92.6305 85.9024 92.197C85.9151 92.1281 85.9273 92.057 85.9389 91.9841C86.2389 90.2469 86.1836 87.6682 87.297 86.4206C88.2403 85.3405 88.8383 86.8118 89.2418 85.9423C89.4333 85.5066 87.7542 85.0065 87.7021 84.9123C87.1739 83.9422 87.9008 83.2593 87.6178 82.3836C87.5585 82.2057 86.8876 82.4272 86.8445 82.2779C86.7268 81.889 86.8489 81.4643 86.8604 81.0606C86.8619 80.9192 86.8539 80.7809 86.8266 80.6479C86.7724 80.3921 86.2581 80.4959 86.2724 80.2547C86.3001 79.6774 86.4614 79.1534 86.882 78.544C86.9203 78.4881 87.6063 78.7518 87.5801 78.3284C87.5357 77.6442 87.9078 76.7374 87.3071 76.027C87.1268 75.8171 85.9434 75.9728 86.6906 75.3671C86.8463 75.2403 88.2852 75.1671 86.9753 74.7706C86.7575 74.6992 84.9629 74.0045 85.9511 73.3743C86.2115 73.2073 87.318 72.7024 87.09 72.459C87.0547 72.4271 86.4471 72.6809 86.3475 72.4666C86.0076 71.7134 85.9251 70.8787 85.5708 70.1234C85.4749 69.9225 84.8864 70.3657 84.7644 70.0647C84.4286 69.2385 84.3624 68.1515 84.3651 67.2876C84.3673 66.9686 84.952 67.0451 85.0048 67.0093C85.8622 66.4197 84.5337 66.5282 84.4303 66.4336C83.8014 65.8331 84.2466 65.1318 83.898 64.5324C83.8033 64.3675 83.2412 64.6735 83.1771 64.6544C82.5464 64.4548 83.7038 64.3947 83.7521 64.1294C83.889 63.3812 83.6027 62.6847 83.3005 62.0945C83.1881 61.8773 82.6007 62.3829 82.5087 62.189C81.9529 61.0545 81.5233 59.9111 81.3528 58.753C81.3218 58.535 81.8745 58.3811 81.9658 58.2816C81.9681 58.2791 81.9704 58.2766 81.9727 58.274C82.552 57.5089 81.2199 57.6024 81.0583 57.5508C80.3133 57.305 80.6364 56.8727 80.308 56.4893C78.7084 54.6163 77.5091 52.3321 76.4123 50.9501C75.6073 49.9167 74.9203 49.085 74.0897 48.4136C73.6369 48.0179 73.3701 47.8663 73.0232 47.8802C72.971 47.8824 72.9367 48.6271 72.9017 48.64C72.7357 48.6962 72.4698 48.6905 72.0189 48.7436C70.9996 48.877 70.0058 49.043 69.1395 49.438C69.0217 49.4909 69.4 50.1126 69.225 50.2187C68.8688 50.4409 68.4037 50.5665 67.9698 50.5025C67.7563 50.4736 67.7582 49.8172 67.5416 49.8028C67.0332 49.7707 66.5712 49.9401 66.256 50.2498C66.1266 50.3813 66.7114 50.8767 66.5268 50.9933C65.4746 51.6974 64.9834 52.3138 64.0567 52.8151C63.8228 53.0123 63.5876 53.1843 63.3379 53.3477C63.2331 53.4125 61.8678 52.8611 62.0104 53.2234C62.3723 53.4102 62.8086 53.6071 63.2013 53.7939C62.7005 55.281 62.1345 57.1752 61.8864 59.6349C61.7954 60.6393 61.7152 61.6224 61.6644 62.633C61.6564 62.7963 62.4413 62.5378 62.4296 62.8533C62.363 64.6944 62.5303 66.4803 61.7148 68.3483C61.635 68.5336 60.2709 68.407 60.4652 68.9594C60.5005 69.0639 60.665 69.8868 60.9571 70.1144C61.0012 70.1444 61.642 70.0065 61.6551 70.2741C61.7201 71.8211 61.5463 73.4458 61.1358 74.9892C61.0685 75.2336 60.3928 74.962 60.3389 75.1385C59.9615 76.4049 60.4643 77.7752 59.841 78.977C59.4217 79.7787 58.2491 79.4779 57.0918 79.9016C56.9285 79.9636 56.9017 80.4621 56.2293 80.4887C54.5383 80.5548 52.6871 80.3047 50.8847 80.4053C50.4963 80.423 50.9143 81.1065 49.9763 80.7021C49.9134 80.6826 49.6026 80.1807 49.2848 80.0527C49.065 79.9696 48.3807 80.1184 48.0995 79.9462C47.8186 79.7626 48.3925 79.5728 48.0629 79.2893C47.7294 78.9881 46.9505 79.1244 46.8619 78.5424ZM63.9765 127.683C64.701 128.046 63.6988 125.872 63.4718 126.63C63.4621 126.669 63.9396 127.666 63.9765 127.683ZM114.492 135.238C113.865 134.203 113.513 135.767 113.956 136.568C114.403 137.368 114.682 135.552 114.492 135.238ZM120.543 134.26C119.841 133.452 119.85 136.847 120.55 136.136C120.59 136.096 120.584 134.307 120.543 134.26ZM56.774 77.898C56.7422 77.9067 56.7084 78.2699 56.7399 78.2759C57.4984 78.4738 57.5652 77.7514 56.774 77.898ZM126.557 133.217C126.321 132.765 125.727 133.315 126.008 133.877C126.231 134.329 126.847 133.779 126.557 133.217ZM83.0242 115.512C83.0573 115.528 83.2349 115.337 83.0678 115.223C82.5306 114.859 82.4713 115.253 83.0242 115.512ZM135.518 131.575C135.601 131.56 135.686 131.555 135.758 131.56C135.789 131.564 135.824 131.568 135.831 131.584C135.836 131.592 135.83 131.604 135.799 131.635C135.792 131.647 135.745 131.677 135.675 131.764C135.641 131.809 135.598 131.873 135.564 131.968C135.511 132.099 135.508 132.329 135.584 132.483C135.781 132.814 135.822 132.738 135.879 132.785C135.929 132.805 135.96 132.809 135.973 132.806C135.994 132.801 136 132.788 135.998 132.775C135.989 132.747 135.971 132.717 135.942 132.684C135.888 132.62 135.827 132.552 135.764 132.479C135.513 132.19 135.306 131.836 135.21 131.496C135.025 130.826 135.087 130.167 136.179 130.398C136.47 130.463 136.088 130.637 135.911 130.878C135.72 131.114 135.563 131.382 135.762 131.517C135.84 131.578 135.95 131.608 136.032 131.614C136.168 131.642 136.136 131.545 136.525 131.677C136.556 131.693 136.59 131.714 136.628 131.745C136.683 131.789 136.781 131.897 136.823 132.047C136.871 132.193 136.838 132.384 136.802 132.464C136.772 132.542 136.735 132.598 136.703 132.641C136.558 132.811 136.537 132.81 136.493 132.857C136.401 132.935 136.385 132.971 136.334 133.025C136.261 133.119 136.195 133.212 136.134 133.299C135.887 133.646 135.656 133.913 135.199 133.546C135.026 133.412 135.452 131.582 135.519 131.571C135.519 131.572 135.518 131.574 135.518 131.575ZM65.5227 130.12C65.5487 130.142 65.8778 130.011 65.8733 129.979C65.7117 129.21 65.029 129.483 65.5227 130.12ZM91.4518 102.739C91.5231 102.745 91.8818 101.969 91.8319 101.921C90.8192 101.084 90.1036 102.619 91.4518 102.739ZM84.0893 131.736C84.4813 130.968 84.9359 130.874 85.261 131.83C84.869 131.783 84.4884 131.78 84.0893 131.736Z" fill="white"/>
</svg>
