<svg width="172" height="174" viewBox="0 0 172 174" fill="none" xmlns="http://www.w3.org/2000/svg">
<path d="M159.057 54.9478C157.423 54.3111 154.519 52.4045 152.431 50.8285C151.768 50.3313 152.426 49.8862 151.991 49.5211C151.384 49.0209 150.694 48.8018 150.014 48.453C149.722 48.3024 149.432 48.1251 149.156 47.8842C148.864 47.6254 149.754 46.8387 149.435 46.5888C147.719 45.2447 145.766 44.6489 143.896 43.5462C134.658 38.1127 125.05 33.6872 115.087 29.5277C111.804 28.1575 108.031 25.8074 104.406 25.1053C103.983 25.0244 103.934 26.0147 103.833 26.0652C102.261 26.8343 103.245 25.1173 102.528 24.6235C99.6794 22.6706 96.1617 21.5655 93.015 21.1383C91.6744 20.9609 92.506 23.1352 91.4698 21.7728C91.3969 21.6802 91.9712 20.7748 91.6426 20.5811C91.5454 20.5241 91.4341 20.4713 91.313 20.422C90.4891 20.0884 89.2437 19.9285 88.705 19.7355C87.5302 19.3068 87.3285 19.2739 86.1827 19.0224C84.6258 18.6736 82.8412 17.8236 81.1131 17.7761C80.7443 17.7692 81.0516 18.8752 80.4543 18.959C79.8637 19.0414 78.3656 18.7323 77.8981 18.4242C77.4198 18.1122 77.7434 17.3286 77.677 17.1302C77.121 15.4533 75.0875 17.4353 74.871 17.4714C70.6971 17.9804 67.3002 16.6016 63.4707 16.7566C60.5843 16.8798 57.6102 17.6329 54.999 18.0907C51.8939 18.6332 49.1529 18.8504 46.364 20.0997C46.0728 20.2311 46.8868 21.2194 46.5418 21.3795C45.3281 21.9462 44.145 22.542 42.9764 23.1589C40.6363 24.3948 38.3572 25.7181 35.9591 27.1186C35.5968 27.3309 35.2748 26.172 34.8634 26.3434C32.3765 27.3134 27.7899 29.4262 30.6725 33.4809C29.4944 34.7471 28.1927 36.3994 26.5747 37.3061C25.5298 37.901 25.0117 36.437 24.8118 37.8155C24.7681 38.1257 25.8496 38.2903 25.7202 38.7127C25.1843 40.4759 24.0179 42.1251 23.7903 43.9956C23.7471 44.3753 24.6337 44.6442 24.7461 44.803C25.6491 46.0984 23.0717 46.5913 22.8043 46.8482C20.8212 48.6954 20.6992 50.5917 20.031 52.778C19.8768 53.2878 21.2379 53.0261 21.1344 53.5244C20.8874 54.6859 20.6046 55.8523 20.2718 57.0165C19.8687 58.4246 19.3946 59.8223 18.8289 61.1638C18.5971 61.7095 17.6629 60.9877 17.499 61.2407C16.7921 62.368 18.7045 62.9827 18.0928 64.0605C17.9668 64.2904 17.0985 64.0113 16.9935 64.0404C15.3447 64.5106 17.4339 65.4546 17.457 65.6367C17.798 67.9883 15.352 69.1985 15.4905 71.4896C15.5109 71.7597 16.6942 71.2498 16.6832 71.9989C16.6218 76.9897 16.3396 82.1868 15.9101 87.203C15.8458 87.9833 14.9393 87.522 14.8388 87.5796C13.2768 88.5496 15.5373 88.832 15.6487 89.0661C16.4725 90.944 14.9445 93.1048 17.7808 93.9507C18.1713 99.2904 20.066 104.294 21.9162 109.183C22.9511 111.918 23.9914 114.666 24.824 117.657C24.8562 117.763 23.8261 118.166 23.8956 118.375C24.7498 120.901 25.9367 119.586 28.5686 119.79C29.2221 119.83 27.9172 122.311 27.8449 122.519C27.5451 123.256 25.9761 123.853 25.9537 124.045C25.8389 125.625 30.0245 122.282 30.9492 123.481C30.9718 123.525 30.0682 123.97 30.0702 124.132C30.0758 124.642 30.6324 124.714 30.615 125.236C30.5678 126.429 28.7815 128.366 30.8654 128.476C31.132 128.482 33.2626 126.31 34.0558 127.432C34.3666 127.888 36.0479 129.637 36.387 130.258C36.7199 130.885 35.692 131.231 35.6946 131.295C36.0782 133.537 35.2033 133.408 34.5392 135.452C33.9041 137.503 36.8856 134.044 37.5126 133.942C38.1364 133.842 38.4056 135.559 38.4126 136.066C38.4143 136.571 37.6779 136.741 37.7625 137.103C38.3605 139.495 39.9353 136.017 40.9044 135.912C43.1716 135.628 41.8863 138.961 42.8113 140.136C43.0576 140.449 43.2937 139.652 43.6065 139.81C44.8362 140.439 44.8489 141.783 46.6705 141.932C46.975 141.963 49.1533 141.038 48.9462 142.713C48.9163 142.955 48.1635 143.456 48.5319 143.944C49.0787 144.675 50.2844 145.711 51.2261 145.984C51.9184 146.183 52.0091 144.591 52.4989 145.418C52.7196 145.787 51.6792 146.087 52.1357 146.726C52.5879 147.365 54.1929 148.303 54.8164 148.632C55.4398 148.964 55.6363 147.859 55.7216 147.827C56.2214 147.651 57.6233 147.864 57.7254 147.921C58.0125 148.073 58.2957 148.228 58.5757 148.385C63.3629 151.068 67.5488 154.592 72.9521 155.862C73.3986 155.967 73.4678 154.818 73.5396 154.823C75.1508 154.873 73.0529 157.285 73.8009 158.57C74.345 156.378 74.8334 156.97 75.9607 157.058C76.5044 157.097 76.4803 156.178 76.5528 156.107C77.6755 155.063 77.7081 156.852 77.7507 157.229C77.899 158.611 78.8577 157.299 78.9719 158.222C79.0945 159.14 77.959 160.145 79.0063 160.41C79.5013 159.708 79.2877 157.471 80.145 157.345C83.3437 156.891 88.4504 159.609 90.868 160.136C93.2442 160.681 94.045 160.625 95.4183 161.091C97.91 161.912 97.1539 160.249 98.7912 159.697C100.429 159.134 99.3177 162.891 99.4717 163.736C99.6264 164.58 99.953 163.754 100.199 164.231C100.446 164.708 99.7797 165.216 100.438 165.442C101.103 165.671 103.05 164.334 103.335 163.484C103.749 162.272 103.568 160.982 103.925 160.51C104.098 160.282 104.396 160.245 104.944 160.496C105.041 160.541 104.663 161.534 105.039 161.657C108.046 162.599 111.217 162.719 114.29 163.332C114.716 163.417 114.366 164.552 114.617 164.614C117.232 165.245 116.248 163.377 117.495 161.2C117.351 164.014 118.232 165.702 120.238 165.539C121.441 165.435 121.106 164.235 121.764 163.292C121.958 163.009 122.885 163.739 122.96 163.146C123.189 161.21 122.152 159.245 124.153 159.783C124.242 159.809 124.143 160.869 124.441 160.884C126.389 160.959 126.246 158.984 128.073 158.299C129.499 157.768 132.433 158.092 134.132 157.548C135.323 160.479 136.739 159.043 136.3 156.8C136.861 156.56 137.406 156.237 137.947 155.932L137.386 156.396C137.78 155.994 138.182 155.609 138.632 155.297C138.964 155.064 139.494 155.85 139.601 155.876C141.294 156.271 139.994 154.509 140.083 154.264C141.153 151.616 143.771 150.597 143.779 147.496C143.779 147.382 141.955 146.169 143.686 146.356C143.806 146.366 144.244 147.625 144.922 146.569C145.592 145.536 147.737 143.895 147.511 141.864C147.464 141.366 146.231 139.729 147.831 139.458C148.048 139.422 148.586 139.77 148.972 139.744C150.209 139.642 148.244 138.583 150.228 138.642C152.209 138.706 154.03 137.821 153.343 135.652C153.325 135.581 151.776 134.654 151.961 134.121C152.263 133.263 152.954 132.115 153.174 131.18C153.279 130.736 152.15 130.758 152.15 130.677C152.267 127.604 153.628 125.705 154.527 122.515C154.695 121.924 153.445 120.048 154.732 119.028C156.138 117.885 161.349 119.763 160.344 116.569C159.935 115.25 153.262 113.384 156.85 111.41C156.119 107.24 157.848 103.339 156.352 99.2184C156.286 99.0331 154.358 98.5622 154.353 98.133C154.35 97.4887 155.204 97.0661 155.225 96.5965C155.235 96.4276 155.236 96.2603 155.231 96.0944L155.233 96.1074C155.042 94.3567 154.13 92.8642 153.897 91.1692C153.796 90.4652 154.743 90.5231 154.618 89.6774C154.489 88.8307 153.192 88.5384 153.505 87.2891C153.744 86.3465 155.941 84.9244 155.94 83.7127C153.568 84.2476 153.43 83.4604 152.457 82.2526C152.269 82.0214 151.522 82.5135 151.391 82.4152C150.84 82.0222 151.396 81.3798 150.811 81.0243C150.67 80.9376 149.867 81.1452 149.706 81.0869C148.314 80.6032 149.755 78.7987 150.003 78.4813C150.951 77.2781 149.796 77.1608 150.074 76.3607C150.35 75.5593 151.22 76.3927 151.28 75.5291C151.402 73.7366 150.655 71.6884 150.192 70.0368C150.002 69.3787 149.079 70.1486 149.027 70.0619C148.347 68.7949 149.048 67.0797 146.708 66.9912C151.86 64.3522 145.927 66.3444 146.408 64.0813C146.449 63.9025 148.959 62.8918 149.521 63.356C150.084 63.8207 149.559 64.9599 150.402 65.5858C150.6 65.7337 153.358 66.0857 153.552 66.1933C155.063 67.0272 151.26 68.3804 151.067 68.5071C148.999 69.9133 152.013 70.4663 152.301 70.7724C153.617 72.1583 153.481 73.7129 154.466 74.9199C155.105 75.7104 157.673 75.086 157.795 75.825C158.203 78.2985 154.857 80.0484 158.529 81.5151C159.311 81.8347 161.994 80.6483 160.225 82.9595C160.115 83.108 158.409 84.8905 159.861 85.3481C160.045 85.406 160.864 85.2138 160.962 85.3243C161.602 86.0698 161.075 86.7832 161.589 87.6432C162.103 88.5023 162.805 89.5366 162.734 90.6667C162.694 91.3498 161.306 92.4651 160.984 92.8393C160.099 93.8461 161.815 94.4595 160.923 95.1726C160.933 95.2607 160.975 95.5225 160.978 95.6111C160.929 95.6436 160.874 95.6759 160.811 95.7078C159.515 96.3593 157.395 95.4839 156.64 96.9475C158.823 96.8299 161.069 96.7789 163.267 96.6998C163.431 99.8954 162.863 103.064 162.985 106.268C163.002 106.667 164.175 106.25 164.222 106.681C164.416 108.5 163.555 110.078 163.82 111.974C164.028 113.442 165.181 115.129 165.373 116.717C162.811 117.47 163.451 119.805 163.016 121.442C162.867 122.009 162.208 121.889 161.939 122.27C160.933 123.701 163.217 123.284 163.502 123.761C164.693 125.842 159.733 125.209 159.475 127.31C159.464 127.412 161.811 129.301 161.928 129.538C162.73 130.985 160.979 129.551 160.624 130.265C159.967 131.573 159.129 132.351 159.46 134.154C159.564 134.669 160.844 136.274 159.336 136.82C159.138 136.891 158.314 136.571 158.236 136.65C156.887 138.111 159.502 138.989 160.045 140.314C160.585 141.645 158.204 142.548 157.572 142.644C155.933 142.928 157.242 141.812 157.125 141.716C155.756 140.625 155.621 141.813 155.163 142.575C152.595 141.69 152.295 142.843 154.693 143.371C154.957 143.425 154.983 142.693 155.163 142.575C157.353 144.276 157.097 145.786 154.197 146.126C152.838 146.272 151.906 145.103 151.433 147.193C151.206 148.14 153.038 148.665 153.085 149.674C153.175 152.009 150.329 153.393 149.422 155.228C149.087 155.905 150.345 155.87 150.139 156.358C149.583 157.665 148.246 158.198 147.706 159.532C147.657 159.655 148.695 160.068 148.433 160.423C147.524 161.673 146.491 162.711 145.405 163.693C145.062 164.032 144.042 164.942 143.618 165.172C141.92 166.017 140.18 166.688 138.348 167.466C136.714 168.187 133.924 169.764 132.157 170.099C129.077 170.744 125.245 169.814 122.871 170.468C121.301 170.894 121.767 171.913 121.137 172.71C119.898 174.259 117.35 171.872 117.038 171.489C117.03 171.478 118.375 171.149 117.619 170.641C117.139 169.52 117.055 171.483 117.038 171.489C116.821 171.255 114.11 171.106 113.589 171.309C113.301 171.426 113.478 172.438 113.326 172.48C109.93 173.379 106.505 173.55 103.155 172.98C102.94 172.943 102.725 172.903 102.51 172.86C102.448 172.836 102.617 171.709 102.472 171.665C100.447 171.022 99.0199 172.294 97.2072 172.945C95.4001 173.594 94.0299 173.151 93.2659 171.087C91.9414 171.168 90.2039 170.043 89.2371 169.355C88.2664 168.668 87.7524 170.82 87.649 170.847C84.4633 171.711 82.9703 170.122 80.0048 169.227C78.5884 168.8 75.6693 168.365 74.0529 168.134C72.7742 167.96 72.1933 167.238 70.9737 167.192C70.8082 167.185 70.6578 168.171 70.5996 168.192C68.9688 168.897 70.3327 166.811 70.2114 166.318C69.7781 164.523 69.5099 163.557 67.7094 163.681C67.3039 163.713 65.0231 166.557 64.2702 166.479C63.3035 166.374 64.0905 165.351 63.0778 165.266C62.9914 165.257 62.7182 165.974 62.1702 165.711C59.6238 164.497 57.0433 162.814 54.4241 161.552C54.0662 161.376 53.9656 162.692 53.4347 162.452C52.7698 162.149 52.1028 161.823 51.4346 161.464C49.6171 160.488 47.8519 159.3 46.4302 157.929C45.9566 157.466 46.751 156.957 46.7658 156.669C46.8571 154.927 44.6538 156.147 44.4558 156.068C39.8283 154.302 38.0575 150.502 33.7086 148.124C33.4768 148.008 30.3286 148.448 30.9921 146.296C31.0305 146.148 31.7624 144.001 30.2108 144.512C30.1128 144.542 29.803 145.722 29.1462 144.964C28.4951 144.21 26.8234 143.603 26.6932 141.794C26.6452 141.218 27.4388 139.058 25.3587 139.273C25.2295 139.311 21.0776 140.355 22.5263 138.076C22.7674 137.702 24.8974 135.984 22.8388 135.756C22.4406 135.711 22.3261 136.518 21.5284 136.173C20.2972 135.637 19.8618 133.95 17.9858 133.523C17.6595 133.457 15.4849 133.682 16.0827 132.11C16.1777 131.865 17.0715 131.536 16.8765 131.097C15.9611 129.015 14.138 127.411 13.4769 125.132C13.2458 124.329 14.7215 123.908 14.639 123.001C14.5538 122.092 14.0782 120.488 13.0782 120.053C12.0727 119.61 10.4435 121.574 9.65104 120.476C8.58718 118.986 7.75798 117.355 7.09089 115.655C5.60972 111.88 4.96604 107.885 4.0646 104.053C3.87352 103.227 3.23677 104.128 2.90441 102.912C1.61436 98.4722 -0.366949 90.6165 1.19952 86.5607C2.42058 83.3583 3.77021 87.1659 4.20255 84.7946C4.41358 83.6744 1.62874 82.5666 1.5337 82.2843C0.573266 79.5964 1.7991 77.7078 1.50225 75.2897C1.44243 74.7865 0.313918 75.2393 0.276127 74.8078C0.138506 73.3293 0.724974 71.8156 0.743995 70.4168C0.750696 69.7889 -0.104809 69.8334 0.0107889 69.2585C0.280071 67.8859 0.766151 66.6967 1.72048 65.464C1.80733 65.3538 2.75472 66.2924 2.91847 65.2981C3.18316 63.6842 4.25473 61.8244 3.78574 59.8467C3.64436 59.2593 1.73681 58.8802 3.28225 57.9434C3.6073 57.747 5.82371 58.5202 4.12929 56.7592C3.85706 56.4896 1.9103 53.8437 3.41432 52.9409C3.49506 52.8927 3.5857 52.8498 3.68697 52.813C4.20815 52.6184 6.24316 52.333 6.12028 51.6187C6.09725 51.518 4.99543 51.6106 5.03923 51.0426C5.21181 49.0507 5.90477 47.0791 6.23957 45.0207C6.32839 44.4687 5.04395 44.9132 5.21283 44.0951C5.6783 41.8331 6.96988 39.2079 8.19021 37.2506C8.6427 36.5272 9.22846 37.4206 9.34239 37.4021C11.1769 37.1539 9.46888 35.7663 9.49762 35.4078C9.68779 33.239 11.3022 32.283 11.9885 30.4983C12.1842 30.0039 11.1142 29.8319 11.0865 29.6956C10.8612 28.2947 12.0422 29.915 12.5621 29.4149C14.0226 28.0287 15.1085 26.174 16.1553 24.4764C16.5397 23.8529 15.099 23.8381 15.4622 23.28C17.6086 19.9486 20.5265 16.7989 23.8972 14.6072C24.5325 14.1979 24.7944 15.1883 25.0476 15.2387C26.7777 15.6264 26.6572 13.1535 26.8378 12.7702C27.5873 11.0702 28.6018 11.3204 29.6971 10.3647C31.0021 9.23451 32.4952 8.16809 34.1075 7.21229C39.1437 4.18739 45.2184 2.50283 49.9841 1.72269C58.2322 0.392336 64.3998 1.09173 71.6983 1.22338C72.1659 1.23728 71.7666 0.00289059 72.1704 1.33514e-05C77.427 0.030179 82.358 1.18912 87.3876 1.78997C87.8006 1.84208 87.4258 0.60287 88.1005 0.650445C89.4942 0.741959 91.1873 1.16148 92.446 1.82086C93.0633 2.14107 91.9681 2.90153 92.5908 3.20408C93.4594 3.62756 94.3573 3.96128 95.3027 4.21481C95.9286 4.38294 96.5671 4.51203 97.2077 4.60052C97.8847 4.69223 97.1868 3.30061 98.0444 3.50916C103.878 4.91262 109.502 6.44376 114.6 9.77367C114.95 10.0026 114.515 12.3703 115.467 12.2154C115.743 11.6114 115.994 10.8751 116.251 10.2164C124.393 12.6287 131.861 16.4156 139.549 19.7657C139.876 19.908 139.795 18.5056 140.43 18.7755C144.086 20.329 147.78 21.5499 150.971 24.3584C151.289 24.636 150.197 26.5788 151.399 26.7537C151.629 26.7896 153.352 27.2493 153.988 27.0121C154.075 26.9723 154.211 25.894 154.748 26.1078C156.379 26.7682 157.994 27.5519 159.564 28.4494C161.004 29.2721 162.401 30.1861 163.731 31.1891C164.171 31.5265 163.15 32.2492 163.47 32.5037C165.705 34.2965 168.796 34.9129 171.072 37.5976C172.683 39.5438 170.858 40.5957 170.643 42.8768C170.62 43.0373 170.914 43.4079 171.122 43.9368C171.337 44.4613 171.402 45.1402 170.94 45.4405C168.534 46.7707 165.925 48.2606 163.456 49.8409C163.318 49.9167 163.181 49.846 163.052 49.7045C162.921 49.562 162.816 49.3617 162.752 49.3275C162.684 49.2834 162.644 49.4058 162.496 49.4707C162.358 49.5623 162.06 49.4442 161.749 49.7093C161.73 49.7283 161.702 49.8061 161.71 50.0024C161.719 50.1983 161.774 50.5111 161.841 50.8094C161.986 51.4206 162.022 51.8112 161.898 52.06C161.74 52.409 160.747 52.9871 160.657 53.5432C160.563 54.0856 161.216 53.3969 160.744 53.7181C160.238 54.0297 159.683 55.1707 159.057 54.9478ZM84.9473 166.208C84.2065 164.975 83.2695 168.751 84.5109 168.055C84.5719 168.016 84.9865 166.269 84.9473 166.208ZM159.893 103.137C158.218 104.445 160.751 105.253 162.058 104.328C163.36 103.384 160.4 102.73 159.893 103.137ZM157.163 90.1032C156.126 91.7904 161.582 90.9642 160.173 89.615C160.092 89.5361 157.222 90.0036 157.163 90.1032ZM166.244 40.488C166.24 40.5434 166.894 40.9874 166.948 40.9618C167.966 40.129 166.583 39.196 166.244 40.488ZM152.826 78.0419C152.226 78.6705 153.395 79.6944 154.144 78.9131C154.747 78.2801 153.571 77.2537 152.826 78.0419ZM41.6498 141.638C41.6743 141.584 41.2838 141.199 41.0853 141.46C40.4466 142.301 41.2321 142.553 41.6498 141.638ZM146.483 57.5213C147.258 60.6008 143.503 63.8128 142.941 60.3812C142.839 59.7593 144.735 61.2153 144.883 60.3344C145.151 58.7222 142.133 58.6818 143.136 56.7998C143.321 56.4585 146.449 57.3419 146.491 57.5247C146.488 57.5236 146.486 57.5225 146.483 57.5213ZM85.3345 161.521C85.3263 161.468 84.6021 161.267 84.5737 161.312C83.9152 162.435 85.3913 162.845 85.3345 161.521ZM22.9196 116.523C22.9897 116.435 22.2576 114.904 22.1472 114.901C19.9277 115.06 21.4521 118.255 22.9196 116.523ZM134.191 157.614C134.391 156.176 135.044 155.698 136.296 156.8C135.599 157.072 134.911 157.386 134.191 157.614Z" fill="white"/>
<path d="M50.9897 50.1398C52.0871 48.6632 53.9793 47.2701 55.5075 46.4657C55.9852 46.2117 56.0331 46.7125 56.373 46.5571C57.0334 46.2589 57.4435 45.7022 58.1229 45.4672C58.3493 45.3914 58.4999 46.1048 58.7264 46.0145C59.954 45.5267 60.8831 44.7352 62.0675 44.2083C64.3131 43.2125 66.5439 42.345 68.7942 41.5854C73.9997 39.902 77.8966 40.748 81.636 41.3557C83.6407 41.7335 85.8547 42.7788 87.8514 42.9313C88.0856 42.9486 88.0727 42.3431 88.1262 42.3048C88.9652 41.7236 88.485 42.8381 88.8934 43.0888C90.5077 44.0803 92.4024 44.5789 94.0996 44.7462C94.6683 44.8012 94.5231 44.0078 94.7035 44.0552C94.7591 44.0696 94.8444 44.1482 94.9795 44.3266C95.0226 44.3829 94.6789 44.9432 94.873 45.0597C95.303 45.3175 96.239 45.4583 96.5888 45.6175C97.2681 45.9268 97.386 45.9588 98.0454 46.1932C98.9528 46.5251 99.9078 47.244 100.917 47.5783C101.135 47.6492 101.139 46.9355 101.527 47.0056C101.909 47.0679 102.782 47.608 102.994 47.919C103.213 48.2285 102.821 48.5812 102.812 48.711C102.695 49.772 104.387 49.3157 104.55 49.409C106.342 50.3544 107.691 51.8281 108.438 54.5348C108.605 55.3739 108.693 56.157 108.816 56.9221C109.116 58.789 109.433 60.6586 109.388 62.3171C109.324 64.2873 108.869 65.8874 108.752 67.7339C108.739 67.9292 109.512 67.7745 109.497 68.0145C109.489 68.1281 109.481 68.2419 109.473 68.3557C109.254 71.7008 107.231 74.8673 104.835 76.4543C104.585 76.6248 104.396 75.8854 104.125 76.02C102.448 76.8999 99.7561 77.1004 100.448 80.0485C100.385 80.0786 100.322 80.1089 100.258 80.1391C99.2697 80.6174 98.0876 81.09 97.0151 80.9949C96.283 80.9251 96.5331 80.0149 95.9702 80.6096C95.84 80.7428 96.3048 81.2282 96.0858 81.3853C95.1605 82.0466 93.9541 82.285 93.0168 82.9332C92.8267 83.0664 93.0565 83.5871 93.0264 83.704C92.7467 84.6637 91.489 83.603 91.2846 83.5536C89.6828 83.2189 88.741 83.7164 87.4091 83.9311C87.1021 83.9786 87.5926 84.6675 87.2983 84.7401C85.7585 85.1068 84.1221 85.2187 82.586 84.9778C82.2425 84.9222 82.5133 84.2561 82.3488 84.1961C81.6379 83.9361 81.5373 85.1655 80.8495 84.9244C80.7064 84.8746 80.7696 84.3176 80.7421 84.2574C80.3183 83.3133 79.9986 84.6735 79.8938 84.7049C78.5729 85.1294 77.7566 83.6995 76.5174 83.8542C76.3678 83.8736 76.6756 84.5887 76.2559 84.6C74.3173 84.6699 72.0183 84.3699 70.6018 84.1077C70.5574 84.1024 70.5255 84.0972 70.513 84.0912C70.5044 84.0883 70.5049 84.0853 70.5317 84.0798C70.556 84.0756 70.5289 84.0784 70.638 84.0629C70.6887 84.0546 70.7551 84.0455 70.8945 84.0112C70.9657 83.9929 71.0555 83.9692 71.1953 83.9166C71.2656 83.8898 71.349 83.8555 71.4544 83.8024C71.4106 83.7698 72.0422 83.7286 72.6846 82.5306C72.9983 81.9273 73.0031 80.9296 72.7169 80.3397C72.4465 79.7316 72.1198 79.4591 71.9071 79.2842C71.4688 78.9572 71.2865 78.9241 71.1465 78.8657C70.9884 78.8122 70.9981 78.8195 70.9753 78.8124C70.9569 78.8075 70.9402 78.8033 70.925 78.7996C70.8641 78.785 70.8237 78.7776 70.7923 78.7722C70.7305 78.7619 70.7035 78.7601 70.6875 78.7595C70.6691 78.7605 70.6692 78.7642 70.6758 78.7684C70.6962 78.7777 70.7224 78.7874 70.7608 78.798C70.9139 78.8403 71.0982 78.8838 71.2912 78.929C71.6736 79.0191 72.0379 79.1128 72.427 79.2149C72.8276 79.3219 72.5113 79.8337 72.5329 79.8999C72.9147 80.9364 73.2477 79.5897 73.387 79.5451C74.4572 79.227 75.4073 80.4109 76.2007 78.8227C80.6881 79.5777 85.2213 78.8378 89.6525 80.4556C89.7085 80.4745 89.5822 81.1406 89.6941 81.1754C90.1377 81.3157 90.4165 81.2963 90.6214 81.1629C91.0483 80.8923 91.1567 80.1439 91.8533 79.3276C92.1238 79.0217 92.7467 80.6107 92.7945 80.7292C92.9896 81.1625 92.6682 82.1362 92.7377 82.2228C93.2988 82.9076 93.5058 79.6105 94.4075 79.7113C94.4345 79.72 94.2472 80.3092 94.3144 80.3778C94.5206 80.5929 94.7766 80.3821 94.9732 80.6194C95.4237 81.17 95.3445 82.7747 96.2457 81.9815C96.3637 81.8804 96.5279 80.0043 97.3074 80.2406C97.6169 80.3308 99.0081 80.6016 99.3601 80.8204C99.7135 81.0334 99.3034 81.5523 99.325 81.5846C100.131 82.6148 99.6639 82.8374 99.8323 84.1064C99.9838 85.3708 100.625 82.6388 100.915 82.3971C101.208 82.1561 101.737 83.006 101.838 83.2795C101.942 83.5526 101.611 83.849 101.724 84.0211C102.469 85.1516 102.602 82.843 103.082 82.5325C104.229 81.8057 104.164 83.9897 104.799 84.4363C104.972 84.5579 104.977 84.0556 105.164 84.0766C105.557 84.124 105.792 84.3626 106.074 84.5336C106.325 84.6847 106.609 84.7836 107.066 84.6614C107.226 84.6181 108.313 83.698 108.381 84.7139C108.39 84.8597 108.035 85.2761 108.281 85.4994C108.644 85.8322 109.368 86.2538 109.892 86.2901C110.281 86.3174 110.23 85.3658 110.552 85.7935C110.693 85.9839 110.147 86.2913 110.427 86.61C110.708 86.9278 111.607 87.3077 111.951 87.4497C112.293 87.5889 112.384 86.9169 112.429 86.8898C112.703 86.7407 113.49 86.7689 113.547 86.7983C116.517 88.152 118.568 90.5422 121.34 92.0797C121.56 92.2045 121.825 91.5537 121.863 91.567C122.732 91.8508 121.111 92.9105 121.208 93.743C121.977 92.5882 122.109 92.9969 122.674 93.257C122.949 93.3851 123.165 92.8689 123.22 92.8432C124.082 92.4952 123.652 93.5181 123.561 93.7246C123.259 94.5125 124.114 94.0267 123.901 94.5552C123.677 95.068 122.832 95.3361 123.233 95.7095C123.699 95.4722 124.287 94.2302 124.767 94.41C125.319 94.6225 125.866 95.0919 126.337 95.7741C127.61 97.5224 127.289 99.954 127.189 100.845C127.08 102.126 127.094 102.54 126.949 103.153C126.935 103.227 126.918 103.303 126.897 103.381C126.35 104.937 127.361 104.518 127.521 105.621C127.63 106.699 125.544 105.455 125.022 105.414C124.505 105.351 124.954 105.647 124.639 105.687C124.328 105.718 124.112 105.316 123.898 105.578C123.691 105.834 124.153 107.031 124.577 107.373C125.486 108.088 126.754 108.186 125.957 108.884C125.911 108.922 125.429 108.49 125.281 108.649C124.12 109.922 123.264 111.357 122.063 112.511C121.898 112.668 121.41 112.139 121.308 112.225C120.234 113.118 121.477 113.326 122.172 114.652C120.805 113.583 119.703 113.356 119.149 114.181C118.814 114.676 119.497 115.009 119.721 115.63C119.789 115.816 119.118 115.885 119.368 116.147C120.181 117.011 121.486 117.405 120.459 117.986C120.412 118.01 119.974 117.529 119.852 117.638C119.731 117.746 119.649 117.855 119.596 117.968C119.269 118.623 119.826 119.382 119.195 120.292C118.605 121.15 116.793 121.791 115.866 122.303C114.719 120.742 114.254 121.621 114.633 122.963C114.031 123.289 113.436 123.726 112.778 123.874C112.553 123.924 112.414 123.361 112.36 123.321C111.542 122.681 111.903 123.958 111.794 124.071C110.627 125.219 109.089 124.815 108.124 126.258C108.09 126.31 108.524 127.589 107.79 126.825C107.742 126.771 107.955 126.023 107.304 126.235C106.653 126.448 105.21 126.233 104.556 127.145C104.48 127.252 104.404 127.597 104.26 127.851C104.103 128.12 103.867 128.286 103.491 127.954C103.393 127.866 103.328 127.479 103.171 127.306C102.675 126.755 102.967 128.095 102.274 127.108C101.58 126.12 100.692 125.504 100.038 126.528C100.018 126.558 100.108 127.657 99.8167 127.722C99.3511 127.824 98.6489 127.778 98.1722 127.903C97.9446 127.963 98.2509 128.578 98.2141 128.6C96.7388 129.344 95.482 128.991 93.7667 129.012C93.4549 129.014 92.689 130.055 91.9918 129.415C91.2329 128.712 91.4901 125.373 90.1459 126.311C89.6249 126.681 89.1924 130.919 87.9334 128.833C85.8385 129.505 83.8655 128.43 81.7371 129.14C81.6446 129.171 81.2975 130.327 81.0703 130.303C80.7362 130.265 80.5653 129.712 80.3306 129.665C79.3343 129.454 78.3852 129.858 77.4173 129.703C77.0459 129.645 77.2283 129.096 76.7951 129.024C76.6192 128.995 76.4583 129.092 76.2932 129.191C76.0271 129.294 75.7344 129.397 75.4558 129.087C75.1001 128.692 75.1521 127.116 74.6832 126.765C74.17 128.168 73.7979 128.011 72.9797 128.118C72.8218 128.138 72.773 128.678 72.688 128.712C72.3326 128.862 72.2579 128.367 71.907 128.537C71.8212 128.578 71.6218 129.048 71.5395 129.107C70.8249 129.625 70.6038 128.265 70.5823 128.033C70.4703 127.143 69.9883 127.647 69.7913 127.215C69.6024 126.785 70.2503 126.693 69.9596 126.343C69.364 125.622 68.3757 125.163 67.6449 124.69C67.3523 124.504 67.1979 125.208 67.1478 125.195C66.6216 125.022 66.3626 124.428 65.8326 124.49C65.6386 124.502 65.4077 124.597 65.1071 124.82C66.8057 121.705 64.5442 124.829 64.1388 123.621C64.1084 123.525 65.0521 122.155 65.4476 122.155C65.8417 122.154 65.895 122.853 66.4586 122.799C66.5393 122.792 67.0787 122.453 67.5048 122.168L67.4073 122.101C67.6802 121.908 67.9103 121.744 67.9553 121.729C68.8423 121.426 67.5889 123.565 67.5458 123.7C67.082 125.147 68.5682 124.085 68.7752 124.07C69.7559 124.028 70.1999 124.662 70.984 124.633C71.4943 124.614 72.2386 123.168 72.5126 123.353C73.4113 123.951 72.9595 126.218 74.6634 124.765C75.0246 124.451 75.4166 122.709 75.6871 124.285C75.6986 124.383 75.8679 125.79 76.4491 125.124C76.5211 125.039 76.674 124.545 76.7407 124.52C77.1106 124.388 77.2552 124.691 77.5604 124.75L76.7515 124.596C76.8152 124.597 76.8836 124.588 76.9587 124.563C77.4247 124.409 77.9618 124.161 78.4504 124.375C78.736 124.502 79.0659 125.492 79.1928 125.737C79.566 126.443 80.0687 125.353 80.2862 126.188C80.5091 127.028 79.9275 128.26 80.6037 128.826C80.688 127.483 80.8054 126.107 80.901 124.757C82.3537 124.864 83.7923 125.313 85.2594 125.217C85.4414 125.203 85.2364 124.485 85.4294 124.452C86.2317 124.314 86.9702 124.795 87.7978 124.534C88.4377 124.329 89.0788 123.507 89.7175 123.246C90.2825 124.737 91.2363 124.1 91.9705 124.135C92.2315 124.147 92.2732 124.556 92.4743 124.661C93.2354 125.046 92.7026 123.751 92.8533 123.511C93.4795 122.481 94.0767 125.504 95.0322 125.241C95.0878 125.228 95.364 123.496 95.4202 123.378C95.8005 122.614 95.6278 123.918 95.9829 123.964C96.6309 124.046 97.1512 124.325 97.7346 123.677C97.9055 123.485 98.116 122.37 98.7171 123.02C98.797 123.105 98.9186 123.634 98.9692 123.652C99.8812 123.938 99.4062 122.297 99.6432 121.617C99.8765 120.939 100.876 121.841 101.126 122.112C101.76 122.818 100.985 122.558 100.993 122.645C101.1 123.691 101.529 123.36 101.925 123.309C102.541 124.864 103.043 124.573 102.335 123.248C102.258 123.104 102.025 123.355 101.925 123.309C101.822 122.57 101.855 122.083 102.025 121.875C102.262 121.606 102.709 121.773 103.376 122.429C103.935 122.983 103.949 123.877 104.767 123.232C105.14 122.938 104.557 121.931 104.806 121.495C105.371 120.503 106.833 121.061 107.584 120.541C107.855 120.353 107.311 119.907 107.484 119.759C107.934 119.369 108.59 119.582 108.983 119.115C109.018 119.072 108.615 118.537 108.762 118.454C109.86 117.81 110.982 117.647 111.939 116.958C112.412 116.624 112.879 115.735 113.273 115.413C113.651 115.113 114.227 114.897 114.732 114.58C115.272 114.16 115.745 113.733 115.945 113.241C116.223 112.559 115.586 112.323 115.379 111.823C114.976 110.856 116.842 110.834 117.123 110.839C117.133 110.838 116.933 111.443 117.395 111.346C118.094 111.562 117.122 110.846 117.123 110.839C117.306 110.845 118.078 109.884 118.093 109.61C118.101 109.462 117.528 109.203 117.542 109.133C117.887 107.47 118.497 106.04 119.355 104.868C119.377 104.851 119.997 105.176 120.041 105.13C120.671 104.491 120.069 103.658 119.707 103.102C119.41 102.635 119.418 102.649 120.112 102.902C120.265 102.791 120.446 102.692 120.659 102.605C120.544 101.866 121.114 101.149 121.428 100.811C121.744 100.451 120.378 100.519 120.351 100.502C119.938 100.264 119.873 100.287 119.947 100.27C120.018 100.261 120.222 100.221 120.276 100.121C120.273 100.085 120.261 100.042 120.236 99.9944C120.136 99.7464 119.302 99.1859 118.756 98.9286C118.331 98.7246 118.302 98.294 117.816 98.1788C117.751 98.1636 117.433 98.6831 117.405 98.6905C116.574 98.9727 117.646 97.9268 117.719 97.6514C117.976 96.648 118.049 96.0663 117.207 96.0422C117.004 96.03 115.446 97.5561 115.142 97.5109C114.746 97.4472 115.269 96.8731 114.835 96.8212C114.798 96.8163 114.558 97.2216 114.361 97.0773C113.439 96.4105 112.467 95.5557 111.35 95.035C111.199 94.9625 111.046 95.7246 110.826 95.6336C109.788 95.2028 108.684 94.649 107.805 93.8766C107.589 93.684 107.959 93.275 107.967 93.1085C108.001 92.0949 106.975 93.1423 106.886 93.133C105.469 93.0011 104.55 92.2227 103.438 91.6521C102.831 91.3457 102.19 91.0979 101.439 91.0461C101.311 91.0366 100.02 92.1394 100.061 90.8316C100.066 90.7449 100.097 89.4017 99.5151 90.1405C99.48 90.1873 99.499 90.8864 99.1388 90.7034C98.7739 90.5195 98.0589 90.7694 97.7372 89.9321C97.64 89.6692 97.5499 88.3192 96.8193 89.199C96.7556 89.2557 95.5508 91.3564 95.6105 89.7457C95.6196 89.4809 95.9844 87.828 95.2309 88.5711C95.0897 88.7168 95.2262 89.1224 94.8941 89.3037C94.3937 89.5854 93.8593 89.0497 93.2172 89.7316C93.0998 89.8515 92.5852 90.9462 92.346 90.0516C92.3067 89.9113 92.4581 89.3591 92.2861 89.2804C91.6741 88.9985 90.9967 89.1119 90.3324 89.0153C90.0697 88.9814 89.8109 88.9223 89.5581 88.8152C89.2017 88.665 89.4194 87.7615 89.0546 87.5037C88.6747 87.2454 87.9338 86.983 87.5158 87.3839C87.1014 87.7851 87.4808 89.2521 86.8827 89.3459C84.2829 89.7531 81.7538 88.8037 79.175 88.5748C78.7954 88.5408 79.0974 89.073 78.5233 89.0595C76.4326 89.0127 72.8318 89.3502 70.9733 88.1348C69.3977 87.1464 71.5156 86.6138 70.2677 86.1667C70.2043 86.1423 70.097 86.1377 70.0086 86.1523C69.9726 86.1604 69.8883 86.1683 69.8137 86.1799C69.7219 86.1877 69.7017 86.217 69.3686 86.1856C69.2869 86.177 69.1887 86.1646 69.041 86.1344C69.0039 86.1267 68.9634 86.1178 68.9183 86.1069C68.9071 86.1042 68.8955 86.1013 68.8836 86.0984C68.8627 86.0928 68.784 86.0697 68.7226 86.0499C68.5894 86.0064 68.425 85.9502 68.1836 85.8399C67.9409 85.7231 67.6203 85.5764 67.1204 85.1721C66.6582 84.7701 65.804 84.0157 65.4392 82.3696C65.0434 80.6994 65.8694 78.8639 66.5469 78.176C66.8871 77.7876 67.1908 77.5488 67.4414 77.3722C67.5672 77.2844 67.6813 77.2132 67.7852 77.1526C67.9111 77.0805 67.8793 77.0992 67.9249 77.0739C68.874 76.5955 69.095 76.6248 69.334 76.5508C69.5472 76.5026 69.6625 76.4821 69.7596 76.4627C69.9272 76.4112 70.0214 76.3698 70.111 76.3261C70.2483 76.2418 70.3197 76.154 70.4159 76.062C70.8672 75.6164 71.1807 75.1089 71.2767 75.082C72.9465 74.6157 73.6194 75.4435 74.7333 75.2824C74.9572 75.2493 74.7849 74.5526 74.9749 74.5318C75.6107 74.4539 76.2513 74.7939 76.8336 74.761C77.0964 74.7444 77.0707 74.2206 77.3061 74.2689C77.8674 74.3773 78.361 74.6061 78.9116 75.0975C78.9626 75.1422 78.6194 75.7914 79.0406 75.8164C79.7298 75.8545 80.59 76.3204 81.3504 75.7831C81.5739 75.6213 81.5103 74.4307 82.0487 75.2226C82.1596 75.3872 82.1326 76.829 82.6117 75.5498C82.7072 75.3378 83.461 73.5924 84.0223 74.6067C84.1704 74.8748 84.6336 75.9997 84.8798 75.7791C84.9115 75.7449 84.6805 75.1297 84.8896 75.0371C85.6311 74.7205 86.4307 74.6486 87.1495 74.2872C87.3393 74.1895 86.9018 73.6062 87.1812 73.4823C87.9493 73.1409 88.9551 73.0412 89.7717 72.9904C90.0711 72.9737 90.0548 73.558 90.0929 73.6085C90.7373 74.4198 90.5083 73.1059 90.5843 72.9973C91.0796 72.3298 91.7924 72.7052 92.3174 72.2911C92.4587 72.1794 92.0864 71.6605 92.0947 71.5954C92.1834 70.9538 92.418 72.0847 92.6772 72.1003C93.4115 72.1426 94.0344 71.7574 94.5479 71.3618C94.7364 71.2152 94.1394 70.7249 94.3079 70.6027C94.3436 70.576 94.3794 70.5494 94.4154 70.5228C95.4962 69.7441 96.4203 69.1748 97.2615 68.9074C97.427 68.8557 97.7441 69.3259 97.8569 69.3947C98.6719 69.8524 98.0171 68.7596 97.9524 68.6536C97.722 68.1048 98.1528 68.3483 98.185 68.1336C98.2228 67.6669 98.2238 67.513 98.3012 67.1833C98.5027 65.6463 98.7471 64.1428 98.8853 62.8868C99.1512 60.5654 99.3452 58.4877 99.1004 57.4062C99.3258 57.9856 99.3621 57.8761 99.2326 57.7933C99.1949 57.7616 98.6603 58.2809 98.6273 58.2682C98.2133 58.015 96.9889 56.8355 95.3176 56.4286C95.1818 56.3927 95.1085 57.1214 94.8862 57.0882C94.4298 57.0257 93.888 56.7995 93.4772 56.4406C93.278 56.2673 93.7643 55.7813 93.5548 55.6177C93.1352 55.2964 92.6416 55.0964 92.1073 55.0194C91.9777 54.9987 91.848 54.9828 91.7185 54.9717C91.3909 54.9453 91.7016 55.7599 91.2895 55.6711C88.4776 55.0823 85.7734 54.5811 83.276 53.1531C83.1048 53.0554 83.2156 51.5839 82.767 51.7881C82.6648 52.1831 82.5814 52.6544 82.4913 53.08C78.7485 52.5988 74.8236 51.8503 73.4274 52.3433C73.3798 52.3572 73.7134 53.0621 73.6438 53.0857C73.6274 53.0915 73.6128 53.0973 73.5998 53.103C72.0871 53.7422 70.7571 54.565 68.947 54.7344C68.7595 54.754 68.164 53.5182 67.8097 53.9619C67.7476 54.0395 67.1632 54.601 67.1513 54.9602C67.1523 55.0122 67.6059 55.4811 67.4078 55.6264C66.2489 56.4642 64.9795 57.1871 63.6617 57.7667C63.4478 57.8601 63.2004 57.1834 63.0423 57.2473C61.9068 57.7198 61.3657 58.9376 60.201 59.2952C59.4122 59.5468 58.7135 58.5706 57.5648 58.1312C57.3996 58.0714 57.0654 58.4339 56.5251 58.0348C55.1617 57.0314 53.902 55.6458 52.4316 54.5971C52.1117 54.3709 51.9075 55.304 51.487 54.3227C51.4582 54.2554 51.6168 53.5655 51.4774 53.2398C51.3811 53.0125 50.7259 52.7286 50.6613 52.3686C50.5999 52.0062 51.1979 52.1895 51.205 51.6849C51.2117 51.1785 50.5215 50.7735 50.9897 50.1398ZM122.676 99.3642C123.199 98.8863 120.991 99.8177 121.566 99.7232C121.596 99.7179 122.65 99.3853 122.676 99.3642ZM83.7882 127.101C84.4078 128.155 84.8052 126.595 84.3692 125.786C83.9478 124.976 83.6034 126.781 83.7882 127.101ZM77.3981 127.593C78.0549 128.484 78.4263 125.11 77.6227 125.731C77.5757 125.766 77.3602 127.541 77.3981 127.593ZM58.6778 56.4435C58.6506 56.4249 58.3715 56.6643 58.3888 56.6925C58.8013 57.3569 59.343 56.8934 58.6778 56.4435ZM71.4649 126.517C71.481 127.031 72.2905 126.805 72.262 126.17C72.2457 125.664 71.4528 125.884 71.4649 126.517ZM104.419 85.5412C104.424 85.505 104.173 85.3799 104.11 85.5714C103.908 86.1886 104.333 86.1477 104.419 85.5412ZM62.3588 120.645C63.6235 121.745 62.6463 124.549 61.4654 123.241C61.2476 123.003 62.55 122.944 62.3817 122.497C62.063 121.676 60.6254 122.8 60.5702 121.599C60.5574 121.376 62.2864 120.572 62.3635 120.643C62.3619 120.644 62.3604 120.644 62.3588 120.645ZM125.31 98.198C125.34 98.1771 125.212 97.8058 125.177 97.8125C124.418 97.9731 124.632 98.6129 125.31 98.198ZM88.5898 81.0709C88.5704 81.0027 87.6784 80.9063 87.6428 80.9671C87.1274 82.191 88.9402 82.3899 88.5898 81.0709ZM115.821 122.271C115.906 123.16 115.458 123.574 114.635 122.963C115.04 122.761 115.424 122.506 115.821 122.271Z" fill="white"/>
</svg>
