<svg width="292" height="214" viewBox="0 0 292 214" fill="none" xmlns="http://www.w3.org/2000/svg">
<path d="M10.5234 2.23634L10.5845 3.23447L10.5234 2.23634ZM41.8034 2.68874L41.5747 1.71523L41.8034 2.68874ZM135.643 2.52065L135.523 3.51335L135.643 2.52065ZM276.403 2.74564L276.385 1.74581L276.403 2.74564ZM286.399 7.90379L285.474 8.2834L286.399 7.90379ZM289.367 67.9469L288.398 68.1954L289.367 67.9469ZM289.005 146.147L289.999 146.261L289.005 146.147ZM275.741 210.408L275.783 209.409L275.741 210.408ZM244.461 211.11L244.286 210.125L244.461 211.11ZM228.821 211.379L228.679 212.369L228.821 211.379ZM134.981 210.172L135.097 209.179L134.981 210.172ZM119.341 210.802L119.535 211.783L119.341 210.802ZM72.4207 210.714L72.187 209.742L72.4207 210.714ZM9.69892 210.247L9.72318 209.247L9.69892 210.247ZM10.5234 2.23634L10.5845 3.23447C15.7181 2.91987 20.8524 3.21673 25.9891 4.12592L26.1634 3.14123L26.3377 2.15654C21.0477 1.22022 15.7554 0.913829 10.4622 1.23821L10.5234 2.23634ZM26.1634 3.14123L25.9891 4.12592C31.3377 5.07261 36.6881 4.91733 42.032 3.66225L41.8034 2.68874L41.5747 1.71523C36.492 2.90897 31.4157 3.05535 26.3377 2.15654L26.1634 3.14123ZM41.8034 2.68874L42.032 3.66225C47.1659 2.4565 52.2956 1.90727 57.4228 2.01268L57.4434 1.01289L57.4639 0.0131023C52.1645 -0.0958433 46.8675 0.472168 41.5747 1.71523L41.8034 2.68874ZM57.4434 1.01289L57.4228 2.01268C62.6353 2.11984 67.8478 2.23356 73.0603 2.35384L73.0834 1.3541L73.1064 0.354368C67.8923 0.234051 62.6781 0.120296 57.4639 0.0131023L57.4434 1.01289ZM73.0834 1.3541L73.0603 2.35384C78.2838 2.47437 83.5073 2.51539 88.7307 2.4769L88.7234 1.47693L88.716 0.476959C83.5128 0.515296 78.3096 0.474433 73.1064 0.354368L73.0834 1.3541ZM88.7234 1.47693L88.7307 2.4769C93.8945 2.43886 99.0588 2.78317 104.224 3.51009L104.363 2.51985L104.503 1.52961C99.2413 0.789144 93.9789 0.438182 88.716 0.476959L88.7234 1.47693ZM104.363 2.51985L104.224 3.51009C109.527 4.25633 114.83 4.28197 120.133 3.58689L120.003 2.59537L119.873 1.60386C114.75 2.27546 109.627 2.25074 104.503 1.52961L104.363 2.51985ZM120.003 2.59537L120.133 3.58689C125.264 2.91444 130.393 2.88996 135.523 3.51335L135.643 2.52065L135.764 1.52796C130.467 0.884304 125.17 0.909632 119.873 1.60386L120.003 2.59537ZM135.643 2.52065L135.523 3.51335C140.804 4.15514 146.086 4.25035 151.369 3.7988L151.283 2.80244L151.198 1.80607C146.054 2.24586 140.909 2.15321 135.764 1.52796L135.643 2.52065ZM151.283 2.80244L151.369 3.7988C156.517 3.35867 161.665 3.42054 166.814 3.98453L166.923 2.99047L167.032 1.99642C161.755 1.41834 156.476 1.35486 151.198 1.80607L151.283 2.80244ZM166.923 2.99047L166.814 3.98453C172.095 4.56289 177.376 4.60575 182.656 4.11303L182.563 3.11736L182.47 2.12168C177.324 2.60184 172.179 2.56011 167.032 1.99642L166.923 2.99047ZM182.563 3.11736L182.656 4.11303C187.809 3.63223 192.962 3.62174 198.115 4.08153L198.203 3.08549L198.292 2.08945C193.018 1.61886 187.744 1.6296 182.47 2.12168L182.563 3.11736ZM198.203 3.08549L198.115 4.08153C203.393 4.55252 208.671 4.50726 213.949 3.94583L213.843 2.95144L213.738 1.95705C208.589 2.50474 203.441 2.54885 198.292 2.08945L198.203 3.08549ZM213.843 2.95144L213.949 3.94583C219.129 3.3948 224.309 3.10535 229.489 3.07742L229.483 2.07744L229.478 1.07745C224.231 1.10575 218.984 1.39897 213.738 1.95705L213.843 2.95144ZM229.483 2.07744L229.489 3.07742C234.692 3.04936 239.895 3.09939 245.099 3.2275L245.123 2.2278L245.148 1.2281C239.925 1.0995 234.701 1.04928 229.478 1.07745L229.483 2.07744ZM245.123 2.2278L245.099 3.2275C250.31 3.35581 255.522 3.49832 260.733 3.65502L260.763 2.65547L260.793 1.65593C255.578 1.49911 250.363 1.3565 245.148 1.2281L245.123 2.2278ZM260.763 2.65547L260.733 3.65502C265.963 3.81227 271.192 3.84242 276.422 3.74547L276.403 2.74564L276.385 1.74581C271.188 1.84216 265.991 1.8122 260.793 1.65593L260.763 2.65547ZM276.403 2.74564L276.422 3.74547C278.924 3.69908 280.881 4.09159 282.354 4.85135C283.804 5.59987 284.837 6.73077 285.474 8.2834L286.399 7.90379L287.325 7.52418C286.511 5.54139 285.152 4.04489 283.271 3.07403C281.411 2.11441 279.096 1.69555 276.385 1.74581L276.403 2.74564ZM286.399 7.90379L285.474 8.2834C286.851 11.6399 287.424 15.8547 287.136 20.9706L288.134 21.0269L289.133 21.0832C289.432 15.7725 288.849 11.2385 287.325 7.52418L286.399 7.90379ZM288.134 21.0269L287.136 20.9706C286.841 26.2056 286.716 31.4406 286.761 36.6756L287.761 36.6669L288.761 36.6582C288.716 31.4666 288.84 26.2749 289.133 21.0832L288.134 21.0269ZM287.761 36.6669L286.761 36.6756C286.807 41.8761 286.752 47.0765 286.596 52.277L287.595 52.3069L288.595 52.3369C288.751 47.1106 288.807 41.8844 288.761 36.6582L287.761 36.6669ZM287.595 52.3069L286.596 52.277C286.437 57.5871 287.039 62.8941 288.398 68.1954L289.367 67.9469L290.336 67.6984C289.021 62.5731 288.442 57.4534 288.595 52.3369L287.595 52.3069ZM289.367 67.9469L288.398 68.1954C289.704 73.2851 289.998 78.3668 289.285 83.4479L290.275 83.5869L291.266 83.726C292.016 78.3803 291.705 73.0354 290.336 67.6984L289.367 67.9469ZM290.275 83.5869L289.285 83.4479C288.549 88.6876 288.027 93.9278 287.719 99.1682L288.717 99.2269L289.715 99.2857C290.021 94.0994 290.537 88.9129 291.266 83.726L290.275 83.5869ZM288.717 99.2269L287.719 99.1682C287.408 104.456 287.688 109.744 288.56 115.03L289.547 114.867L290.534 114.704C289.686 109.563 289.413 104.424 289.715 99.2857L288.717 99.2269ZM289.547 114.867L288.56 115.03C289.409 120.17 289.679 125.309 289.371 130.447L290.37 130.507L291.368 130.567C291.684 125.278 291.406 119.99 290.534 114.704L289.547 114.867ZM290.37 130.507L289.371 130.447C289.061 135.642 288.607 140.838 288.012 146.033L289.005 146.147L289.999 146.261C290.598 141.03 291.055 135.798 291.368 130.567L290.37 130.507ZM289.005 146.147L288.012 146.033C287.404 151.333 287.487 156.633 288.261 161.931L289.251 161.787L290.24 161.642C289.491 156.514 289.411 151.388 289.999 146.261L289.005 146.147ZM289.251 161.787L288.261 161.931C289.019 167.115 289.535 172.298 289.81 177.48L290.808 177.427L291.807 177.374C291.529 172.13 291.006 166.886 290.24 161.642L289.251 161.787ZM290.808 177.427L289.81 177.48C290.084 182.644 289.978 187.809 289.493 192.973L290.489 193.067L291.484 193.16C291.979 187.899 292.086 182.636 291.807 177.374L290.808 177.427ZM290.489 193.067L289.493 192.973C289.013 198.083 287.768 202.167 285.811 205.28L286.657 205.812L287.504 206.345C289.675 202.89 290.984 198.478 291.484 193.16L290.489 193.067ZM286.657 205.812L285.811 205.28C284.002 208.157 280.778 209.62 275.783 209.409L275.741 210.408L275.699 211.407C281.13 211.636 285.184 210.035 287.504 206.345L286.657 205.812ZM275.741 210.408L275.783 209.409C270.563 209.189 265.343 209.019 260.123 208.901L260.101 209.901L260.078 210.901C265.285 211.019 270.492 211.187 275.699 211.407L275.741 210.408ZM260.101 209.901L260.123 208.901C254.843 208.782 249.564 209.19 244.286 210.125L244.461 211.11L244.635 212.095C249.784 211.182 254.932 210.785 260.078 210.901L260.101 209.901ZM244.461 211.11L244.286 210.125C239.177 211.031 234.07 211.118 228.962 210.389L228.821 211.379L228.679 212.369C233.998 213.128 239.318 213.037 244.635 212.095L244.461 211.11ZM228.821 211.379L228.962 210.389C223.668 209.633 218.372 209.532 213.077 210.087L213.181 211.081L213.285 212.076C218.416 211.538 223.547 211.636 228.679 212.369L228.821 211.379ZM213.181 211.081L213.077 210.087C207.951 210.623 202.826 210.483 197.699 209.663L197.541 210.651L197.383 211.638C202.682 212.485 207.984 212.631 213.285 212.076L213.181 211.081ZM197.541 210.651L197.699 209.663C192.403 208.817 187.106 208.639 181.808 209.131L181.901 210.127L181.993 211.123C187.122 210.646 192.252 210.818 197.383 211.638L197.541 210.651ZM181.901 210.127L181.808 209.131C176.593 209.616 171.378 210.112 166.164 210.621L166.261 211.616L166.358 212.612C171.57 212.103 176.781 211.607 181.993 211.123L181.901 210.127ZM166.261 211.616L166.164 210.621C161.01 211.124 155.856 211.163 150.703 210.738L150.621 211.734L150.538 212.731C155.812 213.166 161.085 213.126 166.358 212.612L166.261 211.616ZM150.621 211.734L150.703 210.738C145.501 210.309 140.299 209.789 135.097 209.179L134.981 210.172L134.864 211.165C140.089 211.778 145.314 212.3 150.538 212.731L150.621 211.734ZM134.981 210.172L135.097 209.179C129.779 208.555 124.461 208.77 119.147 209.821L119.341 210.802L119.535 211.783C124.647 210.772 129.756 210.566 134.864 211.165L134.981 210.172ZM119.341 210.802L119.147 209.821C114.065 210.826 108.988 210.797 103.906 209.731L103.701 210.71L103.495 211.688C108.84 212.809 114.189 212.841 119.535 211.783L119.341 210.802ZM103.701 210.71L103.906 209.731C98.6314 208.625 93.3544 208.032 88.0757 207.953L88.0607 208.952L88.0456 209.952C93.1937 210.03 98.3434 210.608 103.495 211.688L103.701 210.71ZM88.0607 208.952L88.0757 207.953C82.7763 207.873 77.4794 208.47 72.187 209.742L72.4207 210.714L72.6544 211.686C77.7886 210.453 82.9184 209.875 88.0456 209.952L88.0607 208.952ZM72.4207 210.714L72.187 209.742C67.0928 210.966 62.0054 211.224 56.9181 210.518L56.7807 211.508L56.6432 212.499C61.9827 213.24 67.3219 212.968 72.6544 211.686L72.4207 210.714ZM56.7807 211.508L56.9181 210.518C51.639 209.785 46.3585 209.585 41.0779 209.918L41.1407 210.916L41.2036 211.914C46.3495 211.59 51.4958 211.785 56.6432 212.499L56.7807 211.508ZM41.1407 210.916L41.0779 209.918C35.906 210.243 30.7343 210.246 25.5625 209.926L25.5007 210.924L25.4389 211.922C30.6938 212.248 35.9487 212.245 41.2036 211.914L41.1407 210.916ZM25.5007 210.924L25.5625 209.926C20.3364 209.603 15.0566 209.376 9.72318 209.247L9.69892 210.247L9.67465 211.246C14.9836 211.375 20.2383 211.601 25.4389 211.922L25.5007 210.924ZM9.69892 210.247L9.72318 209.247C7.20464 209.186 5.59658 208.527 4.65677 207.479C3.72026 206.434 3.25937 204.792 3.51021 202.334L2.51538 202.233L1.52055 202.131C1.23923 204.887 1.70953 207.187 3.16752 208.814C4.62222 210.437 6.87201 211.178 9.67465 211.246L9.69892 210.247ZM2.51538 202.233L3.51021 202.334C4.0475 197.071 4.18385 191.807 3.91914 186.543L2.92041 186.593L1.92167 186.643C2.18126 191.806 2.04759 196.968 1.52055 202.131L2.51538 202.233ZM2.92041 186.593L3.91914 186.543C3.65931 181.375 3.7564 176.208 4.21046 171.04L3.2143 170.953L2.21814 170.865C1.75605 176.124 1.65721 181.384 1.92167 186.643L2.92041 186.593ZM3.2143 170.953L4.21046 171.04C4.67502 165.753 4.55304 160.466 3.84482 155.18L2.85368 155.313L1.86253 155.446C2.55129 160.586 2.66973 165.726 2.21814 170.865L3.2143 170.953ZM2.85368 155.313L3.84482 155.18C3.15746 150.05 3.11894 144.921 3.72912 139.791L2.73612 139.673L1.74312 139.555C1.11307 144.852 1.15292 150.149 1.86253 155.446L2.85368 155.313ZM2.73612 139.673L3.72912 139.791C4.35335 134.543 4.69967 129.295 4.76797 124.046L3.76805 124.033L2.76814 124.02C2.70076 129.198 2.35911 134.376 1.74312 139.555L2.73612 139.673ZM3.76805 124.033L4.76797 124.046C4.83564 118.846 5.00854 113.646 5.28669 108.446L4.28812 108.393L3.28954 108.339C3.00996 113.566 2.83616 118.793 2.76814 124.02L3.76805 124.033ZM4.28812 108.393L5.28669 108.446C5.5682 103.184 5.45953 97.9208 4.96076 92.6585L3.96522 92.7529L2.96968 92.8473C3.45917 98.0116 3.56577 103.176 3.28954 108.339L4.28812 108.393ZM3.96522 92.7529L4.96076 92.6585C4.46502 87.4282 3.83418 82.198 3.06826 76.968L2.07881 77.1129L1.08937 77.2578C1.8504 82.4544 2.47716 87.6509 2.96968 92.8473L3.96522 92.7529ZM2.07881 77.1129L3.06826 76.968C2.31217 71.8051 1.9575 66.6432 2.00396 61.4819L1.004 61.4729L0.0040369 61.4639C-0.0433586 66.7293 0.318513 71.994 1.08937 77.2578L2.07881 77.1129ZM1.004 61.4729L2.00396 61.4819C2.05045 56.3163 2.46565 51.1501 3.24982 45.9829L2.26114 45.8329L1.27246 45.6829C0.474286 50.9423 0.0513937 56.2028 0.0040369 61.4639L1.004 61.4729ZM2.26114 45.8329L3.24982 45.9829C4.05343 40.6876 4.19102 35.3905 3.66215 30.0935L2.6671 30.1929L1.67205 30.2922C2.18422 35.422 2.05118 40.5515 1.27246 45.6829L2.26114 45.8329ZM2.6671 30.1929L3.66215 30.0935C3.14984 24.9625 3.27263 19.8316 4.03093 14.6991L3.04167 14.5529L2.05241 14.4067C1.27023 19.7009 1.14331 24.9967 1.67205 30.2922L2.6671 30.1929ZM3.04167 14.5529L4.03093 14.6991C4.4185 12.0758 4.65047 9.91484 4.72061 8.22726C4.78889 6.58462 4.71284 5.25077 4.38751 4.37574L3.4502 4.72424L2.51289 5.07273C2.68543 5.53681 2.79024 6.51063 2.72234 8.1442C2.65631 9.73285 2.43507 11.8167 2.05241 14.4067L3.04167 14.5529ZM3.4502 4.72424L4.38751 4.37574C4.37735 4.34843 4.39089 4.37062 4.38182 4.42148C4.37275 4.47236 4.35236 4.48857 4.37126 4.46653C4.43288 4.39468 4.64525 4.22828 5.17689 4.04128C6.21713 3.67539 7.99257 3.39331 10.5845 3.23447L10.5234 2.23634L10.4622 1.23821C7.84084 1.39886 5.83075 1.69118 4.51327 2.15459C3.86604 2.38224 3.2565 2.69421 2.85316 3.16446C2.63958 3.41348 2.47594 3.71666 2.41287 4.07045C2.3498 4.42423 2.39857 4.76527 2.51289 5.07273L3.4502 4.72424Z" fill="white"/>
</svg>
