<svg width="361" height="267" viewBox="0 0 361 267" fill="none" xmlns="http://www.w3.org/2000/svg">
<path d="M19.9632 4.47268L20.0856 6.46893L19.9632 4.47268ZM357.214 74.3484L355.225 74.56L357.214 74.3484ZM263.64 261.813L263.143 259.876L263.64 261.813ZM232.36 263.629L232.638 261.649L232.36 263.629ZM138.52 263.818L138.401 265.814L138.52 263.818ZM107.24 261.089L107.013 263.076L107.24 261.089ZM75.9604 261.58L75.6713 259.601L75.9604 261.58ZM44.6804 264.695L44.7864 266.693L44.6804 264.695ZM16.3002 260.393L17.0476 258.538L16.3002 260.393ZM19.9632 4.47268L20.0856 6.46893C30.3526 5.83973 40.6212 6.43347 50.8947 8.25185L51.2432 6.28246L51.5918 4.31307C41.0119 2.44045 30.4272 1.82766 19.8409 2.47642L19.9632 4.47268ZM51.2432 6.28246L50.8947 8.25185C61.5918 10.1452 72.2927 9.83467 82.9805 7.32451L82.5232 5.37748L82.066 3.43046C71.9005 5.81794 61.748 6.1107 51.5918 4.31307L51.2432 6.28246ZM82.5232 5.37748L82.9805 7.32451C93.2484 4.91299 103.508 3.81455 113.762 4.02536L113.803 2.02578L113.844 0.0262046C103.246 -0.191687 92.6515 0.944337 82.066 3.43046L82.5232 5.37748ZM113.803 2.02578L113.762 4.02536C124.187 4.23968 134.612 4.46711 145.037 4.70767L145.083 2.7082L145.129 0.708737C134.701 0.468102 124.273 0.240591 113.844 0.0262046L113.803 2.02578ZM145.083 2.7082L145.037 4.70767C155.484 4.94874 165.931 5.03078 176.378 4.95381L176.363 2.95386L176.349 0.953918C165.942 1.03059 155.536 0.948865 145.129 0.708737L145.083 2.7082ZM176.363 2.95386L176.378 4.95381C186.706 4.87772 197.034 5.56635 207.365 7.02018L207.643 5.03969L207.922 3.05921C197.399 1.57829 186.874 0.876364 176.349 0.953918L176.363 2.95386ZM207.643 5.03969L207.365 7.02018C217.97 8.51266 228.577 8.56393 239.183 7.17379L238.923 5.19075L238.663 3.20771C228.416 4.55091 218.17 4.50148 207.922 3.05921L207.643 5.03969ZM238.923 5.19075L239.183 7.17379C249.444 5.82888 259.702 5.77991 269.962 7.0267L270.203 5.04131L270.445 3.05592C259.851 1.76861 249.256 1.81926 238.663 3.20771L238.923 5.19075ZM270.203 5.04131L269.962 7.0267C280.525 8.31029 291.089 8.50071 301.654 7.5976L301.483 5.60487L301.313 3.61214C291.024 4.49172 280.735 4.30643 270.445 3.05592L270.203 5.04131ZM301.483 5.60487L301.654 7.5976C311.951 6.71733 322.247 6.84108 332.546 7.96905L332.763 5.98094L332.981 3.99283C322.426 2.83669 311.869 2.70972 301.313 3.61214L301.483 5.60487ZM332.763 5.98094L332.546 7.96905C342.609 9.07133 348.696 12.7218 351.586 18.4608L353.372 17.5612L355.159 16.6616C351.423 9.24439 343.771 5.17467 332.981 3.99283L332.763 5.98094ZM353.372 17.5612L351.586 18.4608C354.675 24.594 355.865 32.6865 354.954 42.8906L356.946 43.0684L358.938 43.2462C359.889 32.597 358.696 23.6847 355.159 16.6616L353.372 17.5612ZM356.946 43.0684L354.954 42.8906C354.012 53.4471 354.103 64.0041 355.225 74.56L357.214 74.3484L359.203 74.1368C358.108 63.8393 358.019 53.543 358.938 43.2462L356.946 43.0684ZM357.214 74.3484L355.225 74.56C356.328 84.9203 356.906 95.28 356.962 105.639L358.962 105.628L360.962 105.618C360.906 95.1235 360.319 84.6298 359.203 74.1368L357.214 74.3484ZM358.962 105.628L356.962 105.639C357.018 116.046 356.918 126.452 356.662 136.859L358.662 136.908L360.661 136.958C360.918 126.511 361.019 116.064 360.962 105.618L358.962 105.628ZM358.662 136.908L356.662 136.859C356.406 147.282 356.121 157.705 355.807 168.128L357.806 168.188L359.805 168.249C360.119 157.818 360.404 147.388 360.661 136.958L358.662 136.908ZM357.806 168.188L355.807 168.128C355.493 178.587 355.432 189.046 355.626 199.505L357.626 199.468L359.626 199.431C359.433 189.037 359.493 178.643 359.805 168.249L357.806 168.188ZM357.626 199.468L355.626 199.505C355.819 209.881 355.612 220.256 355.008 230.632L357.004 230.748L359.001 230.865C359.612 220.387 359.82 209.909 359.626 199.431L357.626 199.468ZM357.004 230.748L355.008 230.632C354.411 240.864 351.798 247.406 347.674 250.901L348.966 252.427L350.259 253.953C355.636 249.397 358.382 241.486 359.001 230.865L357.004 230.748ZM348.966 252.427L347.674 250.901C343.451 254.479 336.432 256.512 326.183 256.602L326.2 258.602L326.218 260.602C336.822 260.509 344.98 258.426 350.259 253.953L348.966 252.427ZM326.2 258.602L326.183 256.602C315.782 256.692 305.381 256.582 294.98 256.27L294.92 258.269L294.861 260.268C305.313 260.582 315.765 260.693 326.218 260.602L326.2 258.602ZM294.92 258.269L294.98 256.27C284.36 255.952 273.746 257.156 263.143 259.876L263.64 261.813L264.137 263.75C274.388 261.121 284.627 259.962 294.861 260.268L294.92 258.269ZM263.64 261.813L263.143 259.876C252.964 262.487 242.801 263.075 232.638 261.649L232.36 263.629L232.082 265.61C242.774 267.111 253.463 266.488 264.137 263.75L263.64 261.813ZM232.36 263.629L232.638 261.649C222.159 260.177 211.679 259.133 201.198 258.516L201.08 260.513L200.963 262.509C211.335 263.12 221.708 264.153 232.082 265.61L232.36 263.629ZM201.08 260.513L201.198 258.516C190.621 257.894 180.046 258.455 169.475 260.2L169.8 262.173L170.126 264.146C180.408 262.45 190.686 261.905 200.963 262.509L201.08 260.513ZM169.8 262.173L169.475 260.2C159.193 261.896 148.916 262.436 138.64 261.821L138.52 263.818L138.401 265.814C148.978 266.447 159.554 265.891 170.126 264.146L169.8 262.173ZM138.52 263.818L138.64 261.821C128.25 261.2 117.859 260.293 107.468 259.102L107.24 261.089L107.013 263.076C117.475 264.275 127.938 265.188 138.401 265.814L138.52 263.818ZM107.24 261.089L107.468 259.102C96.8689 257.887 86.2685 258.053 75.6713 259.601L75.9604 261.58L76.2495 263.559C86.5056 262.061 96.7585 261.9 107.013 263.076L107.24 261.089ZM75.9604 261.58L75.6713 259.601C65.3048 261.116 54.9392 262.148 44.5744 262.698L44.6804 264.695L44.7864 266.693C55.2749 266.136 65.7626 265.091 76.2495 263.559L75.9604 261.58ZM44.6804 264.695L44.5744 262.698C34.3982 263.238 25.2348 261.836 17.0476 258.538L16.3002 260.393L15.5528 262.248C24.3525 265.793 34.1092 267.259 44.7864 266.693L44.6804 264.695ZM16.3002 260.393L17.0476 258.538C13.1488 256.967 10.3625 254.645 8.55285 251.609C6.73089 248.552 5.80509 244.612 5.91869 239.666L3.91921 239.62L1.91974 239.574C1.79386 245.055 2.81182 249.79 5.11685 253.657C7.43422 257.545 10.9581 260.397 15.5528 262.248L16.3002 260.393ZM3.91921 239.62L5.91869 239.666C6.15787 229.252 6.4972 218.838 6.9367 208.424L4.93848 208.34L2.94026 208.256C2.49968 218.695 2.15951 229.135 1.91974 239.574L3.91921 239.62ZM4.93848 208.34L6.9367 208.424C7.37728 197.985 7.71558 187.545 7.95159 177.105L5.9521 177.06L3.95261 177.015C3.71719 187.428 3.37974 197.842 2.94026 208.256L4.93848 208.34ZM5.9521 177.06L7.95159 177.105C8.19033 166.544 7.37394 155.986 5.50377 145.431L3.53444 145.78L1.56512 146.129C3.38991 156.427 4.18529 166.722 3.95261 177.015L5.9521 177.06ZM3.53444 145.78L5.50377 145.431C3.69305 135.212 3.51781 124.998 4.9768 114.783L2.99689 114.5L1.01698 114.217C-0.502263 124.855 -0.319142 135.495 1.56512 146.129L3.53444 145.78ZM2.99689 114.5L4.9768 114.783C6.48905 104.194 6.69076 93.6024 5.58127 83.0115L3.59215 83.2199L1.60304 83.4283C2.67811 93.6907 2.48298 103.952 1.01698 114.217L2.99689 114.5ZM3.59215 83.2199L5.58127 83.0115C4.5074 72.7607 4.78932 62.5102 6.42813 52.2555L4.45319 51.9399L2.47825 51.6243C0.784454 62.223 0.492341 72.8258 1.60304 83.4283L3.59215 83.2199ZM4.45319 51.9399L6.42813 52.2555C8.12044 41.6662 8.47586 31.139 7.49149 20.6782L5.50029 20.8655L3.50908 21.0529C4.46121 31.1712 4.11856 41.3603 2.47825 51.6243L4.45319 51.9399ZM5.50029 20.8655L7.49149 20.6782C7.00749 15.5347 6.65655 11.6833 6.43821 9.12C6.32887 7.8364 6.25368 6.88616 6.2116 6.26142C6.1903 5.94508 6.17893 5.73288 6.175 5.60902C6.17279 5.53918 6.17435 5.53702 6.17301 5.57076C6.17292 5.57299 6.17031 5.67218 6.14607 5.8051C6.13737 5.85278 6.10194 6.05002 5.99323 6.2824C5.93932 6.39764 5.81471 6.63791 5.57068 6.87286C5.3012 7.13231 4.82888 7.43115 4.18558 7.43115V5.43115V3.43115C3.54085 3.43115 3.06715 3.73062 2.79637 3.99133C2.55103 4.22754 2.42518 4.46969 2.3701 4.58744C2.25904 4.82484 2.22152 5.02962 2.21099 5.08735C2.18308 5.24036 2.17784 5.3697 2.17616 5.41213C2.17163 5.52625 2.17413 5.64468 2.17701 5.73561C2.18327 5.9333 2.19864 6.20342 2.22064 6.53018C2.26519 7.19164 2.34286 8.1707 2.45264 9.45949C2.67254 12.041 3.02484 15.9068 3.50908 21.0529L5.50029 20.8655ZM4.18558 5.43115V7.43115C4.35898 7.43115 9.73757 7.1031 20.0856 6.46893L19.9632 4.47268L19.8409 2.47642C14.6277 2.79591 10.7066 3.0355 8.07755 3.19521C5.37265 3.35953 4.15059 3.43115 4.18558 3.43115V5.43115Z" fill="white"/>
</svg>
