<svg width="565" height="485" viewBox="0 0 565 485" fill="none" xmlns="http://www.w3.org/2000/svg">
<path d="M543.706 319.398C547.238 299.379 549.036 278.4 548.733 257.3C548.972 242.461 545.529 230.717 538.829 217.166C527.443 193.988 513.844 171.052 499.607 150.128C494.956 143.389 490.148 136.944 485.047 130.958C479.749 124.855 480.437 124.964 478.939 123.259C474.745 118.685 471.504 116.699 468.104 113.727C466.674 112.488 465.224 111.276 463.757 110.084C448.621 97.6888 431.838 88.754 413.96 79.5956C413.604 79.4143 413.245 79.2321 412.884 79.0489C392.183 68.7116 402.767 71.9279 395.68 68.0638C381.744 60.6276 392.93 68.3914 387.091 66.2533C370.761 58.5656 354.163 50.9996 337.545 43.946C341.707 45.4084 345.863 46.908 350.053 48.4624C342.814 45.3419 332.501 40.7524 344.941 45.2222C342.31 43.9468 339.863 42.7287 337.144 41.4502C336.284 41.8261 327.617 38.5412 323.616 37.3521C322.657 37.0616 321.972 36.8866 321.711 36.8899C321.144 36.8986 322.088 37.3637 323.398 37.9207C325.187 38.681 327.659 39.6181 327.621 39.6309C327.461 39.7215 325.786 39.1321 323.294 38.1916C314.865 34.8728 296.671 28.2375 294.959 27.7831C289.213 25.8734 294.598 26.3712 289.619 25.0009C281.001 22.7821 286.265 26.2622 275.235 20.7296C270.363 20.596 270.072 20.0295 264.123 18.8473C263.339 18.6963 263.853 19.3302 263.505 19.2812C254.41 18.1029 261.518 18.3257 261.482 18.2648C261.058 17.5954 256.871 16.8405 253.363 16.3523C251.405 16.0752 249.66 15.8691 248.922 15.7378C228.054 12.0923 211.386 10.4688 191.12 8.61665C186.288 8.16384 181.264 7.74831 175.921 7.4041C169.908 6.91885 151.639 6.82572 145.882 7.10451C140.195 7.25166 143.212 6.43178 140.194 6.33272C136.391 7.98213 132.753 8.58221 125.852 9.70691C125.816 9.71622 125.706 9.73664 125.669 9.74225C124.064 9.86004 122.283 9.95444 120.292 10.0257C116.425 11.679 116.828 10.7327 109.145 11.8273C106.14 12.2367 102.139 13.0186 97.8462 13.4915L97.9404 13.4848C93.3491 14.2369 88.2568 14.7984 84.4584 14.3945C91.6062 14.0092 91.8864 13.4967 97.8565 12.553L97.7973 12.5572C98.6656 12.4642 99.6526 12.3514 100.787 12.22C102.777 12.057 116.691 10.554 125.551 8.90925C125.572 8.9062 125.631 8.89507 125.651 8.88999C130.306 7.57025 133.681 6.92772 132.791 6.6155C132.055 6.3675 128.406 6.97202 125.385 7.80627L125.396 7.80419C123.027 8.19369 120.98 8.54364 120.801 8.51821C119.003 8.26346 121.654 7.35094 125.239 6.69393L125.117 6.71745C126.377 6.35252 127.775 6.04873 129.149 5.86428C127.934 6.22232 126.499 6.66029 125.213 7.10841L125.295 7.09259C125.231 7.10791 125.167 7.12315 125.103 7.13832C125.169 7.13371 125.235 7.12903 125.3 7.1243L125.221 7.13951C136.597 5.60694 128.368 3.94267 137.522 5.49884C138.666 5.7265 138.254 6.11459 140.09 6.31834C140.453 6.13745 138.21 5.95858 140.106 5.73089C142.043 5.4921 145.76 6.00481 146.281 5.39982C147.07 4.46968 139.016 5.28369 138.411 5.35161C138.405 5.35738 138.4 5.36316 138.394 5.36893C132.976 5.43113 144.195 4.32934 144.739 4.3246C148.197 3.64223 145.802 3.29275 151.044 2.72865C154.033 2.39625 161.675 2.63467 164.465 2.65938C167.253 2.66257 162.933 2.12256 164.807 2.09259C166.712 2.06339 168.998 2.45921 171.224 2.46015C172.159 2.45864 172.132 2.00424 172.588 2.01023C177.479 2.08546 174.25 2.85664 178.658 3.05036C181.528 3.167 191.18 2.97122 184.584 2.24762C186.942 2.34068 189.235 2.45333 191.582 2.58028C192.383 2.6229 193.215 2.66682 194.032 2.70847C193.23 2.59387 192.398 2.48347 191.598 2.37378C190.39 2.21156 189.224 2.05424 188.076 1.87727C189.397 2.02105 190.545 2.10627 191.615 2.15682C195.244 2.32331 197.553 2.00425 200.443 2.16668C204.171 2.37571 207.443 3.54205 211.574 3.39957C220.407 3.09309 198.68 1.92526 196.042 1.57691C195.008 1.43428 199.052 0.995403 199.685 1.01915C202.43 1.1238 205.653 1.87734 207.778 2.01041C215.388 2.48647 220.117 2.1671 227.406 2.69157C236.037 3.32354 245.409 4.17371 254.972 5.44341C272.946 7.7215 291.448 12.1902 306.224 17.0186C314.68 19.7513 319.403 22.3509 323.111 23.7003C325.145 24.4471 326.761 25.0134 328.171 25.4853C332.717 27.0132 334.84 27.4112 340.556 29.6829C351.692 34.0963 366.908 41.2868 375.944 45.4646C382.21 48.3452 388.147 50.3429 389.791 51.0794C399.675 55.4982 410.418 60.5034 420.881 65.667C434.525 72.3888 447.737 79.492 457.872 86.0816C466.302 91.57 469.587 95.2042 471.244 96.4229C472.059 97.0418 472.755 97.5687 473.36 98.0212C477.987 101.545 477.448 100.427 482.252 104.733C485.153 107.403 485.252 108.381 485.617 108.752C488.809 112.117 489.994 112.236 492.505 114.854C500.307 123.089 506.87 131.901 512.942 140.867C518.006 148.365 522.757 155.987 527.48 163.725C528.231 164.96 527.866 165.032 528.368 165.82C530.524 169.206 530.03 167.324 532.221 170.904C536.764 178.357 541.137 186.183 545.473 194.385C545.907 195.206 545.701 195.763 546.691 197.633C547.673 199.494 548.797 200.716 550.284 203.691C551.356 205.841 552.373 208.008 553.356 210.212C555.932 216.025 558.338 222.032 560.465 228.814C560.945 230.358 562.035 232.163 562.595 234.59C564.273 241.319 564.427 250.903 564.352 257.086C564.349 257.958 564.348 258.8 564.35 259.555C564.378 279.833 563.089 298.517 560.05 317.373C559.772 319.075 559.42 320.693 559.064 322.171C558.503 324.496 557.942 326.467 557.673 327.859C556.669 332.975 557.882 329.204 556.861 334.389C552.686 354.676 548.051 374.765 540.137 394.809C532.09 416.509 514.294 437.347 492.117 446.571C490.457 447.339 488.751 448.089 486.993 448.824C472.052 455.142 454.368 460.917 439.82 464.348C433.075 465.937 431.711 465.556 426.945 466.606C425.567 466.905 424.412 467.173 423.339 467.435C417.807 468.778 415.611 469.84 408.072 471.321C400.898 472.719 392.52 473.294 385.044 474.514C377.565 475.725 374.224 477.043 365.606 478.32C358.508 479.367 348.51 480.226 340.736 481.101C337.824 481.432 334.913 481.745 332.002 482.038C310.485 484.214 288.617 485.27 266.831 483.802C251.309 482.794 235.856 480.828 220.523 477.655C205.511 475.016 190.329 468.057 177.63 460.578C162.876 452.019 148.803 442.733 134.856 433.041C126.084 426.925 116.98 420.427 107.923 413.579C95.4955 404.17 83.0364 394.303 71.7014 383.903C69.8729 382.202 73.2358 384.152 67.1523 378.973C64.1079 376.324 59.5354 373.08 53.1597 366.608C52.7747 366.214 52.383 365.811 51.9845 365.398C36.3477 348.265 16.2301 332.63 6.92782 306.008C-0.199494 281.987 -1.62021 256.663 1.71572 232.215C3.30842 220.582 5.16413 208.614 8.79794 197.026C12.3828 185.419 17.8291 174.163 24.9353 164.107C41.7426 140.546 58.6687 115.96 83.2846 97.7306C99.0176 86.1814 116.096 75.5768 134.175 68.3882C159.609 58.3027 184.249 49.3394 209.159 43.9497C213.47 43.2342 211.388 45.7409 209.465 46.906C207.318 47.1426 205.33 47.3134 203.093 47.6072C201.281 50.848 201.532 50.0144 191.848 53.3635C185.908 55.4453 190.994 54.6548 187.959 56.1185C184.01 57.9758 165.514 66.5834 168.562 63.6408C167.475 64.3768 166.514 65.0513 165.469 65.7669C156.155 69.6814 147.105 73.664 138.086 77.7441C133.968 79.6087 129.943 81.6155 125.972 83.7656C123.804 84.9488 123.935 85.4541 121.726 86.7099C115.811 90.1169 110.967 92.5787 105.033 96.4089C101.815 98.5106 101.696 99.2819 97.5097 102.064C93.9621 104.448 93.1741 104.298 89.8602 107.063C89.2936 107.539 88.6484 108.115 87.9154 108.819C91.9216 106.875 76.1244 118.309 71.4372 123.661C70.6947 124.367 65.5741 131.001 62.5849 134.298C59.5578 137.559 54.7203 142.402 50.6616 148.055C48.7589 150.704 48.0911 152.697 45.986 155.508C44.5057 157.488 42.2146 159.49 40.319 161.992C38.5813 164.277 35.4235 169.303 34.3389 170.938C34.2399 171.087 34.1592 171.207 34.0991 171.291C31.6385 174.836 34.0151 170.687 32.3078 173.103C23.9577 184.746 17.7803 200.461 15.4284 214.624C15.1195 216.36 16.0989 214.069 16.0712 214.303C14.4889 226.166 15.0322 219.784 14.0185 222.909C13.6342 224.14 12.8874 228.629 12.2709 233.627C11.3244 240.82 11.2923 249.006 11.8319 249.111C10.6669 249.775 11.4121 254.881 11.471 256.191C11.6561 261.306 10.6618 260.344 11.204 265.309C11.419 267.121 11.8674 263.545 11.9602 265.498C12.2112 270.321 11.5507 274.781 12.4201 281.216C12.6407 282.773 13.1715 283.197 13.6538 285.927C14.0229 288.675 16.2888 300.105 15.9484 294.659C16.4386 298.32 16.9705 300.394 17.6831 302.642C18.319 304.582 19.1424 306.656 20.7908 310.021C21.672 311.785 22.2233 314.463 24.8292 317.974C25.7216 319.156 26.2823 318.707 27.5757 320.506C30.5628 324.597 33.0578 328.826 37.4519 333.793C44.7709 342.034 53.4157 350.102 61.5018 358.634C62.4734 359.658 63.4699 360.692 64.4562 361.707C66.9035 364.195 65.7552 364.126 69.4632 367.643C70.0045 368.167 74.9706 371.858 77.6154 374.222C79.1617 375.673 87.357 383.137 89.0999 384.56C91.9374 386.939 92.8979 386.795 94.3944 388.167C98.7454 392.122 94.4003 390.031 100.843 393.262C102.191 395.313 105.512 397.764 105.98 399.341C108.519 399.95 110.37 402.605 114.257 405.101C114.293 405.124 114.329 405.146 114.365 405.169C118.316 407.675 122.622 408.252 122.229 410.709C124.143 411.784 131.97 416.793 133.278 417.653C137.113 420.218 134.739 419.31 137.648 421.228C138.162 421.564 137.867 420.858 141.088 423.119C143.172 424.648 158.921 435.131 159.864 435.742C170.361 443.249 153.719 432.311 151.176 431.1C150.832 430.729 150.488 430.357 150.119 429.969C145.491 426.639 147.658 429.232 149.689 430.848C151.722 432.469 155.992 434.766 157.629 436.194C158.445 436.906 157.263 437.503 154.623 435.617C157.336 437.804 153.167 435.527 154.137 436.552C155.179 437.715 168.318 446.189 168.741 445.662C166.272 444.111 163.186 442.196 160.715 440.586C158.072 437.586 169.853 440.816 178.237 447.505C183.23 451.454 176.565 448.412 182.716 451.69C184.137 452.435 186.21 453.496 189.266 454.946C186.959 453.662 185.027 452.475 182.971 451.244C182.847 451.17 182.721 451.094 182.595 451.019C182.634 450.823 182.834 450.826 183.138 450.953C184.174 451.394 186.381 453.191 187.918 453.798C188.877 454.184 183.64 450.636 188.514 453.101C192.098 456.336 195.834 457.096 202.945 460.092C200.884 459.466 198.815 458.763 196.765 458.015C208.468 464.34 180.253 451.709 203.676 462.786C200.766 461.679 197.93 460.396 195.074 459.07C196.271 460.126 193.502 460.182 194.632 461.025C197.595 463.247 202.731 465.035 206.925 466.516C208.762 467.164 207.512 467.099 207.665 467.154C210.204 468.018 209.786 467.362 212.04 467.986C214.089 468.565 218.926 469.977 221.973 470.712C223.129 470.999 224.027 471.205 224.403 471.265C227.908 471.816 222.314 469.704 222.667 469.691C224.969 469.693 229.408 470.927 229.285 470.267C227.417 469.998 224.959 469.572 222.322 469.04C209.36 466.63 193.128 459.83 215.803 466.238C208.56 463.14 211.036 462.752 221.897 465.079C222.328 465.166 222.726 465.247 223.098 465.323C230.507 466.788 225.258 466.286 229.707 467.725C230.297 467.974 242.655 470.262 243.364 469.865C242.72 470.783 246.676 472.209 243.802 472.854C243.382 472.959 238.242 472.145 239.918 473.225C240.75 473.771 243.22 475.029 242.73 475.492C243.844 475.277 245.017 475.018 246.145 474.778C253.921 475.645 254.983 476.101 259.19 477.194C259.015 476.889 255.196 475.34 261.137 476.242C261.441 476.287 261.668 476.75 264.696 477.198C265.677 477.341 266.529 477.463 267.259 477.573C271.077 478.135 271.348 478.415 267.288 479.216C280.142 479.266 282.891 480.748 296.083 480.211C293.44 478.598 288.842 479.216 276.779 479.097C276.271 478.689 276.044 478.297 275.524 477.883C291.474 479.265 283.612 478.934 292.658 478.187C294.881 478.028 306.674 477.851 302.7 476.885C301.766 476.679 294.458 476.873 295.291 476.44C295.449 476.385 304.32 475.942 305.101 475.989C314.975 476.746 297.476 478.848 324.514 476.503C325.253 476.429 325.487 475.935 326.929 475.746C329.34 475.428 329.668 475.814 331.408 475.664C331.633 475.645 331.881 475.616 332.162 475.574C334.602 475.217 337.895 474.149 341.631 474.431C346.879 474.809 338.812 476.382 331.532 477.001C329.33 477.19 327.232 477.294 325.576 477.279C324.909 477.728 327.401 477.835 331.595 477.673C344.65 477.316 374.023 473.348 376.343 472.812C389.818 470.186 367.296 473.904 366.063 473.559C365.553 473.433 365.474 471.023 359.965 473.324C358.33 474.007 365.489 473.683 361.298 474.493C357.107 475.296 358.686 474.372 358.374 474.363C357.301 474.332 352.843 475.151 352.24 475.12C343.09 474.651 343.637 472.299 355.934 474.235C361.006 472.822 348.993 473.081 355.349 471.764C363.065 470.158 368.893 470.436 369.881 470.349C381.695 469.231 367.947 469.643 382.33 467.997C390.339 467.035 370.571 470.922 388.747 467.957C403.943 465.342 395.627 466.144 396.521 464.715C396.734 464.375 404.969 462.588 393.687 464.657C393.424 465.037 392.893 465.569 392.224 465.99C389.403 466.217 384.508 465.319 383.029 465.489C375.782 466.327 376.251 467.112 371.851 466.729C375.05 467.387 370.008 467.442 368.181 467.93C361.396 469.719 370.492 468.868 354.839 469.769C356.926 470.032 358.821 470.303 360.847 470.56C358.987 470.822 357.124 471.079 355.262 471.329C352.337 470.553 342.468 471.853 351.286 469.652C340.49 470.612 336.154 471.25 333.877 472.376C333.544 472.541 332.48 472.715 331.148 472.872C330.757 472.918 330.344 472.962 329.918 473.004C330.301 473.221 330.837 473.948 330.543 474.07C327.928 475.153 323.616 474.061 324.999 473.394C323.669 473.478 322.6 473.531 322.229 473.546C319.865 473.644 324.453 472.787 322.524 472.768C321.9 472.772 315.244 473.353 315.099 473.149C314.219 471.853 325.208 472.31 303.215 472.639C302.718 473.866 312.934 473.112 310.375 474.489C307.622 475.997 301.77 474.417 300.565 476.096C300.087 475.838 299.875 475.617 299.465 475.319C290.532 476.241 290.403 474.783 287.686 474.484C282.411 474.028 258.15 472.822 279.901 475.028C276.706 475.05 273.438 474.954 270.254 474.867C269.906 473.349 270.454 473.161 267.578 472.935C265.699 472.78 262.348 472.624 256.362 471.878C253.022 471.452 252.072 470.253 248.647 471.135C249.24 469.966 239.321 469.387 238.429 469.054C232.743 467.244 254.618 468.966 257.228 471.276C261.014 470.764 260.894 471.912 265.052 472.087C266.034 472.125 266.873 472.149 267.631 472.17C271.498 472.26 273.039 472.333 278.973 473.262C283.235 472.682 272.296 472.29 267.667 471.644C265.438 471.356 264.667 471.116 267.712 470.994C268.795 470.947 270.37 470.911 272.531 470.864C280.619 470.796 303.69 470.791 330.666 467.694C361.347 464.371 396.95 458.46 420.355 453.278C429.4 451.294 436.628 449.44 441.258 448.188C456.803 443.985 469.647 439.508 481.164 434.661C502.835 425.679 516.186 412.535 525.627 388.893C526.788 386.05 527.912 382.979 528.992 379.793C530.835 375.834 539.115 342.733 538.665 349.903C538.661 350.949 535.569 365.374 539.694 353.362C538.466 355.711 539.811 348.382 539.873 347.756C541.46 333.447 539.566 341.496 543.698 319.444C543.701 319.428 543.704 319.413 543.706 319.398ZM561.053 253.354C561.08 254.729 561.091 255.966 561.098 257.13C560.799 281.602 561.861 261.675 563.799 267.695C563.871 264.167 563.887 260.623 563.844 257.093C563.839 256.724 563.834 256.357 563.828 255.994C563.788 256.359 563.747 256.726 563.706 257.095C563.63 257.741 563.553 258.414 563.474 259.065C563.474 259.07 563.474 259.074 563.474 259.078C563.203 258.43 562.93 257.754 562.655 257.109C562.13 255.844 561.598 254.607 561.053 253.354ZM179.525 0.589968C180.693 0.385531 181.891 0.185378 183.166 -5.72205e-06C186.039 0.251105 188.849 0.51403 191.719 0.794784C192.784 0.899914 193.874 1.00458 194.962 1.10801C194.489 1.26027 194.009 1.41398 193.535 1.56564C192.924 1.51909 192.277 1.46935 191.671 1.42191C187.63 1.1063 183.596 0.819543 179.525 0.589968ZM321.43 477.912C315.78 477.554 316.382 478.903 308.9 478.684C309.867 479.643 310.929 480.571 311.955 481.51C317.641 481.025 318.908 480.554 325.087 480.308C324.35 480.045 323.583 479.78 322.857 479.511C321.846 479.66 320.748 479.821 319.766 479.954C318.121 479.178 327.933 478.284 321.449 477.909C321.443 477.91 321.436 477.911 321.43 477.912ZM263.903 478.584C260.885 478.275 249.034 476.542 247.367 476.702C241.651 477.594 275.493 480.159 250.487 478.861C250.578 479.071 250.442 479.25 250.42 479.445C254.957 480.038 259.493 480.534 264.082 480.942C263.897 480.144 264.119 479.388 263.903 478.584ZM547.423 361.057C546.363 365.558 540.429 387.059 543.421 380.389C544.37 378.415 545.947 368.493 546.93 364.868C547.586 362.52 547.581 365.341 548.535 360.611C548.184 360.739 547.818 360.784 547.422 361.07C547.422 361.066 547.422 361.062 547.423 361.057ZM545.541 351.653C544.563 356.317 543.535 361.039 542.403 365.71C544.11 362.538 545.291 355.714 546.472 355.585C546.24 356.886 546.007 358.17 545.765 359.468C545.279 360.381 544.791 361.29 544.304 362.18C543.828 366.328 544.811 364.006 542.547 371.373C545.427 367.364 546.689 366.73 548.162 353.481C548.462 356.13 551.987 354.536 551.522 346.887C551.438 345.461 549.905 350.991 549.822 351.036C548.854 351.712 549.082 348.51 548.143 349.261C547.722 349.598 546.929 352.984 546.349 353.381C546.074 353.558 546.202 350.199 545.541 351.653ZM551.558 343.247C551.706 344.803 553.911 340.077 554.561 335.697C555.566 328.878 552.39 339.308 551.558 343.247ZM179.498 0.589403C179.507 0.589591 179.516 0.589779 179.525 0.589968C179.52 0.590736 179.516 0.591505 179.511 0.592274C179.507 0.591317 179.503 0.59036 179.498 0.589403ZM279.467 479.996C275.88 480.302 270.594 479.947 270.947 480.611C269.664 480.443 268.369 480.268 267.087 480.086C266.636 480.022 266.188 479.958 265.742 479.892C265.744 480.087 265.763 480.284 265.765 480.477C266.193 480.518 266.622 480.558 267.051 480.597C271.842 481.038 276.641 481.38 281.459 481.614C280.817 481.078 280.219 480.54 279.467 479.996ZM223.042 473.051C222.452 472.925 221.952 472.824 221.548 472.748C217.518 471.983 221.697 473.649 220.332 473.752C218.83 473.899 213.08 472.16 213.613 472.9C216.097 473.553 218.635 474.134 221.146 474.673C222.54 474.973 223.935 475.261 225.318 475.537C224.426 474.689 223.846 473.886 223.03 473.049C223.034 473.05 223.038 473.05 223.042 473.051ZM509.89 142.009C510.047 142.255 510.187 142.482 510.314 142.692C512.089 145.685 511.088 145.085 516.236 151.533C516.232 151.527 516.229 151.522 516.225 151.516C514.62 148.682 512.774 145.56 510.744 142.393C507.548 137.401 503.865 132.301 500.036 128.031C503.033 132.946 506.089 136.069 509.89 142.009ZM337.053 478.507C338.276 478.021 334.684 478.07 331.657 478.334C330.187 478.463 328.881 478.64 328.263 478.855C326.468 479.483 328.892 479.645 331.759 479.431C333.729 479.285 335.916 478.955 337.053 478.507ZM360.722 46.7839C353.919 45.6449 364.863 52.2883 377.282 57.0206C378.362 57.4251 370.747 53.4486 373.195 54.194C373.444 54.2682 377.724 56.2277 378.879 56.5023C380.036 56.7746 379.139 55.7878 380.971 56.3728C384.19 57.3984 390.778 61.2197 393.262 61.82C393.597 61.8986 389.623 59.2759 389.368 59.1312C385.16 56.7178 380.532 55.6419 379.852 55.3417C376.337 53.7914 377.163 53.3712 376.344 52.8163C374.804 51.7741 371.723 50.7565 371.525 50.6439C366.448 47.6977 378.563 53.2682 380.305 53.7862C385.008 55.148 381.204 52.6678 391.949 57.171C392.973 57.6002 404.969 63.2245 390.165 55.4589C420.618 67.7723 375.633 47.5896 370.506 45.958C368.179 45.1228 371.318 47.2597 369.824 46.9422C366.415 46.2147 361.031 44.021 361.11 45.1498C361.302 47.5262 368.842 49.297 373.497 51.7646C372.806 51.9587 372.433 52.2814 371.319 52.2774C373.006 52.353 361.223 46.848 360.724 46.7801C360.723 46.7814 360.723 46.7827 360.722 46.7839ZM436.575 80.1784C442.732 84.2942 442.942 82.8781 448.397 86.9938C454.156 89.0735 443.957 83.02 442.772 82.3413C437.433 78.9992 438.185 77.936 432.307 75.2691C433.912 76.9834 435.114 78.5072 436.575 80.1784ZM379.212 51.7062C383.977 53.1124 375.938 49.506 375.663 49.2492C372.677 46.3831 396.62 57.506 379.212 51.7062ZM536.5 387.885C535.582 390.215 536.745 388.967 536.125 391.104C535.996 391.542 535.751 392.184 535.451 392.898C534.277 395.763 531.976 400.038 532.322 400.027C532.829 400.084 539.459 387.51 533.897 400.61C534.307 400.269 534.39 400.489 534.674 400.364C535.698 398.183 536.654 395.992 537.569 393.762C538.15 392.344 538.717 390.888 539.248 389.465C538.285 390.728 537.267 392.025 536.272 393.233C535.866 393.73 535.464 394.215 535.07 394.685C535.187 393.98 535.375 393.408 535.579 392.95C536.002 392.002 536.506 391.551 536.535 391.478C536.534 391.477 536.534 391.477 536.533 391.477C537.969 387.679 538.497 382.591 536.5 387.885ZM541.146 195.639C539.367 195.738 543.759 200.096 545.053 202.177C546.361 204.253 547.33 207.515 547.383 206.075C546.053 202.325 541.349 195.615 541.144 195.64C541.144 195.639 541.145 195.639 541.146 195.639ZM470.328 102.076C475.399 105.7 474.974 104.713 480.335 110.199C480.382 109.71 480.434 109.216 480.473 108.73C476.024 104.734 475.529 105.726 470.711 101.349C470.588 101.24 470.463 101.128 470.335 101.012C469.471 100.244 471.999 101.037 467.683 98.0789C468.569 99.3396 469.419 100.657 470.241 101.939C470.27 101.985 470.299 102.031 470.328 102.076ZM493.745 122.462C488.888 117.076 482.775 115.103 492.617 123.901C494.043 125.232 497.308 126.557 493.745 122.462ZM552.583 324.554C550.498 335.134 552.752 325.556 553.942 321.262C554.084 320.755 554.212 320.322 554.319 320.005C554.248 320.448 554.179 320.877 554.111 321.292C550.993 339.378 552.712 329.497 554.638 321.386C555.413 318.08 556.18 315.042 556.756 314.327C556.841 310.831 556.674 304.315 555.391 311.356C554.835 314.284 555.468 313.283 555.441 313.459C554.691 317.662 554.102 318.123 553.329 321.153C553.105 322.019 552.86 323.112 552.583 324.554ZM425.189 74.2808C425.608 74.4685 425.221 73.6566 426.566 74.2231C427.892 74.7785 430.649 76.6447 431.089 76.4997C431.537 76.3453 425.789 73.0688 423.878 72.3885C421.968 71.7027 421.428 72.6033 425.189 74.2808ZM464.256 99.1958C469.331 102.518 462.614 94.9466 461.46 94.223C451.79 87.7115 465.03 98.8027 464.256 99.1958ZM553.226 296.486C552.565 310.907 555.685 300.717 557.567 291.704C557.46 290.478 557.348 289.234 557.228 288.035C558.041 293.579 558.649 303.311 559.128 281.878C558.016 293.531 558.353 283.727 558.278 283.656C556.046 282.231 555.655 299.466 553.227 296.473C553.227 296.478 553.226 296.482 553.226 296.486ZM407.886 65.0866C402.194 62.3232 387.117 55.798 393.622 59.9755C398.383 61.6476 403.14 63.3499 407.886 65.0866ZM419.999 459.071C414.84 459.526 410.212 460.443 403.989 461.619C409.757 461.447 406.088 462.228 404.234 462.783C401.418 463.625 408.375 462.326 408.401 462.373C408.427 463.205 404.018 464.2 414.113 462.233C411.681 463.006 409.255 463.765 406.811 464.51C414.53 463.104 416.45 463.255 421.471 462.894C418.402 462.533 419.556 462.28 422.13 461.701C423.843 461.315 426.154 460.782 428.326 459.968C430.626 459.101 424.956 458.924 421.561 458.998C420.94 459.012 420.391 459.038 419.98 459.075C419.987 459.073 419.993 459.072 419.999 459.071ZM551.034 311.202C551.105 312.704 551.285 314.107 551.385 315.58C551.166 317.128 550.932 318.68 550.692 320.229C550.464 320.345 550.233 320.44 550.005 320.563C549.945 320.595 549.886 320.63 549.827 320.667C549.391 322.681 549.884 321.956 549.809 322.566C549.807 322.565 549.806 322.565 549.805 322.565C548.682 331.307 547.892 334.844 545.669 341.413C546.44 341.581 547.212 341.748 547.983 341.916C548.24 340.38 548.495 338.828 548.74 337.291C548.494 336.395 548.245 335.499 547.994 334.605C548.582 332.893 549.157 331.195 549.729 329.474C549.853 328.033 550.018 326.302 550.098 325.051C553.584 318.398 549.105 334.156 549.922 334.469C550.321 334.623 552.03 326.66 552.889 321.075C553.26 318.72 553.485 316.795 553.479 316.084C553.47 315.74 551.296 318.983 553.08 313.182C553.345 312.279 556.963 312.462 554.977 305.615C554.689 304.647 552.097 307.562 551.034 311.202ZM537.395 368.858C542.29 360.752 529.941 392.291 536.15 378.982C535.842 383.268 536.079 382.545 538.262 378.812C538.459 378.478 537.828 381.359 537.939 381.128C539.673 377.53 540.765 372.855 541.664 373.088C541.919 372.048 542.159 371.057 542.404 370.015C540.331 374.061 541.733 367.082 541.71 364.246C541.71 362.952 540.865 365.696 540.855 364.606C540.859 364.199 542.081 360.403 541.821 360.165C541.229 359.665 539.714 361.854 538.102 365.79C538.102 365.79 538.101 365.79 538.1 365.789C537.862 366.826 537.64 367.824 537.395 368.858ZM527.129 181.13C527.42 179.151 524.564 173.504 531.18 183.672C531.097 183.029 531.001 182.371 530.914 181.726C529.872 179.969 528.852 178.267 527.777 176.489C521.45 173.012 519.039 161.212 520.617 168.767C520.79 169.591 523.573 173.553 520.43 169.882C520.433 169.888 520.435 169.894 520.438 169.9C524.1 175.463 524.909 175.967 527.129 181.13ZM548.625 220.135C553.393 227.65 550.641 219.894 547.18 213.169C544.622 208.141 541.852 203.706 542.788 206.167C542.889 206.433 544.865 210.01 546.5 213.494C548.167 217.013 549.452 220.431 548.625 220.135ZM480.606 118.533C485.318 123.372 486.595 122.832 486.525 121.957C486.448 121.086 482.782 118.012 482.398 117.538C481.175 115.932 484.299 118.82 482.722 116.714C482.29 115.945 473.753 107.449 473.216 107.217C470.657 105.513 473.315 109.285 472.556 108.825C470.832 107.766 469.027 106.015 467.739 105.082C467.209 104.696 466.77 104.449 466.468 104.445C465.54 104.431 466.145 105 467.223 105.73C468.716 106.736 471.1 108.088 471.643 108.532C474.46 110.844 473.717 111.21 475.633 113.129C477.533 115.061 478.989 116.094 480.652 117.812C481.201 118.383 480.366 118.288 480.606 118.533ZM497.753 133.543C492.518 128.534 502.22 143.061 503.495 144.689C507.627 149.237 500.386 135.904 497.753 133.543ZM546.398 347.393C547.097 340.804 543.082 355.607 542.232 359.904C542.773 359.213 546.183 349.675 546.398 347.393ZM553.623 292.512C553.277 298.535 555.856 290.752 556.174 285.691C555.222 282.652 555.274 285.45 554.96 288.73C554.634 292.005 553.852 287.813 553.623 292.512ZM420.169 76.3573C421.348 76.8736 440.397 85.8672 429.896 79.8534C429.262 79.4751 421.11 75.3793 416.99 73.4984C415.861 72.9776 415.031 72.6118 414.793 72.5379C413.422 72.1151 414.734 73.1181 416.596 74.2917C417.736 75.0063 419.047 75.7704 420.169 76.3573ZM553.36 263.657C554.342 266.829 554.248 269.983 555.486 267.07C555.486 267.066 555.486 267.061 555.486 267.057C555.672 275.155 553.172 275.402 553.159 277.134C553.024 283.194 555.046 277.543 555.392 281.394C555.337 272.475 556.36 275.091 556.625 268.307C556.689 266.783 556.037 260.693 555.588 259.814C555.153 258.935 553.879 262.029 553.36 263.657ZM393.303 63.6568C399.571 67.0074 406.137 68.3382 397.341 63.8918C393.038 61.7308 389.47 61.6177 393.303 63.6568ZM254.201 471.941C255.231 472.48 256.292 473.015 257.407 473.548C254.793 473.397 252.18 473.219 249.568 473.012C251.638 473.124 253.711 473.221 255.796 473.3C250.926 472.641 248.804 471.599 254.188 471.939C254.192 471.94 254.197 471.94 254.201 471.941ZM101.292 395.185C99.8117 393.524 95.618 391.845 95.9906 392.263C98.7823 395.405 103.363 397.503 101.292 395.185ZM540.391 355.933C538.214 363.759 541.621 358.88 542.949 354.043C541.836 356.919 541.595 351.479 540.391 355.933ZM151.176 431.1C151.691 431.654 152.203 432.206 152.796 432.81C150.775 431.181 150.495 430.791 151.176 431.1ZM422.315 79.4913C423.37 80.1852 431.432 84.5488 432.603 84.9855C435.068 85.8478 429.315 81.4345 425.375 79.8145C424.948 79.6333 421.285 78.7871 422.332 79.5C422.326 79.4971 422.321 79.4942 422.315 79.4913ZM243.391 469.812C243.403 469.834 243.392 469.851 243.364 469.865C243.376 469.848 243.376 469.829 243.391 469.812ZM11.929 249.046C11.895 249.093 11.8622 249.118 11.8319 249.111C11.8626 249.093 11.8956 249.057 11.929 249.046ZM474.621 115.97C475.486 119.393 480.991 123.453 477.858 118.966C477.683 118.711 475.158 116.455 474.621 115.97Z" fill="#F9EE21" fill-opacity="0.88"/>
</svg>
