<svg width="1365" height="164" viewBox="0 0 1365 164" fill="none" xmlns="http://www.w3.org/2000/svg">
<path d="M0.400024 22.67C14.0241 22.67 27.6482 22.67 40.4308 22.67C53.2133 22.67 64.7414 22.67 128.583 38.1556C192.424 53.6412 308.229 84.6124 420.025 108.441C531.82 132.27 636.097 148.018 725.71 156.131C815.323 164.243 887.111 164.243 940.861 162.406C994.612 160.569 1028.15 156.894 1079.48 139.778C1130.82 122.662 1198.94 92.216 1241.63 71.8071C1300.39 43.7156 1317.27 30.1145 1322.54 25.3583C1329.91 19.5522 1341.57 13.6825 1353.99 8.39336C1359.08 5.72891 1361.7 3.10424 1364.4 0.400024" stroke="white" stroke-width="0.8" stroke-linecap="round"/>
</svg>
