<svg width="1395" height="143" viewBox="0 0 1395 143" fill="none" xmlns="http://www.w3.org/2000/svg">
<path d="M1394.4 37.4732C1376.59 36.4396 1358.77 35.406 1308.2 29.1887C1257.64 22.9714 1174.85 11.6017 1031.61 5.74459C888.368 -0.112517 687.175 -0.112517 580.649 0.921095C474.122 1.95471 468.358 4.02193 461.46 5.86206C454.561 7.7022 446.702 9.25261 435.58 10.8265C424.459 12.4004 410.312 13.9508 361.371 26.636C312.431 39.3212 229.124 63.0942 184.899 76.116C137.831 89.9747 129.591 96.9369 119.811 104.243C106.034 114.534 73.593 124.077 54.1833 127.773C33.2336 133.004 22.6913 135.071 11.2917 140.294C8.37029 141.351 5.22666 141.868 0.400024 142.4" stroke="white" stroke-width="0.8" stroke-linecap="round"/>
</svg>
