<svg xmlns="http://www.w3.org/2000/svg" width="565" height="485" fill="none" viewBox="0 0 565 485"><path fill="#f9ee21" fill-opacity=".88" d="M543.706 319.398c3.532-20.019 5.33-40.998 5.027-62.098.239-14.839-3.204-26.583-9.904-40.134-11.386-23.178-24.985-46.114-39.222-67.038-4.651-6.739-9.459-13.184-14.56-19.17-5.298-6.103-4.61-5.994-6.108-7.699-4.194-4.574-7.435-6.56-10.835-9.532a179 179 0 0 0-4.347-3.643c-15.136-12.395-31.919-21.33-49.797-30.488l-1.076-.547c-20.701-10.337-10.117-7.121-17.204-10.985-13.936-7.436-2.75.327-8.589-1.81-16.33-7.688-32.928-15.254-49.546-22.308a765 765 0 0 1 12.508 4.516c-7.239-3.12-17.552-7.71-5.112-3.24-2.631-1.275-5.078-2.493-7.797-3.772-.86.376-9.527-2.909-13.528-4.098-.959-.29-1.644-.465-1.905-.462-.567.009.377.474 1.687 1.03 1.789.761 4.261 1.698 4.223 1.71-.16.091-1.835-.498-4.327-1.438-8.429-3.32-26.623-9.954-28.335-10.409-5.746-1.91-.361-1.412-5.34-2.782-8.618-2.219-3.354 1.261-14.384-4.271-4.872-.134-5.163-.7-11.112-1.883-.784-.15-.27.483-.618.434-9.095-1.178-1.987-.955-2.023-1.016-.424-.67-4.611-1.425-8.119-1.913-1.958-.277-3.703-.483-4.441-.614-20.868-3.646-37.536-5.27-57.802-7.121a520 520 0 0 0-15.199-1.213c-6.013-.485-24.282-.578-30.039-.3-5.687.148-2.67-.672-5.688-.771-3.803 1.65-7.441 2.25-14.342 3.374a3 3 0 0 1-.183.035c-1.605.118-3.386.212-5.377.284-3.867 1.653-3.464.707-11.147 1.801-3.005.41-7.006 1.192-11.299 1.665l.094-.007c-4.59.752-9.683 1.313-13.482.91 7.148-.386 7.428-.898 13.398-1.842l-.059.004c.869-.093 1.856-.206 2.99-.337 1.99-.163 15.904-1.666 24.764-3.31l.1-.02c4.655-1.32 8.03-1.962 7.14-2.275-.736-.248-4.385.357-7.406 1.191l.011-.002c-2.369.39-4.416.74-4.595.714-1.798-.255.853-1.167 4.438-1.824l-.122.023a28 28 0 0 1 4.032-.853c-1.215.358-2.65.796-3.936 1.244l.082-.015-.192.045.197-.014-.079.016c11.376-1.533 3.147-3.197 12.301-1.641 1.144.228.732.616 2.568.82.363-.182-1.88-.36.016-.588 1.937-.239 5.654.274 6.175-.331.789-.93-7.265-.116-7.87-.048l-.017.017c-5.418.062 5.801-1.04 6.345-1.044 3.458-.683 1.063-1.032 6.305-1.596 2.989-.333 10.631-.094 13.421-.07 2.788.004-1.532-.536.342-.566 1.905-.03 4.191.366 6.417.367.935-.001.908-.456 1.364-.45 4.891.075 1.662.847 6.07 1.04 2.87.117 12.522-.079 5.926-.802 2.358.093 4.651.205 6.998.332.801.043 1.633.087 2.45.128-.802-.114-1.634-.225-2.434-.334-1.208-.162-2.374-.32-3.522-.497 1.321.144 2.469.23 3.539.28 3.629.166 5.938-.153 8.828.01 3.728.209 7 1.375 11.131 1.233 8.833-.307-12.894-1.475-15.532-1.823-1.034-.143 3.01-.582 3.643-.558 2.745.105 5.968.858 8.093.991 7.61.476 12.339.157 19.628.682 8.631.632 18.003 1.482 27.566 2.751 17.974 2.279 36.476 6.747 51.252 11.576 8.456 2.732 13.179 5.332 16.887 6.681a184 184 0 0 0 5.06 1.785c4.546 1.528 6.669 1.926 12.385 4.198 11.136 4.413 26.352 11.604 35.388 15.782 6.266 2.88 12.203 4.878 13.847 5.614 9.884 4.42 20.627 9.424 31.09 14.588 13.644 6.722 26.856 13.825 36.991 20.415 8.43 5.488 11.715 9.122 13.372 10.34a376 376 0 0 0 2.116 1.6c4.627 3.523 4.088 2.405 8.892 6.711 2.901 2.67 3 3.648 3.365 4.019 3.192 3.365 4.377 3.484 6.888 6.102 7.802 8.235 14.365 17.047 20.437 26.013 5.064 7.498 9.815 15.12 14.538 22.858.751 1.235.386 1.307.888 2.095 2.156 3.386 1.662 1.504 3.853 5.084 4.543 7.453 8.916 15.279 13.252 23.481.434.821.228 1.378 1.218 3.248.982 1.861 2.106 3.083 3.593 6.058a167 167 0 0 1 3.072 6.521c2.576 5.813 4.982 11.82 7.109 18.602.48 1.544 1.57 3.349 2.13 5.776 1.678 6.729 1.832 16.313 1.757 22.496-.003.872-.004 1.714-.002 2.469.028 20.278-1.261 38.962-4.3 57.818a66 66 0 0 1-.986 4.798c-.561 2.325-1.122 4.296-1.391 5.688-1.004 5.116.209 1.345-.812 6.53-4.175 20.287-8.81 40.376-16.724 60.42-8.047 21.7-25.843 42.538-48.02 51.762q-2.488 1.151-5.124 2.253c-14.941 6.318-32.625 12.093-47.173 15.524-6.745 1.589-8.109 1.208-12.875 2.258-1.378.299-2.533.567-3.606.829-5.532 1.343-7.728 2.405-15.267 3.886-7.174 1.398-15.552 1.973-23.028 3.193-7.479 1.211-10.82 2.529-19.438 3.806-7.098 1.047-17.096 1.906-24.87 2.781q-4.368.497-8.734.937c-21.517 2.176-43.385 3.232-65.171 1.764-15.522-1.008-30.975-2.974-46.308-6.147-15.012-2.639-30.194-9.598-42.893-17.077-14.754-8.559-28.827-17.845-42.774-27.537-8.772-6.116-17.876-12.614-26.933-19.462-12.427-9.409-24.887-19.276-36.222-29.676-1.828-1.701 1.535.249-4.549-4.93-3.044-2.649-7.617-5.893-13.992-12.365a267 267 0 0 1-1.175-1.21c-15.637-17.133-35.755-32.768-45.057-59.39-7.127-24.021-8.548-49.345-5.212-73.793 1.592-11.633 3.448-23.601 7.082-35.189 3.585-11.607 9.031-22.863 16.137-32.919 16.808-23.561 33.734-48.147 58.35-66.376 15.733-11.55 32.811-22.154 50.89-29.343 25.434-10.085 50.074-19.049 74.984-24.438 4.311-.716 2.229 1.79.306 2.956-2.147.237-4.135.407-6.372.701-1.812 3.241-1.561 2.407-11.245 5.757-5.94 2.081-.854 1.29-3.889 2.755-3.949 1.857-22.445 10.464-19.397 7.522-1.087.736-2.048 1.41-3.093 2.126-9.314 3.914-18.364 7.897-27.383 11.977a190 190 0 0 0-12.114 6.022c-2.168 1.183-2.037 1.688-4.246 2.944-5.915 3.407-10.759 5.869-16.693 9.699-3.218 2.102-3.337 2.873-7.523 5.655-3.548 2.384-4.336 2.234-7.65 4.999a39 39 0 0 0-1.945 1.756c4.007-1.944-11.79 9.49-16.478 14.842-.742.706-5.863 7.34-8.852 10.637-3.027 3.261-7.865 8.104-11.923 13.757-1.903 2.649-2.57 4.642-4.676 7.453-1.48 1.98-3.771 3.982-5.667 6.484-1.738 2.285-4.896 7.311-5.98 8.946q-.15.225-.24.353c-2.46 3.545-.084-.604-1.791 1.812-8.35 11.643-14.528 27.358-16.88 41.521-.309 1.736.67-.555.643-.321-1.582 11.863-1.039 5.481-2.053 8.606-.384 1.231-1.13 5.72-1.747 10.718-.947 7.193-.979 15.379-.44 15.484-1.164.664-.419 5.77-.36 7.08.185 5.115-.81 4.153-.267 9.118.215 1.812.663-1.764.756.189.251 4.823-.41 9.283.46 15.718.22 1.557.752 1.981 1.234 4.711.369 2.748 2.635 14.178 2.294 8.732.49 3.661 1.023 5.735 1.735 7.983.636 1.94 1.46 4.014 3.108 7.379.881 1.764 1.432 4.442 4.038 7.953.893 1.182 1.453.733 2.747 2.532 2.987 4.091 5.482 8.32 9.876 13.287 7.319 8.241 15.964 16.309 24.05 24.841a360 360 0 0 0 2.954 3.073c2.447 2.488 1.3 2.419 5.007 5.936.541.524 5.508 4.215 8.152 6.579 1.547 1.451 9.742 8.915 11.485 10.338 2.837 2.379 3.798 2.235 5.294 3.607 4.351 3.955.006 1.864 6.449 5.095 1.348 2.051 4.669 4.502 5.137 6.079 2.539.609 4.39 3.264 8.277 5.76l.108.068c3.951 2.506 8.257 3.083 7.864 5.54 1.914 1.075 9.741 6.084 11.049 6.944 3.835 2.565 1.461 1.657 4.37 3.575.514.336.219-.37 3.44 1.891 2.084 1.529 17.833 12.012 18.776 12.623 10.497 7.507-6.145-3.431-8.688-4.642-.344-.371-.688-.743-1.057-1.131-4.628-3.33-2.461-.737-.43.879 2.033 1.621 6.303 3.918 7.94 5.346.816.712-.366 1.309-3.006-.577 2.713 2.187-1.456-.09-.486.935 1.042 1.163 14.181 9.637 14.604 9.11-2.469-1.551-5.555-3.466-8.026-5.076-2.643-3 9.138.23 17.522 6.919 4.993 3.949-1.672.907 4.479 4.185 1.421.745 3.494 1.806 6.55 3.256-2.307-1.284-4.239-2.471-6.295-3.702l-.376-.225c.039-.196.239-.193.543-.066 1.036.441 3.243 2.238 4.78 2.845.959.386-4.278-3.162.596-.697 3.584 3.235 7.32 3.995 14.431 6.991a119 119 0 0 1-6.18-2.077c11.703 6.325-16.512-6.306 6.911 4.771-2.91-1.107-5.746-2.39-8.602-3.716 1.197 1.056-1.572 1.112-.442 1.955 2.963 2.222 8.099 4.01 12.293 5.491 1.837.648.587.583.74.638 2.539.864 2.121.208 4.375.832 2.049.579 6.886 1.991 9.933 2.726 1.156.287 2.054.493 2.43.553 3.505.551-2.089-1.561-1.736-1.574 2.302.002 6.741 1.236 6.618.576a132 132 0 0 1-6.963-1.227c-12.962-2.41-29.194-9.21-6.519-2.802-7.243-3.098-4.767-3.486 6.094-1.159l1.201.244c7.409 1.465 2.16.963 6.609 2.402.59.249 12.948 2.537 13.657 2.14-.644.918 3.312 2.344.438 2.989-.42.105-5.56-.709-3.884.371.832.546 3.302 1.804 2.812 2.267 1.114-.215 2.287-.474 3.415-.714 7.776.867 8.838 1.323 13.045 2.416-.175-.305-3.994-1.854 1.947-.952.304.045.531.508 3.559.956.981.143 1.833.265 2.563.375 3.818.562 4.089.842.029 1.643 12.854.05 15.603 1.532 28.795.995-2.643-1.613-7.241-.995-19.304-1.114-.508-.408-.735-.8-1.255-1.214 15.95 1.382 8.088 1.051 17.134.304 2.223-.159 14.016-.336 10.042-1.302-.934-.206-8.242-.012-7.409-.445.158-.055 9.029-.498 9.81-.451 9.874.757-7.625 2.859 19.413.514.739-.074.973-.568 2.415-.757 2.411-.318 2.739.068 4.479-.082.225-.019.473-.048.754-.09 2.44-.357 5.733-1.425 9.469-1.143 5.248.378-2.819 1.951-10.099 2.57-2.202.189-4.3.293-5.956.278-.667.449 1.825.556 6.019.394 13.055-.357 42.428-4.325 44.748-4.861 13.475-2.626-9.047 1.092-10.28.747-.51-.126-.589-2.536-6.098-.235-1.635.683 5.524.359 1.333 1.169-4.191.803-2.612-.121-2.924-.13-1.073-.031-5.531.788-6.134.757-9.15-.469-8.603-2.821 3.694-.885 5.072-1.413-6.941-1.154-.585-2.471 7.716-1.606 13.544-1.328 14.532-1.415 11.814-1.118-1.934-.706 12.449-2.352 8.009-.962-11.759 2.925 6.417-.04 15.196-2.615 6.88-1.813 7.774-3.242.213-.34 8.448-2.127-2.834-.058-.263.38-.794.912-1.463 1.333-2.821.227-7.716-.671-9.195-.501-7.247.838-6.778 1.623-11.178 1.24 3.199.658-1.843.713-3.67 1.201-6.785 1.789 2.311.938-13.342 1.839 2.087.263 3.982.534 6.008.791q-2.791.394-5.585.769c-2.925-.776-12.794.524-3.976-1.677-10.796.96-15.132 1.598-17.409 2.724-.333.165-1.397.339-2.729.496-.391.046-.804.09-1.23.132.383.217.919.944.625 1.066-2.615 1.083-6.927-.009-5.544-.676-1.33.084-2.399.137-2.77.152-2.364.098 2.224-.759.295-.778-.624.004-7.28.585-7.425.381-.88-1.296 10.109-.839-11.884-.51-.497 1.227 9.719.473 7.16 1.85-2.753 1.508-8.605-.072-9.81 1.607-.478-.258-.69-.479-1.1-.777-8.933.922-9.062-.536-11.779-.835-5.275-.456-29.536-1.662-7.785.544-3.195.022-6.463-.074-9.647-.161-.348-1.518.2-1.706-2.676-1.932-1.879-.155-5.23-.311-11.216-1.057-3.34-.426-4.29-1.625-7.715-.743.593-1.169-9.326-1.748-10.218-2.081-5.686-1.81 16.189-.088 18.799 2.222 3.786-.512 3.666.636 7.824.811.982.038 1.821.062 2.579.083 3.867.09 5.408.163 11.342 1.092 4.262-.58-6.677-.972-11.306-1.618-2.229-.288-3-.528.045-.65 1.083-.047 2.658-.083 4.819-.13 8.088-.068 31.159-.073 58.135-3.17 30.681-3.323 66.284-9.234 89.689-14.416a452 452 0 0 0 20.903-5.09c15.545-4.203 28.389-8.68 39.906-13.527 21.671-8.982 35.022-22.126 44.463-45.768 1.161-2.843 2.285-5.914 3.365-9.1 1.843-3.959 10.123-37.06 9.673-29.89-.004 1.046-3.096 15.471 1.029 3.459-1.228 2.349.117-4.98.179-5.606 1.587-14.309-.307-6.26 3.825-28.312zm17.347-66.044c.027 1.375.038 2.612.045 3.776-.299 24.472.763 4.545 2.701 10.565a326 326 0 0 0 .029-11.701l-.122 1.101c-.076.646-.153 1.319-.232 1.97v.013c-.271-.648-.544-1.324-.819-1.969a241 241 0 0 0-1.602-3.755M179.525.59c1.168-.204 2.366-.405 3.641-.59a816 816 0 0 1 8.553.795c1.065.105 2.155.21 3.243.313l-1.427.458-1.864-.144A562 562 0 0 0 179.525.59M321.43 477.912c-5.65-.358-5.048.991-12.53.772.967.959 2.029 1.887 3.055 2.826 5.686-.485 6.953-.956 13.132-1.202-.737-.263-1.504-.528-2.23-.797-1.011.149-2.109.31-3.091.443-1.645-.776 8.167-1.67 1.683-2.045zm-57.527.672c-3.018-.309-14.869-2.042-16.536-1.882-5.716.892 28.126 3.457 3.12 2.159.091.21-.045.389-.067.584 4.537.593 9.073 1.089 13.662 1.497-.185-.798.037-1.554-.179-2.358m283.52-117.527c-1.06 4.501-6.994 26.002-4.002 19.332.949-1.974 2.526-11.896 3.509-15.521.656-2.348.651.473 1.605-4.257-.351.128-.717.173-1.113.459zm-1.882-9.404c-.978 4.664-2.006 9.386-3.138 14.057 1.707-3.172 2.888-9.996 4.069-10.125a501 501 0 0 1-.707 3.883c-.486.913-.974 1.822-1.461 2.712-.476 4.148.507 1.826-1.757 9.193 2.88-4.009 4.142-4.643 5.615-17.892.3 2.649 3.825 1.055 3.36-6.594-.084-1.426-1.617 4.104-1.7 4.149-.968.676-.74-2.526-1.679-1.775-.421.337-1.214 3.723-1.794 4.12-.275.177-.147-3.182-.808-1.728m6.017-8.406c.148 1.556 2.353-3.17 3.003-7.55 1.005-6.819-2.171 3.611-3.003 7.55M179.498.589l.027.001-.014.002zm99.969 479.407c-3.587.306-8.873-.049-8.52.615a361 361 0 0 1-5.205-.719c.002.195.021.392.023.585q.642.062 1.286.12c4.791.441 9.59.783 14.408 1.017-.642-.536-1.24-1.074-1.992-1.618m-56.425-6.945q-.887-.189-1.494-.303c-4.03-.765.149.901-1.216 1.004-1.502.147-7.252-1.592-6.719-.852 2.484.653 5.022 1.234 7.533 1.773 1.394.3 2.789.588 4.172.864-.892-.848-1.472-1.651-2.288-2.488zM509.89 142.009q.235.369.424.683c1.775 2.993.774 2.393 5.922 8.841l-.011-.017a196 196 0 0 0-5.481-9.123c-3.196-4.992-6.879-10.092-10.708-14.362 2.997 4.915 6.053 8.038 9.854 13.978M337.053 478.507c1.223-.486-2.369-.437-5.396-.173-1.47.129-2.776.306-3.394.521-1.795.628.629.79 3.496.576 1.97-.146 4.157-.476 5.294-.924m23.669-431.723c-6.803-1.14 4.141 5.504 16.56 10.237 1.08.404-6.535-3.572-4.087-2.827.249.074 4.529 2.034 5.684 2.308 1.157.273.26-.714 2.092-.13 3.219 1.026 9.807 4.848 12.291 5.448.335.079-3.639-2.544-3.894-2.689-4.208-2.413-8.836-3.49-9.516-3.79-3.515-1.55-2.689-1.97-3.508-2.525-1.54-1.042-4.621-2.06-4.819-2.172-5.077-2.946 7.038 2.624 8.78 3.142 4.703 1.362.899-1.118 11.644 3.385 1.024.43 13.02 6.054-1.784-1.712 30.453 12.313-14.532-7.87-19.659-9.501-2.327-.835.812 1.302-.682.984-3.409-.727-8.793-2.921-8.714-1.792.192 2.376 7.732 4.147 12.387 6.615-.691.194-1.064.516-2.178.512 1.687.076-10.096-5.429-10.595-5.497zm75.853 33.394c6.157 4.116 6.367 2.7 11.822 6.816 5.759 2.08-4.44-3.974-5.625-4.653-5.339-3.342-4.587-4.405-10.465-7.072 1.605 1.714 2.807 3.238 4.268 4.91m-57.363-28.472c4.765 1.406-3.274-2.2-3.549-2.457-2.986-2.866 20.957 8.257 3.549 2.457M536.5 387.885c-.918 2.33.245 1.082-.375 3.219-.129.438-.374 1.08-.674 1.794-1.174 2.865-3.475 7.14-3.129 7.129.507.057 7.137-12.517 1.575.583.41-.341.493-.121.777-.246a145 145 0 0 0 4.574-10.899 149 149 0 0 1-4.178 5.22 7 7 0 0 1 .509-1.735c.423-.948.927-1.399.956-1.472l-.002-.001c1.436-3.798 1.964-8.886-.033-3.592m4.646-192.246c-1.779.099 2.613 4.457 3.907 6.538 1.308 2.076 2.277 5.338 2.33 3.898-1.33-3.75-6.034-10.46-6.239-10.435zm-70.818-93.563c5.071 3.624 4.646 2.637 10.007 8.123.047-.489.099-.983.138-1.469-4.449-3.996-4.944-3.004-9.762-7.381l-.376-.337c-.864-.768 1.664.025-2.652-2.933.886 1.26 1.736 2.578 2.558 3.86zm23.417 20.386c-4.857-5.386-10.97-7.359-1.128 1.439 1.426 1.331 4.691 2.656 1.128-1.439m58.838 202.092c-2.085 10.58.169 1.002 1.359-3.292.142-.507.27-.94.377-1.257l-.208 1.287c-3.118 18.086-1.399 8.205.527.094.775-3.306 1.542-6.344 2.118-7.059.085-3.496-.082-10.012-1.365-2.971-.556 2.928.077 1.927.05 2.103-.75 4.203-1.339 4.664-2.112 7.694a56 56 0 0 0-.746 3.401M425.189 74.281c.419.188.032-.624 1.377-.058 1.326.555 4.083 2.422 4.523 2.277.448-.155-5.3-3.431-7.211-4.112-1.91-.685-2.45.215 1.311 1.893m39.067 24.915c5.075 3.322-1.642-4.25-2.796-4.973-9.67-6.511 3.57 4.58 2.796 4.973m88.97 197.29c-.661 14.421 2.459 4.231 4.341-4.782-.107-1.226-.219-2.47-.339-3.669.813 5.544 1.421 15.276 1.9-6.157-1.112 11.653-.775 1.849-.85 1.778-2.232-1.425-2.623 15.81-5.051 12.817zm-145.34-231.4c-5.692-2.763-20.769-9.288-14.264-5.11q7.143 2.507 14.264 5.11m12.113 393.985c-5.159.455-9.787 1.372-16.01 2.548 5.768-.172 2.099.609.245 1.164-2.816.842 4.141-.457 4.167-.41.026.832-4.383 1.827 5.712-.14a644 644 0 0 1-7.302 2.277c7.719-1.406 9.639-1.255 14.66-1.616-3.069-.361-1.915-.614.659-1.193 1.713-.386 4.024-.919 6.196-1.733 2.3-.867-3.37-1.044-6.765-.97a25 25 0 0 0-1.562.073m131.035-147.869c.071 1.502.251 2.905.351 4.378-.219 1.548-.453 3.1-.693 4.649-.228.116-.459.211-.687.334q-.09.048-.178.104c-.436 2.014.057 1.289-.018 1.899l-.004-.001c-1.123 8.742-1.913 12.279-4.136 18.848l2.314.503c.257-1.536.512-3.088.757-4.625q-.37-1.344-.746-2.686c.588-1.712 1.163-3.41 1.735-5.131.124-1.441.289-3.172.369-4.423 3.486-6.653-.993 9.105-.176 9.418.399.154 2.108-7.809 2.967-13.394.371-2.355.596-4.28.59-4.991-.009-.344-2.183 2.899-.399-2.902.265-.903 3.883-.72 1.897-7.567-.288-.968-2.88 1.947-3.943 5.587m-13.639 57.656c4.895-8.106-7.454 23.433-1.245 10.124-.308 4.286-.071 3.563 2.112-.17.197-.334-.434 2.547-.323 2.316 1.734-3.598 2.826-8.273 3.725-8.04.255-1.04.495-2.031.74-3.073-2.073 4.046-.671-2.933-.694-5.769 0-1.294-.845 1.45-.855.36.004-.407 1.226-4.203.966-4.441-.592-.5-2.107 1.689-3.719 5.625l-.002-.001c-.238 1.037-.46 2.035-.705 3.069M527.129 181.13c.291-1.979-2.565-7.626 4.051 2.542-.083-.643-.179-1.301-.266-1.946a709 709 0 0 0-3.137-5.237c-6.327-3.477-8.738-15.277-7.16-7.722.173.824 2.956 4.786-.187 1.115l.008.018c3.662 5.563 4.471 6.067 6.691 11.23m21.496 39.005c4.768 7.515 2.016-.241-1.445-6.966-2.558-5.028-5.328-9.463-4.392-7.002.101.266 2.077 3.843 3.712 7.327 1.667 3.519 2.952 6.937 2.125 6.641m-68.019-101.602c4.712 4.839 5.989 4.299 5.919 3.424-.077-.871-3.743-3.945-4.127-4.419-1.223-1.606 1.901 1.282.324-.824-.432-.769-8.969-9.265-9.506-9.497-2.559-1.704.099 2.068-.66 1.608-1.724-1.059-3.529-2.81-4.817-3.743-.53-.386-.969-.633-1.271-.637-.928-.014-.323.555.755 1.285 1.493 1.006 3.877 2.358 4.42 2.802 2.817 2.312 2.074 2.678 3.99 4.597 1.9 1.932 3.356 2.965 5.019 4.683.549.571-.286.476-.046.721m17.147 15.01c-5.235-5.009 4.467 9.518 5.742 11.146 4.132 4.548-3.109-8.785-5.742-11.146m48.645 213.85c.699-6.589-3.316 8.214-4.166 12.511.541-.691 3.951-10.229 4.166-12.511m7.225-54.881c-.346 6.023 2.233-1.76 2.551-6.821-.952-3.039-.9-.241-1.214 3.039-.326 3.275-1.108-.917-1.337 3.782M420.169 76.357c1.179.517 20.228 9.51 9.727 3.496-.634-.378-8.786-4.474-12.906-6.355-1.129-.52-1.959-.886-2.197-.96-1.371-.423-.059.58 1.803 1.754a56 56 0 0 0 3.573 2.065m133.191 187.3c.982 3.172.888 6.326 2.126 3.413v-.013c.186 8.098-2.314 8.345-2.327 10.077-.135 6.06 1.887.409 2.233 4.26-.055-8.919.968-6.303 1.233-13.087.064-1.524-.588-7.614-1.037-8.493-.435-.879-1.709 2.215-2.228 3.843m-160.057-200c6.268 3.35 12.834 4.681 4.038.235-4.303-2.161-7.871-2.274-4.038-.235M254.201 471.94a99 99 0 0 0 3.206 1.607 368 368 0 0 1-7.839-.536c2.07.112 4.143.209 6.228.288-4.87-.659-6.992-1.701-1.608-1.361zm-152.909-76.756c-1.48-1.661-5.674-3.34-5.301-2.922 2.791 3.142 7.372 5.24 5.301 2.922m439.099-39.252c-2.177 7.826 1.23 2.947 2.558-1.89-1.113 2.876-1.354-2.564-2.558 1.89M151.176 431.1c.515.554 1.027 1.106 1.62 1.71-2.021-1.629-2.301-2.019-1.62-1.71M422.315 79.491c1.055.694 9.117 5.058 10.288 5.495 2.465.862-3.288-3.552-7.228-5.172-.427-.18-4.09-1.027-3.043-.314zM243.391 469.812q.016.032-.027.053c.012-.017.012-.036.027-.053M11.929 249.046c-.034.047-.067.072-.097.065.03-.018.064-.054.097-.065M474.621 115.97c.865 3.423 6.37 7.483 3.237 2.996-.175-.255-2.7-2.511-3.237-2.996"/></svg>