<svg width="1413" height="95" viewBox="0 0 1413 95" fill="none" xmlns="http://www.w3.org/2000/svg">
<path d="M0.400024 24.8525C97.0546 86.3366 119.882 94.6502 127.258 94.3943C135.797 94.0981 149.42 81.8385 172.375 57.8669C185.339 44.3295 204.91 31.336 220.122 30.6147C235.335 29.8934 246.604 42.6897 263.959 51.585C281.315 60.4804 304.415 65.087 327.021 62.5976C349.627 60.1081 371.037 50.383 399.252 40.7664C427.466 31.1498 461.836 21.9366 481.795 17.4463C505.922 12.0184 522.738 23.2084 557.85 41.5187C579.828 52.9801 615.499 59.3171 651.517 58.9371C687.534 58.557 724.157 48.8319 755.419 38.9594C786.681 29.0869 811.472 19.3617 830.441 13.0722C849.41 6.78264 861.805 4.22339 871.008 2.90499C885.734 0.795328 909.117 22.0606 938.398 55.641C954.908 74.5747 970.668 83.2344 988.834 89.4387C997.672 92.4569 1007 91.5481 1018.12 86.4296C1074.16 60.6463 1090.25 27.9547 1095.92 30.514C1124.69 43.502 1147.65 71.3533 1171.27 73.2068C1179.71 73.8696 1190.78 66.8242 1208.42 55.2378C1251.28 27.0831 1278.05 1.63312 1292.19 0.539655C1323.5 -1.8808 1343.46 27.9547 1358.51 26.931C1384.14 25.1874 1394.17 12.9714 1398.43 12.1881C1400.43 12.4285 1402.12 13.9641 1403.56 16.0347C1404.99 18.1054 1406.12 20.6647 1412.4 24.8525" stroke="white" stroke-width="0.8" stroke-linecap="round"/>
</svg>
