<svg width="381" height="38" viewBox="0 0 381 38" fill="none" xmlns="http://www.w3.org/2000/svg">
<path d="M0.25 20.794C5.73889 24.8535 17.7498 34.0216 20.7412 33.9463C22.56 33.9006 24.0472 32.2108 25.6911 30.1582C26.3351 29.3542 27.0386 29.4604 27.8629 29.9872C32.6375 33.039 38.5465 36.5942 46.3329 36.5371C57.8983 36.4525 62.3796 25.6609 63.6485 25.4328C67.6259 24.7179 74.4713 33.8391 83.5378 36.9043C87.4502 38.227 94.3786 35.7093 108.68 30.1172C118.359 26.3328 132.468 19.4074 140.318 16.2214C148.167 13.0353 149.205 13.4869 150.11 14.3216C154.086 17.9886 158.925 22.1441 164.247 22.6231C166.445 22.8208 169.965 21.2684 177.282 17.6422C184.599 14.016 195.568 7.69412 202.034 4.13636C208.5 0.578593 210.13 -0.0234869 211.489 0.343693C218.905 2.34779 223.453 16.1872 228.041 18.892C229.785 19.9198 234.682 18.518 244.148 16.7049C250.103 15.5645 258.21 13.0855 264.262 14.0297C275.136 15.726 280.21 24.8855 284.767 27.239C288.693 29.2665 293.385 29.4604 298.833 28.9335C305.187 28.3192 313.126 22.956 320.979 18.4655C323.873 16.8113 325.424 18.3401 326.778 19.6354C332.525 25.1322 337.704 29.2962 344.28 31.1275C351.744 33.206 361.043 30.2358 367.777 27.6541C370.388 26.6527 371.249 25.9756 371.929 25.9665C374.105 27.3303 376.05 27.9369 377.47 28.4683C378.148 28.6986 378.741 28.8492 380.25 29.0042" stroke="white" stroke-width="0.5" stroke-linecap="round"/>
</svg>
